<svg width="494" height="435" viewBox="0 0 494 435" fill="none" xmlns="http://www.w3.org/2000/svg">
<path d="M244.807 163.132C247.219 163.066 249.673 163.161 251.758 163.231L251.757 163.232C265.793 163.681 279.671 166.306 292.895 171.015L294.173 171.477L294.183 171.48C310.267 177.418 328.961 188.491 346.258 200.862C363.061 212.881 378.957 226.423 390.321 238.31L391.407 239.455L391.441 239.491L391.476 239.528C418.143 268.731 436.471 300.742 435.002 342.42V342.421C433.61 381.87 416.031 409.799 389.361 423.98C362.963 438.018 328.903 437.928 295.463 424.218C291.206 422.472 287.269 420.454 283.586 418.507C279.823 416.518 276.421 414.658 272.835 412.961L272.832 412.96C265.507 409.49 257.554 407.544 249.455 407.24C239.093 407.145 229.442 408.886 220.47 413.276H220.469C217.526 414.716 214.684 416.277 211.574 417.944C208.529 419.576 205.288 421.277 201.862 422.788H201.861C187.404 429.166 171.405 433.505 155.255 434.215C132.551 435.214 107.888 430.277 89.4873 413.896L88.6162 413.107C68.4107 394.516 59.9959 367.864 59.0508 342.141C57.6167 303.11 75.8532 268.171 101.19 241.014C106.886 234.906 112.913 228.875 119.269 223.262C140.163 204.807 174.876 180.014 202.12 170.611C216.139 165.773 230.281 163.648 244.75 163.134L244.807 163.132ZM156.004 427.17C155.652 427.189 155.299 427.205 154.947 427.221C154.12 427.257 153.292 427.284 152.463 427.304C152.948 427.293 153.432 427.28 153.916 427.263C154.26 427.25 154.604 427.237 154.947 427.222C155.299 427.206 155.652 427.189 156.004 427.17ZM301.118 418.932C300.618 418.74 300.118 418.544 299.618 418.346L299.607 418.342C300.111 418.542 300.615 418.738 301.118 418.932ZM199.036 416.383C197.841 416.91 196.635 417.42 195.421 417.916C196.197 417.6 196.969 417.279 197.737 416.949C198.171 416.763 198.605 416.574 199.036 416.384V416.383ZM256.229 193.638C251.218 193.186 246.179 193.092 241.152 193.356C215.897 195.431 201.435 201.629 179.683 215.62L179.665 215.632C156.768 230.263 132.86 248.577 115.314 270.395C97.8203 292.149 86.9647 316.971 89.1855 344.963C90.6679 362.967 96.6315 380.883 109.52 391.621C130.939 409.466 164.326 406.369 190.78 394.672L190.782 394.671C193.461 393.488 196.035 392.135 198.768 390.659C201.437 389.218 204.344 387.609 207.364 386.131L207.378 386.125C221.507 379.249 237.179 376.184 252.841 377.227L254.356 377.341L254.405 377.345L254.454 377.35C265.258 378.405 276.238 381.037 286.327 386.135L287.301 386.637L287.304 386.638C294.173 390.241 299.663 393.433 306.072 396.047H306.071C329.884 405.754 353.473 406.966 371.301 399.376C388.649 391.99 401.824 375.734 404.364 347.323C406.979 318.081 396.522 293.096 379.274 271.352C361.931 249.486 337.935 231.192 314.179 215.707H314.178C305.111 209.925 296.527 204.71 287.176 200.936L287.175 200.935C277.314 196.951 266.902 194.493 256.301 193.645L256.265 193.642L256.229 193.638ZM302.158 401.998C302.579 402.177 303.002 402.354 303.429 402.528C303.002 402.354 302.579 402.177 302.159 401.998C301.739 401.819 301.321 401.637 300.906 401.453L302.158 401.998ZM191.905 401.811C192.045 401.751 192.185 401.693 192.324 401.634L192.334 401.629C192.191 401.69 192.048 401.75 191.905 401.811ZM195.649 400.135L195.793 400.068C195.878 400.028 195.963 399.984 196.048 399.943C195.915 400.007 195.783 400.071 195.649 400.135ZM196.61 399.67C196.699 399.626 196.789 399.584 196.878 399.54L197.13 399.414C196.957 399.5 196.784 399.585 196.61 399.67ZM199.073 398.423C199.166 398.375 199.259 398.326 199.352 398.277C199.259 398.326 199.166 398.375 199.073 398.423ZM200.335 397.759C200.748 397.54 201.159 397.319 201.569 397.099C201.159 397.319 200.748 397.54 200.335 397.759ZM102.36 394.598C102.569 394.799 102.78 394.999 102.992 395.196L102.99 395.194C102.778 394.997 102.569 394.798 102.36 394.598ZM279.797 390.793C279.727 390.762 279.658 390.731 279.588 390.701C279.524 390.673 279.46 390.647 279.396 390.619C279.529 390.677 279.663 390.734 279.797 390.793ZM278.98 390.442C278.879 390.4 278.779 390.356 278.678 390.313C278.625 390.291 278.572 390.269 278.519 390.247C278.673 390.311 278.827 390.377 278.98 390.442ZM254.257 212.593L254.268 212.6L254.269 212.599C254.275 212.601 254.341 212.63 254.667 212.764C254.81 212.822 255.022 212.91 255.242 213.009C255.462 213.107 255.757 213.248 256.074 213.432C257.279 214.131 258.028 214.602 259.05 215.176C261.376 216.481 263.743 217.711 266.146 218.865C278.087 224.568 290.884 228.252 304.02 229.769C305.039 229.886 306.06 229.987 307.083 230.073C308.199 230.166 310.366 230.288 312.335 231.144C314.745 232.191 316.538 234.115 317.529 236.884L317.643 237.229C317.882 238.037 317.962 238.848 318.001 239.287C318.059 239.939 318.088 240.644 318.104 241.283C318.135 242.509 318.123 243.935 318.127 244.431V244.454C318.131 245.72 318.15 246.987 318.181 248.253L318.216 249.521V249.521C318.523 259.404 318.755 269.289 318.912 279.176L318.975 283.413V283.422C319.036 288.572 318.987 293.723 318.829 298.869V298.877L318.828 298.886C318.711 302.317 318.534 306.282 318.034 309.994L317.93 310.733C317.002 316.996 314.63 323.44 311.716 328.819L311.715 328.818C301.985 346.786 284.047 359.32 267.396 368.163L267.39 368.167C264.378 369.761 261.327 371.283 258.242 372.732L258.243 372.733C257.355 373.156 256.463 373.567 255.565 373.966L255.554 373.971C255.409 374.035 255.238 374.105 255.123 374.152C254.982 374.211 254.859 374.261 254.733 374.313C254.668 374.341 254.613 374.365 254.568 374.384L253.577 375.001H248.938L247.885 374.411C247.882 374.41 247.88 374.409 247.877 374.408C247.81 374.378 247.714 374.336 247.588 374.283C247.462 374.23 247.337 374.178 247.198 374.12C247.076 374.069 246.919 374.003 246.784 373.944L246.773 373.939L246.763 373.936C245.85 373.531 244.942 373.113 244.04 372.684V372.685C241.029 371.264 238.052 369.771 235.113 368.207L235.108 368.204C217.714 358.922 199.455 345.73 189.82 326.661V326.66C187.824 322.709 185.533 317.283 184.881 312.199C184.512 309.323 184.355 306.422 184.239 303.733V303.72L184.238 303.705C184.064 299.071 183.986 294.434 184.002 289.797V289.795C184.05 277.521 184.238 265.248 184.564 252.979L184.699 246.134C184.705 245.567 184.69 243.276 184.719 241.821C184.736 240.943 184.77 240.002 184.842 239.146C184.902 238.426 185.02 237.29 185.363 236.284L185.553 235.772C186.551 233.275 188.317 231.659 190.356 230.739C192.165 229.924 194.159 229.705 195.132 229.571L195.14 229.569L195.147 229.568C196.374 229.404 197.6 229.231 198.825 229.05C211.21 227.197 225.359 224.053 236.204 218.952L236.215 218.947L236.225 218.942C238.296 217.98 240.316 216.908 242.275 215.731C242.822 215.401 243.362 215.048 243.986 214.64C244.587 214.247 245.273 213.798 245.994 213.362C246.257 213.204 246.507 213.077 246.68 212.992C246.864 212.902 247.044 212.819 247.189 212.754C247.328 212.691 247.486 212.621 247.582 212.579C247.698 212.528 247.76 212.5 247.795 212.483L248.812 212.001H253.151L254.257 212.593ZM251.209 233.17C248.668 234.625 246.116 235.972 243.233 237.245C230.873 242.703 217.252 245.986 204.156 248.085C204.134 249.649 204.133 251.277 204.102 252.955L204.101 252.964L203.784 268.342L203.783 268.351V268.359C203.569 277.186 203.492 286.017 203.553 294.846V294.856L203.554 294.867C203.559 297.101 203.6 299.334 203.676 301.566L203.764 303.798V303.812C203.807 304.845 203.873 306.251 203.988 307.617C204.113 309.085 204.268 310.135 204.401 310.617C206.145 316.905 210.004 323.307 214.487 328.48L215.275 329.373C223.51 338.542 234.648 345.965 245.968 351.819L245.969 351.82C247.163 352.438 248.365 353.041 249.575 353.631L250.788 354.217L250.798 354.221C250.935 354.287 251.067 354.351 251.194 354.413C260.097 350.16 269.724 344.759 278.015 338.16C286.747 331.21 293.675 323.189 296.966 314.11L296.971 314.096L296.976 314.082C297.804 311.839 298.386 309.511 298.71 307.142C299.071 304.28 299.198 301.354 299.31 298.217C299.578 290.682 299.44 283.145 299.312 275.425V275.426L298.761 252.262C298.72 251.002 298.706 249.878 298.692 248.805C288.572 247.339 279.422 245.237 269.295 241.431V241.43C263.856 239.41 258.547 237.053 253.401 234.369V234.368C253.132 234.228 252.687 233.982 252.283 233.759C251.947 233.573 251.578 233.371 251.209 233.17ZM220.155 353.097C220.618 353.431 221.083 353.762 221.55 354.09C221.083 353.762 220.618 353.431 220.155 353.097ZM197.007 329.248C197.047 329.313 197.09 329.377 197.131 329.442C196.926 329.116 196.723 328.789 196.524 328.459L197.007 329.248ZM193.923 323.683C194.043 323.928 194.163 324.169 194.283 324.406C194.373 324.583 194.465 324.759 194.556 324.935C194.465 324.758 194.373 324.582 194.283 324.405C194.163 324.168 194.043 323.927 193.923 323.682V323.683ZM312.612 312.108C312.546 312.435 312.476 312.761 312.401 313.088C312.556 312.407 312.694 311.728 312.813 311.052L312.612 312.108ZM397.236 285.378C397.351 285.58 397.467 285.782 397.58 285.984C397.798 286.374 398.015 286.764 398.229 287.155V287.154C397.903 286.559 397.571 285.968 397.236 285.378ZM396.433 283.981C396.344 283.83 396.257 283.679 396.168 283.528C396.257 283.679 396.344 283.83 396.433 283.981ZM390.429 274.609C390.686 274.979 390.942 275.349 391.196 275.72L390.43 274.609C390.172 274.24 389.912 273.872 389.65 273.505L390.429 274.609ZM384.178 242.022C384.508 242.363 384.835 242.701 385.158 243.038C384.48 242.33 383.784 241.615 383.072 240.894L384.178 242.022ZM433.629 97.374C447.558 96.6484 461.593 100.785 472.521 109.967L473.038 110.408L473.042 110.411C488.482 123.748 494.554 142.419 493.876 160.801C493.202 179.085 485.872 197.501 473.958 211.258C460.48 226.821 443.577 236.804 422.289 238.508L422.288 238.509C389.251 241.147 363.839 214.489 361.796 183.488C359.023 141.431 389.818 101.012 433.414 97.3887L433.521 97.3799L433.629 97.374ZM53.7617 97.375C83.6086 95.9461 109.018 114.876 122.248 139.104C135.503 163.378 137.447 194.702 118.108 218.726C108.093 231.167 93.9826 237.167 79.1338 238.503L79.0547 238.51L78.9756 238.516C61.3092 239.704 45.2633 233.046 31.7402 222.71L30.4395 221.698C11.7064 206.874 0.480145 182.633 0.0146484 159.353C-0.456417 135.783 10.1914 112.407 35.9902 101.247C41.7224 98.7674 48.06 97.8206 53.5479 97.3887L53.6543 97.3799L53.7617 97.375ZM312.823 238.57L312.729 238.321L312.718 238.294C312.754 238.383 312.789 238.475 312.823 238.57ZM197.689 234.266C197.064 234.354 196.438 234.44 195.812 234.524H195.813C196.439 234.44 197.064 234.354 197.689 234.266ZM78.5059 231.53C78.2556 231.547 78.0055 231.563 77.7559 231.576L78.5059 231.531C78.9171 231.494 79.3273 231.452 79.7363 231.407C79.3275 231.452 78.917 231.493 78.5059 231.53ZM224.316 228.688C223.494 228.931 222.667 229.167 221.837 229.396L221.836 229.396C222.667 229.168 223.494 228.931 224.316 228.688ZM435.401 229.024L436.21 228.78C436.302 228.752 436.393 228.721 436.484 228.692C436.125 228.806 435.764 228.917 435.401 229.024ZM436.745 228.609C436.834 228.581 436.924 228.554 437.013 228.525C437.279 228.439 437.546 228.351 437.811 228.261H437.81C437.457 228.38 437.101 228.496 436.745 228.609ZM266.335 224.467C266.593 224.583 266.852 224.698 267.11 224.812C266.458 224.523 265.808 224.229 265.161 223.928L266.335 224.467ZM360.731 220.746C361.714 221.55 362.687 222.355 363.649 223.159H363.65C362.688 222.355 361.715 221.55 360.732 220.746H360.731ZM318.001 209.843C318.75 210.331 319.501 210.821 320.251 211.315C319.5 210.821 318.75 210.33 318.001 209.842C316.862 209.115 315.724 208.393 314.585 207.678C315.724 208.393 316.862 209.116 318.001 209.843ZM175.896 209.732C175.171 210.195 174.445 210.663 173.718 211.134L175.896 209.733C176.598 209.282 177.294 208.837 177.983 208.4C177.294 208.837 176.598 209.281 175.896 209.732ZM57.502 127.385C49.455 127.756 43.6947 130.291 39.627 133.838C35.4811 137.453 32.6486 142.51 31.2061 148.542C28.2725 160.81 31.3641 176.124 39.3652 187.394C48.4514 200.191 60.4389 208.192 75.2939 208.591C84.4683 208.183 91.1633 204.428 95.5879 198.886C100.139 193.185 102.658 185.105 102.286 175.739C101.82 164.019 96.6213 151.849 88.2998 142.594C80.0434 133.411 69.1655 127.567 57.502 127.385ZM436.158 127.386C410.725 128.65 390.811 153.487 391.531 179.382L391.561 180.177C392.349 196.748 403.192 208.609 419.304 208.582C431.586 208.021 442.865 201.573 451.098 191.766C459.249 182.055 464.011 169.506 463.754 157.375L463.737 156.798C463.433 147.93 460.531 140.632 455.914 135.611C451.402 130.705 444.85 127.518 436.158 127.386ZM442.295 208.512V208.513C442.485 208.397 442.675 208.281 442.863 208.163V208.162C442.675 208.28 442.485 208.396 442.295 208.512ZM449.342 203.428C449.171 203.572 449 203.717 448.827 203.859L449.342 203.429C449.513 203.284 449.682 203.138 449.852 202.991L449.342 203.428ZM289.796 194.444C290.109 194.571 290.421 194.698 290.732 194.827C291.044 194.956 291.354 195.088 291.664 195.22H291.665C291.046 194.955 290.422 194.696 289.796 194.443C289.329 194.255 288.861 194.071 288.392 193.889C288.861 194.071 289.329 194.256 289.796 194.444ZM228.898 187.738C228.528 187.796 228.16 187.854 227.794 187.914L228.899 187.738C229.269 187.681 229.641 187.624 230.016 187.569L228.898 187.738ZM240.688 186.37C240.27 186.404 239.855 186.44 239.442 186.477L240.688 186.371C241.025 186.353 241.362 186.336 241.699 186.321C241.362 186.336 241.025 186.352 240.688 186.37ZM309.512 186.109C309.016 185.848 308.521 185.591 308.028 185.336C308.522 185.59 309.016 185.848 309.512 186.109ZM307.798 185.218C307.456 185.042 307.115 184.867 306.774 184.694C306.666 184.639 306.557 184.586 306.449 184.531C306.898 184.757 307.347 184.986 307.798 185.218ZM300.79 181.804C300.731 181.776 300.672 181.749 300.612 181.722C300.259 181.56 299.905 181.403 299.554 181.245C299.964 181.429 300.377 181.614 300.79 181.804ZM323.763 0.368164C339.431 -0.283119 354.212 3.53637 366.929 13.8379C385.373 28.7789 393.655 50.5967 394.036 72.4873C394.416 94.3094 386.986 116.709 373.376 133.617C359.1 151.353 341.57 162.023 318.566 164.646L318.413 164.664L318.26 164.675C302.461 165.774 286.84 160.869 274.516 150.956L273.932 150.48C258.458 137.729 249.834 118.746 248.109 99.5049L248.01 98.3203C246.079 73.4454 253.869 48.7717 269.767 29.5039L269.787 29.4795L269.807 29.4551C283.55 13.1008 301.364 2.33932 323.438 0.389648L323.6 0.375L323.763 0.368164ZM162.616 0.136719C181.189 -1.18184 199.876 7.20721 213.247 18.4014C230.672 32.9686 241.965 54.6684 245.251 77.1123C248.542 99.5913 243.868 123.419 228.502 141.853C216.672 156.044 201.379 163.085 183.633 164.634L183.536 164.643L183.439 164.648C165.454 165.718 146.305 157.653 133.263 146.632L133.235 146.608C114.167 130.325 102.286 107.18 100.17 82.1943L100.168 82.167C98.5896 62.5939 103.073 43.0454 113.587 27.8252C124.204 12.4571 140.818 1.77115 162.589 0.138672L162.616 0.136719ZM317.773 157.691C317.551 157.707 317.328 157.722 317.105 157.734L317.773 157.692C318.04 157.662 318.305 157.63 318.569 157.597L317.773 157.691ZM223.628 136.759L223.763 136.595C223.87 136.462 223.975 136.328 224.081 136.195C223.931 136.384 223.78 136.571 223.628 136.759ZM331.409 30.4531C329.508 30.269 327.809 30.279 325.575 30.3516C296.066 34.0787 279.531 60.2642 278.03 86.7959C277.284 99.985 280.386 112.344 286.781 121.073C292.949 129.491 302.48 135.002 316.173 134.601C331.164 132.988 343.701 124.25 352.273 111.796C360.925 99.227 365.223 83.2807 363.786 68.3584L363.689 67.4424C361.519 48.2734 349.527 32.2071 331.409 30.4531ZM209.911 62.6562C200.653 42.6236 183.087 28.6787 162.604 30.334C152.113 32.0672 144.727 35.9971 138.849 44.332C130.137 56.6849 128.012 72.609 131.427 88.0059C134.847 103.427 143.688 117.627 155.902 126.286H155.901C164.151 132.13 174.134 135.414 183.328 134.435L183.346 134.433C192.497 133.481 199.993 129.241 206.099 121.891C218.854 106.535 219.233 82.827 209.911 62.6562ZM405.842 132.454C405.807 132.484 405.771 132.513 405.736 132.543C405.942 132.37 406.149 132.198 406.356 132.027L405.842 132.454ZM284.58 129.339C284.609 129.369 284.638 129.398 284.667 129.428C284.501 129.254 284.336 129.08 284.173 128.903L284.58 129.339ZM371.303 124.711C370.227 126.259 369.1 127.766 367.924 129.228V129.229C369.1 127.767 370.227 126.26 371.303 124.712V124.711ZM209.735 128.354C209.862 128.217 209.99 128.081 210.116 127.941L210.138 127.917C210.005 128.064 209.87 128.209 209.735 128.354ZM16.2939 125.824C16.1101 126.093 15.9281 126.364 15.75 126.636L15.751 126.637C15.9291 126.364 16.1103 126.094 16.2939 125.824ZM375.797 117.484C375.644 117.761 375.489 118.037 375.333 118.312L375.798 117.484C375.951 117.208 376.103 116.93 376.253 116.651L375.797 117.484ZM376.7 115.812L377.139 114.969C377.189 114.87 377.239 114.77 377.289 114.671C377.095 115.053 376.899 115.434 376.7 115.812ZM31.7939 111.258C31.7545 111.282 31.7152 111.306 31.6758 111.33C31.7626 111.277 31.8502 111.225 31.9375 111.173L31.7939 111.258ZM431.092 104.669C431.445 104.624 431.799 104.582 432.154 104.543L432.162 104.542C431.804 104.581 431.448 104.624 431.092 104.669ZM381.64 104.604C381.656 104.56 381.673 104.515 381.689 104.471L381.85 104.02C381.781 104.215 381.71 104.41 381.64 104.604ZM381.891 103.899C381.93 103.789 381.97 103.679 382.009 103.568C382.023 103.526 382.036 103.483 382.051 103.441C381.998 103.594 381.944 103.747 381.891 103.899ZM354.536 33.3721C354.313 33.1715 354.089 32.973 353.861 32.7773C354.088 32.9731 354.313 33.1716 354.536 33.3721ZM302.425 30.9033C302.403 30.9164 302.381 30.9302 302.358 30.9434C302.585 30.8095 302.812 30.6769 303.041 30.5459L302.425 30.9033ZM307.514 28.2451C307.479 28.2611 307.444 28.2779 307.409 28.2939C307.664 28.1765 307.92 28.0603 308.177 27.9463L307.514 28.2451ZM211.09 25.8066C210.822 25.5635 210.553 25.3224 210.282 25.083C210.553 25.3222 210.822 25.5635 211.09 25.8066ZM340.152 25.1104C339.872 25.0223 339.589 24.9375 339.305 24.8555C339.589 24.9374 339.872 25.0225 340.152 25.1104ZM368.559 24.8447C368.476 24.7579 368.394 24.6704 368.311 24.584C368.264 24.5358 368.217 24.4885 368.17 24.4404C368.3 24.5747 368.43 24.7095 368.559 24.8447ZM339.187 24.8223C338.925 24.7477 338.662 24.6768 338.397 24.6074C338.662 24.6769 338.925 24.7477 339.187 24.8223ZM338.212 24.5586C337.91 24.4811 337.607 24.4057 337.302 24.335C337.607 24.4057 337.91 24.481 338.212 24.5586ZM334.362 23.7715L334.204 23.7461C334.116 23.7329 334.027 23.7216 333.938 23.709C334.08 23.7292 334.221 23.7499 334.362 23.7715ZM332.083 23.4863C332.168 23.4946 332.253 23.504 332.338 23.5127C332.253 23.504 332.168 23.4936 332.083 23.4854C331.776 23.4556 331.473 23.4309 331.175 23.4092C331.473 23.4309 331.776 23.4566 332.083 23.4863ZM173.829 7.53223L173.064 7.42871C173.054 7.42742 173.044 7.42609 173.034 7.4248C173.299 7.45866 173.564 7.4945 173.829 7.53223ZM160.392 7.37793C160.338 7.38415 160.284 7.39111 160.23 7.39746C160.582 7.35577 160.936 7.31652 161.291 7.28027L160.392 7.37793ZM397.066 285.077C396.94 284.856 396.812 284.636 396.685 284.415C396.812 284.636 396.94 284.856 397.066 285.077Z" fill="black"/>
</svg>
