<svg width="27" height="27" viewBox="0 0 27 27" fill="none" xmlns="http://www.w3.org/2000/svg">
<path d="M13.1227 1.22388e-05H13.4605C13.8041 0.149099 14.1221 0.277756 14.2677 0.656603C14.4663 1.17383 14.3477 3.34922 14.366 4.04676C18.7495 4.64995 22.0304 7.80405 22.6362 12.2127C23.2703 12.2081 23.9041 12.2069 24.5379 12.209C25.4062 12.2096 26.5234 12.0755 26.5824 13.2939C26.5992 13.6405 26.3929 14.0371 26.0813 14.1989C25.5744 14.4621 24.8561 14.3611 24.2909 14.3699C23.7978 14.3776 23.2797 14.3818 22.793 14.3682C22.7465 14.3668 22.7001 14.3652 22.6538 14.3632C22.2672 17.0898 21.1358 19.1351 18.9199 20.8418C17.7809 21.7189 15.8164 22.5646 14.3687 22.6414C14.365 23.2731 14.3648 23.9049 14.3677 24.5366C14.3682 25.0793 14.4616 25.8434 14.0535 26.255C13.8878 26.4218 13.6505 26.5055 13.4328 26.5833H13.1259C12.9112 26.4759 12.7103 26.4317 12.5289 26.2513C12.1197 25.8446 12.2196 25.0528 12.2204 24.5115L12.2215 22.6646C11.8608 22.5989 11.5523 22.571 11.1755 22.4864C9.7389 22.1647 8.39685 21.5146 7.25504 20.5873C5.34832 19.0414 4.12978 16.8076 3.86388 14.371C3.00768 14.3474 2.14126 14.3828 1.27258 14.372C0.610749 14.4107 -0.0415656 13.9991 0.00207397 13.2569C0.0738242 12.0367 1.32003 12.207 2.12808 12.2078C2.71026 12.2051 3.29246 12.2088 3.87456 12.2189C4.34446 7.85796 7.91773 4.56437 12.2201 4.04362C12.2382 3.04818 12.1965 2.04607 12.2302 1.05113C12.2513 0.429541 12.61 0.207982 13.1227 1.22388e-05ZM6.03078 12.2205C6.75095 12.188 7.54241 12.1998 8.26472 12.2078C8.87139 12.2146 9.95663 12.085 10.4139 12.5082C10.6247 12.7044 10.7461 12.9778 10.7501 13.2654C10.7572 13.5577 10.6468 13.8407 10.4435 14.0514C10.1373 14.3659 9.7132 14.369 9.30286 14.3707L7.20964 14.3712C6.86283 14.3713 6.3553 14.3868 6.01857 14.3644C6.11238 14.8237 6.17616 15.1725 6.32675 15.6239C6.84331 17.153 7.8574 18.4659 9.20782 19.3542C10.1891 20.001 11.0729 20.301 12.2149 20.5021C12.2386 19.6554 12.2041 18.8053 12.2212 17.9607C12.2332 17.3735 12.0915 16.5486 12.5544 16.1164C12.7668 15.9191 13.0504 15.8164 13.3402 15.8316C14.2469 15.8798 14.4242 16.6947 14.368 17.4133C14.3534 17.6009 14.3678 17.842 14.3675 18.0343L14.3645 20.3884L14.3734 20.4532C14.5404 20.5297 15.6301 20.1856 15.8657 20.0945C17.6484 19.4053 19.1119 18.052 19.9081 16.3148C20.2115 15.6527 20.3569 15.0744 20.4887 14.3715L18.0457 14.3714C17.5956 14.3719 17.0366 14.4077 16.6017 14.3206C16.1364 14.2273 15.8258 13.7172 15.8345 13.2659C15.8416 12.9784 15.9623 12.7052 16.1698 12.5056C16.5844 12.1069 17.5404 12.2074 18.0922 12.2078L20.4604 12.2133C20.1533 10.3197 19.1017 8.6266 17.5389 7.50909C16.8479 7.01137 16.0744 6.63898 15.2542 6.40902C14.9887 6.33571 14.5889 6.27141 14.363 6.20001L14.368 8.54957C14.368 9.12202 14.4814 10.0204 14.0549 10.4416C13.8452 10.6485 13.5608 10.7628 13.2659 10.7585C12.984 10.754 12.7158 10.637 12.5211 10.4338C12.1239 10.0247 12.2201 9.29682 12.2201 8.75477L12.2214 6.87993C12.2221 6.67065 12.2351 6.45289 12.2147 6.24576C12.2114 6.21209 12.1713 6.20515 12.1437 6.20759C11.658 6.30785 11.2778 6.38757 10.8039 6.55271C9.30382 7.07988 8.01774 8.08209 7.142 9.40648C6.47805 10.4144 6.28818 11.0917 6.03078 12.2205Z" fill="white"/>
</svg>
