<svg width="536" height="417" viewBox="0 0 536 417" fill="none" xmlns="http://www.w3.org/2000/svg">
<mask id="path-1-outside-1_426_1588" maskUnits="userSpaceOnUse" x="0" y="-0.999023" width="536" height="418" fill="black">
<rect fill="white" y="-0.999023" width="536" height="418"/>
<path d="M394.98 27.2617C516.644 -43.7724 493.473 89.3389 473.98 159.379C477.457 166.81 480.879 174.271 484.238 181.759C496.894 181.434 514.199 180.322 525.16 186.708C532.394 192.467 526.449 203.599 517.324 202.473C508.754 201.415 499.402 200.165 490.941 200.256C497.027 218.368 499.254 241.072 498.277 260.051L499.949 260.841C504.911 263.193 536.948 275.785 516.371 288.071C512.606 290.318 500.293 282.526 495.59 279.839C490.91 304.72 475.434 324.854 458.121 342.551C376.34 424.317 207.332 427.648 112.098 369.482C78.9103 349.214 49.1603 318.383 39.8477 279.931L32.7617 283.968C28.6368 286.277 14.8401 290.553 12.707 283.958C8.84766 272.053 28.5352 264.118 37.082 260.223C36.6758 239.501 38.0586 220.141 44.7695 200.348C34.5509 200.159 28.1131 201.544 18.1602 202.503C15.9805 202.705 12.0586 202.117 10.5977 200.282C-6.37891 178.97 41.7305 181.526 51.1133 181.833L61.5977 159.303C61.2305 158.118 60.8711 156.928 60.5352 155.734C50.5586 120.662 36.4492 57.0697 54.4648 23.249C59.3633 14.0428 66.5195 10.0805 76.1289 7.53027C105.308 4.70995 134.113 22.7742 157.855 38.1152C165.84 43.2719 173.293 49.4764 181.645 54.2354C192.566 51.3163 204.738 46.0877 217.207 42.9883C271.285 29.5468 304.113 37.3362 353.691 54.2383C358.246 52.0513 366.145 46.1141 370.566 43.0381C378.488 37.4533 386.637 32.1902 394.98 27.2617ZM469.371 47.0078C465.082 14.1912 436.566 26.9224 416.23 37.1943C408.176 41.2884 400.355 45.8242 392.809 50.7793C372.731 63.9209 364.238 77.8524 338.645 69.4971C334.191 68.0048 329.762 66.4376 325.363 64.7969C325.238 74.3978 327.746 102.347 321.512 108.687C319.918 110.304 317.746 111.07 315.504 110.992C313.113 110.908 311.004 109.936 309.434 108.111C303.957 101.756 306.285 69.0854 306.16 59.4463C294.84 56.8359 288.824 55.8032 277.262 55.3828L277.293 108.995C277.316 118.349 277.668 127.687 276.973 137.012C276.098 148.656 259.465 148.532 258.605 137.115C257.887 127.649 258.199 118.027 258.23 108.526L258.34 55.3477C246.863 55.9102 240.449 56.8506 229.246 59.4531C229.34 71.033 235.301 122.729 213.957 108.61C208.301 104.87 210.449 72.5017 210.34 64.8398C176.66 76.7665 177.129 75.2598 148.543 54.7246C131.941 42.7971 98.8788 23.6379 78.4883 26.2646C72.1758 29.9087 68.9102 34.3696 67.2773 41.6279C60.754 70.7355 67.3946 105.015 74.5039 133.724C81.2383 160.877 83.0898 159.531 70.668 184.902C87.5273 189.501 103.668 195.141 119.184 203.629C126.613 207.689 145.309 216.214 135.066 227.166C128.574 234.108 113.816 222.53 105.949 218.414C92.5196 211.495 78.2695 206.307 63.5352 202.974C58.3165 221.148 55.5039 234.807 55.6914 254.134C68.3789 251.423 81.1602 249.38 94.1055 249.41C101.926 249.624 117.012 247.622 119.52 257.722C120.488 261.615 116.973 268.01 112.879 268.138C94.4258 268.712 75.5664 267.897 57.668 273.497C65.2305 306.283 91.1915 334.45 119.777 351.539C184.043 389.951 264.824 398.513 337.121 382.407C391.394 370.316 466.894 333.622 477.762 273.443C466.074 270.249 454.012 268.586 441.895 268.494C437.902 268.448 426.027 268.904 422.926 268.229C420.488 267.685 418.387 266.133 417.152 263.959C415.942 261.849 415.621 259.341 416.27 256.994C418.637 248.475 429.488 249.647 436.488 249.503C453.277 249.489 463.324 250.578 479.863 254.049C479.527 237.631 477.769 218.381 471.762 202.923C447.996 209.127 430.457 216.837 409.652 229.293C403.566 232.94 392.949 222.545 399.457 215.564C414.074 201.523 444.934 189.543 464.77 184.996C451.285 156.179 455.301 157.834 462.652 127.548C468.746 102.473 473.262 72.4848 469.371 47.0078ZM235.887 205.021C242.644 204.72 244.957 207.324 248.652 212.535C254.762 221.147 259.879 227.7 267.754 234.801C276.66 227.405 281.926 219.166 288.746 210.037C291.16 207.007 293.051 205.696 296.715 205.106C301.121 204.397 306.598 208.689 306.277 213.23C305.48 224.337 291.957 237.567 284.738 245.371C292.652 247.231 299.965 247.549 306.059 252.521C311.449 277.325 277.957 263.242 267.832 258.229C267.27 258.537 266.699 258.833 266.121 259.119C257.949 263.182 232.559 274.042 229.238 259.584C226.489 247.597 242.52 247.542 250.793 245.191C244.121 238.208 228.566 223.151 229.457 211.996C229.699 208.991 233.004 206.638 235.355 205.05L235.887 205.021ZM363.379 149.993C377.41 147.718 390.629 157.264 392.879 171.301C395.129 185.338 385.566 198.538 371.527 200.767C357.52 202.989 344.355 193.449 342.113 179.445C339.863 165.442 349.379 152.264 363.379 149.993ZM163.965 149.999C177.965 147.745 191.137 157.246 193.418 171.237C195.699 185.227 186.23 198.425 172.246 200.734C158.215 203.05 144.98 193.542 142.691 179.512C140.402 165.483 149.934 152.26 163.965 149.999Z"/>
</mask>
<path d="M394.98 27.2617C516.644 -43.7724 493.473 89.3389 473.98 159.379C477.457 166.81 480.879 174.271 484.238 181.759C496.894 181.434 514.199 180.322 525.16 186.708C532.394 192.467 526.449 203.599 517.324 202.473C508.754 201.415 499.402 200.165 490.941 200.256C497.027 218.368 499.254 241.072 498.277 260.051L499.949 260.841C504.911 263.193 536.948 275.785 516.371 288.071C512.606 290.318 500.293 282.526 495.59 279.839C490.91 304.72 475.434 324.854 458.121 342.551C376.34 424.317 207.332 427.648 112.098 369.482C78.9103 349.214 49.1603 318.383 39.8477 279.931L32.7617 283.968C28.6368 286.277 14.8401 290.553 12.707 283.958C8.84766 272.053 28.5352 264.118 37.082 260.223C36.6758 239.501 38.0586 220.141 44.7695 200.348C34.5509 200.159 28.1131 201.544 18.1602 202.503C15.9805 202.705 12.0586 202.117 10.5977 200.282C-6.37891 178.97 41.7305 181.526 51.1133 181.833L61.5977 159.303C61.2305 158.118 60.8711 156.928 60.5352 155.734C50.5586 120.662 36.4492 57.0697 54.4648 23.249C59.3633 14.0428 66.5195 10.0805 76.1289 7.53027C105.308 4.70995 134.113 22.7742 157.855 38.1152C165.84 43.2719 173.293 49.4764 181.645 54.2354C192.566 51.3163 204.738 46.0877 217.207 42.9883C271.285 29.5468 304.113 37.3362 353.691 54.2383C358.246 52.0513 366.145 46.1141 370.566 43.0381C378.488 37.4533 386.637 32.1902 394.98 27.2617ZM469.371 47.0078C465.082 14.1912 436.566 26.9224 416.23 37.1943C408.176 41.2884 400.355 45.8242 392.809 50.7793C372.731 63.9209 364.238 77.8524 338.645 69.4971C334.191 68.0048 329.762 66.4376 325.363 64.7969C325.238 74.3978 327.746 102.347 321.512 108.687C319.918 110.304 317.746 111.07 315.504 110.992C313.113 110.908 311.004 109.936 309.434 108.111C303.957 101.756 306.285 69.0854 306.16 59.4463C294.84 56.8359 288.824 55.8032 277.262 55.3828L277.293 108.995C277.316 118.349 277.668 127.687 276.973 137.012C276.098 148.656 259.465 148.532 258.605 137.115C257.887 127.649 258.199 118.027 258.23 108.526L258.34 55.3477C246.863 55.9102 240.449 56.8506 229.246 59.4531C229.34 71.033 235.301 122.729 213.957 108.61C208.301 104.87 210.449 72.5017 210.34 64.8398C176.66 76.7665 177.129 75.2598 148.543 54.7246C131.941 42.7971 98.8788 23.6379 78.4883 26.2646C72.1758 29.9087 68.9102 34.3696 67.2773 41.6279C60.754 70.7355 67.3946 105.015 74.5039 133.724C81.2383 160.877 83.0898 159.531 70.668 184.902C87.5273 189.501 103.668 195.141 119.184 203.629C126.613 207.689 145.309 216.214 135.066 227.166C128.574 234.108 113.816 222.53 105.949 218.414C92.5196 211.495 78.2695 206.307 63.5352 202.974C58.3165 221.148 55.5039 234.807 55.6914 254.134C68.3789 251.423 81.1602 249.38 94.1055 249.41C101.926 249.624 117.012 247.622 119.52 257.722C120.488 261.615 116.973 268.01 112.879 268.138C94.4258 268.712 75.5664 267.897 57.668 273.497C65.2305 306.283 91.1915 334.45 119.777 351.539C184.043 389.951 264.824 398.513 337.121 382.407C391.394 370.316 466.894 333.622 477.762 273.443C466.074 270.249 454.012 268.586 441.895 268.494C437.902 268.448 426.027 268.904 422.926 268.229C420.488 267.685 418.387 266.133 417.152 263.959C415.942 261.849 415.621 259.341 416.27 256.994C418.637 248.475 429.488 249.647 436.488 249.503C453.277 249.489 463.324 250.578 479.863 254.049C479.527 237.631 477.769 218.381 471.762 202.923C447.996 209.127 430.457 216.837 409.652 229.293C403.566 232.94 392.949 222.545 399.457 215.564C414.074 201.523 444.934 189.543 464.77 184.996C451.285 156.179 455.301 157.834 462.652 127.548C468.746 102.473 473.262 72.4848 469.371 47.0078ZM235.887 205.021C242.644 204.72 244.957 207.324 248.652 212.535C254.762 221.147 259.879 227.7 267.754 234.801C276.66 227.405 281.926 219.166 288.746 210.037C291.16 207.007 293.051 205.696 296.715 205.106C301.121 204.397 306.598 208.689 306.277 213.23C305.48 224.337 291.957 237.567 284.738 245.371C292.652 247.231 299.965 247.549 306.059 252.521C311.449 277.325 277.957 263.242 267.832 258.229C267.27 258.537 266.699 258.833 266.121 259.119C257.949 263.182 232.559 274.042 229.238 259.584C226.489 247.597 242.52 247.542 250.793 245.191C244.121 238.208 228.566 223.151 229.457 211.996C229.699 208.991 233.004 206.638 235.355 205.05L235.887 205.021ZM363.379 149.993C377.41 147.718 390.629 157.264 392.879 171.301C395.129 185.338 385.566 198.538 371.527 200.767C357.52 202.989 344.355 193.449 342.113 179.445C339.863 165.442 349.379 152.264 363.379 149.993ZM163.965 149.999C177.965 147.745 191.137 157.246 193.418 171.237C195.699 185.227 186.23 198.425 172.246 200.734C158.215 203.05 144.98 193.542 142.691 179.512C140.402 165.483 149.934 152.26 163.965 149.999Z" fill="black"/>
<path d="M394.98 27.2617L391.451 21.2166L391.436 21.2256L391.42 21.2346L394.98 27.2617ZM473.98 159.379L467.237 157.502L466.542 159.998L467.64 162.345L473.98 159.379ZM484.238 181.759L477.852 184.624L479.759 188.876L484.418 188.756L484.238 181.759ZM525.16 186.708L529.52 181.232L529.123 180.915L528.684 180.66L525.16 186.708ZM517.324 202.473L516.467 209.42L516.467 209.42L517.324 202.473ZM490.941 200.256L490.866 193.256L481.24 193.359L484.306 202.485L490.941 200.256ZM498.277 260.051L491.287 259.691L491.046 264.376L495.287 266.38L498.277 260.051ZM499.949 260.841L502.948 254.516L502.94 254.512L499.949 260.841ZM516.371 288.071L519.958 294.082L519.96 294.082L516.371 288.071ZM495.59 279.839L499.062 273.761L490.527 268.885L488.71 278.545L495.59 279.839ZM458.121 342.551L463.07 347.501L463.098 347.474L463.125 347.446L458.121 342.551ZM112.098 369.482L115.746 363.509L115.746 363.508L112.098 369.482ZM39.8477 279.931L46.651 278.283L44.4621 269.245L36.3825 273.849L39.8477 279.931ZM32.7617 283.968L36.1814 290.076L36.2042 290.063L36.2269 290.05L32.7617 283.968ZM12.707 283.958L19.3673 281.804L19.3659 281.799L12.707 283.958ZM37.082 260.223L39.9852 266.592L44.1708 264.684L44.0807 260.085L37.082 260.223ZM44.7695 200.348L51.3989 202.595L54.4737 193.526L44.899 193.349L44.7695 200.348ZM18.1602 202.503L18.8072 209.473L18.8193 209.472L18.8313 209.471L18.1602 202.503ZM10.5977 200.282L16.0742 195.923L16.0729 195.921L10.5977 200.282ZM51.1133 181.833L50.8843 188.829L55.508 188.981L57.4598 184.786L51.1133 181.833ZM61.5977 159.303L67.9441 162.256L69.0831 159.809L68.2838 157.23L61.5977 159.303ZM60.5352 155.734L67.2735 153.838L67.2708 153.829L67.2681 153.819L60.5352 155.734ZM54.4648 23.249L60.643 26.54L60.6445 26.5371L54.4648 23.249ZM76.1289 7.53027L75.4555 0.562743L74.8862 0.617768L74.3334 0.764478L76.1289 7.53027ZM157.855 38.1152L154.056 43.9947L154.058 43.9955L157.855 38.1152ZM181.645 54.2354L178.179 60.3172L180.676 61.74L183.452 60.998L181.645 54.2354ZM217.207 42.9883L215.518 36.195L215.518 36.195L217.207 42.9883ZM353.691 54.2383L351.433 60.8638L354.141 61.7873L356.721 60.5486L353.691 54.2383ZM370.566 43.0381L374.564 48.7845L374.582 48.7719L374.6 48.7593L370.566 43.0381ZM469.371 47.0078L462.43 47.915L462.44 47.9899L462.451 48.0645L469.371 47.0078ZM416.23 37.1943L413.074 30.9462L413.067 30.9502L413.059 30.9542L416.23 37.1943ZM392.809 50.7793L396.642 56.6363L396.651 56.6308L392.809 50.7793ZM338.645 69.4971L336.42 76.1343L336.446 76.143L336.472 76.1514L338.645 69.4971ZM325.363 64.7969L327.81 58.2383L318.493 54.763L318.364 64.7058L325.363 64.7969ZM321.512 108.687L326.499 113.599L326.503 113.595L321.512 108.687ZM315.504 110.992L315.257 117.988L315.26 117.988L315.504 110.992ZM309.434 108.111L314.739 103.545L314.736 103.542L309.434 108.111ZM306.16 59.4463L313.16 59.3555L313.088 53.8602L307.733 52.6253L306.16 59.4463ZM277.262 55.3828L277.516 48.3874L270.257 48.1236L270.262 55.3869L277.262 55.3828ZM277.293 108.995L270.293 108.999L270.293 109.013L277.293 108.995ZM276.973 137.012L283.953 137.536L283.953 137.532L276.973 137.012ZM258.605 137.115L265.586 136.59L265.585 136.585L258.605 137.115ZM258.23 108.526L265.23 108.549L265.23 108.541L258.23 108.526ZM258.34 55.3477L265.34 55.3621L265.355 47.9954L257.997 48.356L258.34 55.3477ZM229.246 59.4531L227.662 52.6347L222.201 53.9034L222.246 59.5098L229.246 59.4531ZM213.957 108.61L217.819 102.772L217.818 102.772L213.957 108.61ZM210.34 64.8398L217.339 64.74L217.2 54.9846L208.003 58.2414L210.34 64.8398ZM148.543 54.7246L144.459 60.4095L144.459 60.4097L148.543 54.7246ZM78.4883 26.2646L77.5939 19.322L76.2031 19.5012L74.9886 20.2023L78.4883 26.2646ZM67.2773 41.6279L60.448 40.0916L60.4468 40.0971L67.2773 41.6279ZM74.5039 133.724L67.7092 135.406L67.7097 135.409L74.5039 133.724ZM70.668 184.902L64.381 181.824L60.6584 189.428L68.8259 191.656L70.668 184.902ZM119.184 203.629L115.824 209.77L115.827 209.771L119.184 203.629ZM135.066 227.166L140.179 231.948L140.179 231.947L135.066 227.166ZM105.949 218.414L109.194 212.212L109.175 212.201L109.155 212.191L105.949 218.414ZM63.5352 202.974L65.0796 196.146L58.6316 194.688L56.807 201.042L63.5352 202.974ZM55.6914 254.134L48.6917 254.202L48.7749 262.769L57.1538 260.979L55.6914 254.134ZM94.1055 249.41L94.297 242.413L94.2095 242.41L94.1219 242.41L94.1055 249.41ZM119.52 257.722L112.726 259.409L112.727 259.412L119.52 257.722ZM112.879 268.138L113.097 275.134L113.098 275.134L112.879 268.138ZM57.668 273.497L55.5776 266.816L49.3898 268.753L50.8471 275.07L57.668 273.497ZM119.777 351.539L116.186 357.547L116.186 357.548L119.777 351.539ZM337.121 382.407L338.643 389.24V389.24L337.121 382.407ZM477.762 273.443L484.65 274.687L485.789 268.38L479.607 266.691L477.762 273.443ZM441.895 268.494L441.814 275.494L441.828 275.494L441.842 275.494L441.895 268.494ZM422.926 268.229L421.399 275.061L421.419 275.065L421.439 275.07L422.926 268.229ZM417.152 263.959L423.24 260.503L423.232 260.489L423.224 260.475L417.152 263.959ZM416.27 256.994L409.525 255.12L409.522 255.13L416.27 256.994ZM436.488 249.503L436.482 242.503L436.413 242.503L436.344 242.504L436.488 249.503ZM479.863 254.049L478.426 260.9L487.042 262.708L486.862 253.906L479.863 254.049ZM471.762 202.923L478.286 200.387L476.027 194.575L469.993 196.15L471.762 202.923ZM409.652 229.293L406.056 223.287L406.054 223.288L409.652 229.293ZM399.457 215.564L394.608 210.516L394.469 210.65L394.337 210.791L399.457 215.564ZM464.77 184.996L466.333 191.819L474.784 189.882L471.11 182.029L464.77 184.996ZM462.652 127.548L455.85 125.895L455.85 125.897L462.652 127.548ZM235.887 205.021L235.575 198.028L235.544 198.03L235.514 198.031L235.887 205.021ZM248.652 212.535L242.942 216.584L242.943 216.585L248.652 212.535ZM267.754 234.801L263.066 240L267.565 244.056L272.226 240.186L267.754 234.801ZM288.746 210.037L283.271 205.676L283.203 205.761L283.138 205.847L288.746 210.037ZM296.715 205.106L295.602 198.195L295.602 198.195L296.715 205.106ZM306.277 213.23L313.259 213.731L313.26 213.723L306.277 213.23ZM284.738 245.371L279.6 240.618L271.441 249.437L283.137 252.186L284.738 245.371ZM306.059 252.521L312.899 251.035L312.379 248.644L310.484 247.098L306.059 252.521ZM267.832 258.229L270.938 251.956L267.674 250.34L264.478 252.085L267.832 258.229ZM266.121 259.119L263.018 252.845L263.011 252.848L263.005 252.851L266.121 259.119ZM229.238 259.584L222.415 261.149L222.416 261.151L229.238 259.584ZM250.793 245.191L252.706 251.925L263.876 248.752L255.854 240.356L250.793 245.191ZM229.457 211.996L222.48 211.434L222.479 211.439L229.457 211.996ZM235.355 205.05L234.983 198.06L233.045 198.163L231.437 199.249L235.355 205.05ZM363.379 149.993L362.258 143.083L362.258 143.083L363.379 149.993ZM392.879 171.301L399.791 170.193V170.193L392.879 171.301ZM371.527 200.767L372.624 207.68L372.625 207.68L371.527 200.767ZM342.113 179.445L349.025 178.339L349.025 178.335L342.113 179.445ZM163.965 149.999L162.852 143.088L162.851 143.088L163.965 149.999ZM193.418 171.237L200.327 170.111V170.111L193.418 171.237ZM172.246 200.734L173.386 207.641L173.387 207.641L172.246 200.734ZM142.691 179.512L149.6 178.385V178.385L142.691 179.512ZM394.98 27.2617L398.51 33.3068C428.605 15.7356 447.886 11.9867 459.727 14.8871C470.605 17.5519 477.337 26.5313 480.564 41.8594C483.801 57.2385 483.013 77.2631 480.038 98.2144C477.083 119.032 472.061 140.169 467.237 157.502L473.98 159.379L480.724 161.256C485.646 143.569 490.83 121.802 493.899 100.182C496.95 78.6963 498.005 56.7502 494.264 38.9757C490.512 21.1502 481.444 5.79316 463.058 1.28919C445.634 -2.97913 422.188 3.27077 391.451 21.2166L394.98 27.2617ZM473.98 159.379L467.64 162.345C471.102 169.744 474.508 177.171 477.852 184.624L484.238 181.759L490.625 178.894C487.25 171.37 483.812 163.876 480.321 156.413L473.98 159.379ZM484.238 181.759L484.418 188.756C490.97 188.588 498.009 188.249 504.875 188.701C511.795 189.158 517.562 190.382 521.636 192.756L525.16 186.708L528.684 180.66C521.798 176.647 513.431 175.235 505.795 174.732C498.104 174.225 490.163 174.604 484.059 174.761L484.238 181.759ZM525.16 186.708L520.8 192.184C521.31 192.59 521.357 192.861 521.373 192.951C521.403 193.128 521.396 193.493 521.147 193.98C520.623 195.003 519.532 195.692 518.182 195.525L517.324 202.473L516.467 209.42C524.241 210.38 530.685 206.066 533.607 200.364C536.616 194.491 536.124 186.489 529.52 181.232L525.16 186.708ZM517.324 202.473L518.182 195.525C509.794 194.49 499.903 193.16 490.866 193.256L490.941 200.256L491.016 207.255C498.901 207.171 507.714 208.34 516.467 209.42L517.324 202.473ZM490.941 200.256L484.306 202.485C490.052 219.586 492.229 241.38 491.287 259.691L498.277 260.051L505.268 260.41C506.279 240.764 504.003 217.15 497.577 198.026L490.941 200.256ZM498.277 260.051L495.287 266.38L496.958 267.17L499.949 260.841L502.94 254.512L501.268 253.722L498.277 260.051ZM499.949 260.841L496.951 267.166C500.083 268.651 508.107 271.877 513.293 276.139C516.043 278.399 516.207 279.551 516.198 279.409C516.137 278.443 517.059 279.508 512.783 282.061L516.371 288.071L519.96 294.082C525.972 290.492 530.606 285.375 530.17 278.52C529.786 272.487 525.488 268.04 522.181 265.323C515.253 259.629 504.777 255.383 502.948 254.516L499.949 260.841ZM516.371 288.071L512.784 282.06C513.784 281.463 514.58 281.473 514.622 281.473C514.698 281.473 514.503 281.478 513.957 281.336C512.856 281.05 511.297 280.432 509.383 279.505C505.532 277.641 501.705 275.271 499.062 273.761L495.59 279.839L492.117 285.917C494.178 287.094 498.859 289.964 503.281 292.106C505.504 293.182 508.023 294.259 510.437 294.886C511.648 295.201 513.07 295.466 514.557 295.473C516.012 295.48 518.016 295.241 519.958 294.082L516.371 288.071ZM495.59 279.839L488.71 278.545C484.423 301.344 470.153 320.242 453.117 337.656L458.121 342.551L463.125 347.446C480.714 329.467 497.398 308.097 502.469 281.133L495.59 279.839ZM458.121 342.551L453.172 337.601C413.887 376.879 353.062 397.783 289.744 401.503C226.46 405.222 161.891 391.692 115.746 363.509L112.098 369.482L108.449 375.456C157.539 405.438 225.091 419.326 290.565 415.479C356.004 411.634 420.574 389.989 463.07 347.501L458.121 342.551ZM112.098 369.482L115.746 363.508C83.4594 343.79 55.3691 314.28 46.651 278.283L39.8477 279.931L33.0443 281.578C42.9515 322.485 74.3612 354.638 108.449 375.456L112.098 369.482ZM39.8477 279.931L36.3825 273.849L29.2965 277.886L32.7617 283.968L36.2269 290.05L43.3129 286.013L39.8477 279.931ZM32.7617 283.968L29.342 277.86C28.0849 278.564 24.4713 279.934 21.1122 280.357C19.4292 280.569 18.4757 280.452 18.1463 280.354C18.0639 280.33 19.0067 280.689 19.3673 281.804L12.707 283.958L6.04676 286.112C7.47389 290.525 10.9412 292.822 14.1745 293.779C17.1607 294.662 20.3142 294.568 22.8626 294.247C27.9663 293.604 33.3136 291.681 36.1814 290.076L32.7617 283.968ZM12.707 283.958L19.3659 281.799C19.1032 280.989 19.1456 280.314 19.7421 279.285C20.4739 278.022 21.9512 276.479 24.3277 274.771C29.1313 271.318 35.3742 268.694 39.9852 266.592L37.082 260.223L34.1788 253.853C30.2429 255.647 22.3687 258.938 16.1567 263.403C13.0253 265.654 9.77024 268.57 7.62903 272.265C5.35243 276.194 4.38115 280.974 6.0482 286.117L12.707 283.958ZM37.082 260.223L44.0807 260.085C43.6821 239.756 45.0551 221.306 51.3989 202.595L44.7695 200.348L38.1402 198.1C31.0621 218.977 29.6694 239.246 30.0834 260.36L37.082 260.223ZM44.7695 200.348L44.899 193.349C34.1548 193.15 26.701 194.648 17.489 195.535L18.1602 202.503L18.8313 209.471C29.5252 208.441 34.947 207.167 44.64 207.346L44.7695 200.348ZM18.1602 202.503L17.5131 195.533C17.4352 195.54 17.1896 195.551 16.8183 195.521C16.4589 195.493 16.0921 195.435 15.7722 195.357C15.6165 195.319 15.492 195.281 15.3995 195.248C15.3053 195.215 15.266 195.194 15.2724 195.198C15.2768 195.2 15.3601 195.242 15.4927 195.343C15.6253 195.444 15.8408 195.629 16.0742 195.923L10.5977 200.282L5.12106 204.642C7.32813 207.414 10.565 208.496 12.4465 208.956C14.5852 209.479 16.8917 209.651 18.8072 209.473L18.1602 202.503ZM10.5977 200.282L16.0729 195.921C14.3526 193.761 14.0449 192.608 14.0044 192.335C13.9924 192.253 14.0178 192.356 13.961 192.556C13.9055 192.751 13.8269 192.843 13.8477 192.818C13.9614 192.68 14.5374 192.132 16.1432 191.473C17.6817 190.84 19.7229 190.286 22.2063 189.84C32.3922 188.014 45.9113 188.667 50.8843 188.829L51.1133 181.833L51.3422 174.837C46.9325 174.692 31.7055 173.914 19.7351 176.06C16.6795 176.608 13.5934 177.384 10.8222 178.523C8.11814 179.634 5.20173 181.297 3.04582 183.912C0.69046 186.769 -0.434332 190.393 0.154739 194.381C0.696115 198.046 2.59853 201.475 5.12237 204.644L10.5977 200.282ZM51.1133 181.833L57.4598 184.786L67.9441 162.256L61.5977 159.303L55.2512 156.349L44.7668 178.88L51.1133 181.833ZM61.5977 159.303L68.2838 157.23C67.9258 156.075 67.5862 154.95 67.2735 153.838L60.5352 155.734L53.7968 157.63C54.156 158.907 54.5351 160.161 54.9116 161.375L61.5977 159.303ZM60.5352 155.734L67.2681 153.819C62.3311 136.464 56.4292 112.238 53.9661 88.3057C51.4699 64.051 52.6725 41.503 60.643 26.54L54.4648 23.249L48.2867 19.958C38.2416 38.8157 37.491 64.9742 40.0397 89.739C42.6216 114.826 48.7626 139.933 53.8023 157.65L60.5352 155.734ZM54.4648 23.249L60.6445 26.5371C64.3152 19.6385 69.4362 16.5488 77.9245 14.2961L76.1289 7.53027L74.3334 0.764478C63.6029 3.61219 54.4114 8.44721 48.2852 19.9609L54.4648 23.249ZM76.1289 7.53027L76.8023 14.4978C89.7507 13.2463 102.989 16.5995 116.211 22.4191C129.449 28.2457 142.15 36.3015 154.056 43.9947L157.855 38.1152L161.654 32.2358C149.818 24.588 136.246 15.9412 121.851 9.60539C107.44 3.26268 91.6867 -1.00607 75.4555 0.562743L76.1289 7.53027ZM157.855 38.1152L154.058 43.9955C157.869 46.4571 161.526 49.1497 165.543 52.0198C169.475 54.8297 173.671 57.7487 178.179 60.3172L181.645 54.2354L185.11 48.1535C181.266 45.963 177.56 43.4003 173.682 40.629C169.888 37.918 165.826 34.93 161.653 32.235L157.855 38.1152ZM181.645 54.2354L183.452 60.998C189.212 59.4585 195.266 57.3202 201.13 55.2964C207.104 53.2343 212.998 51.2477 218.896 49.7815L217.207 42.9883L215.518 36.195C208.948 37.8283 202.521 40.0057 196.562 42.0625C190.492 44.1577 184.999 46.0932 179.837 47.4727L181.645 54.2354ZM217.207 42.9883L218.896 49.7816C245.243 43.2326 266.128 41.9161 286.354 44.1906C306.714 46.48 326.706 52.4341 351.433 60.8638L353.691 54.2383L355.95 47.6127C331.099 39.1404 309.888 32.7487 287.919 30.2783C265.817 27.7929 243.249 29.3024 215.518 36.195L217.207 42.9883ZM353.691 54.2383L356.721 60.5486C359.561 59.1853 363.092 56.8511 366.161 54.7284C367.756 53.6253 369.337 52.5002 370.772 51.4754C372.228 50.436 373.503 49.5222 374.564 48.7845L370.566 43.0381L366.569 37.2917C365.419 38.092 364.048 39.0738 362.638 40.0811C361.206 41.103 359.698 42.1757 358.196 43.2148C355.072 45.3763 352.377 47.1043 350.661 47.928L353.691 54.2383ZM370.566 43.0381L374.6 48.7593C382.367 43.2836 390.357 38.1225 398.541 33.2888L394.98 27.2617L391.42 21.2346C382.916 26.2579 374.61 31.623 366.533 37.3169L370.566 43.0381ZM469.371 47.0078L476.312 46.1006C475.115 36.9412 472.078 29.7697 466.822 25.0011C461.479 20.1539 454.88 18.7218 448.568 18.9473C436.56 19.3764 422.962 25.952 413.074 30.9462L416.23 37.1943L419.386 43.4425C429.835 38.1648 440.663 33.2388 449.068 32.9384C452.964 32.7992 455.569 33.6954 457.415 35.3698C459.347 37.1228 461.483 40.6661 462.43 47.915L469.371 47.0078ZM416.23 37.1943L413.059 30.9542C404.774 35.1652 396.73 39.8308 388.967 44.9278L392.809 50.7793L396.651 56.6308C403.981 51.8177 411.578 47.4116 419.402 43.4345L416.23 37.1943ZM392.809 50.7793L388.975 44.9223C383.713 48.3665 379.184 51.8821 375.266 54.829C371.241 57.8572 367.909 60.247 364.56 61.9918C358.495 65.1521 351.933 66.4716 340.817 62.8427L338.645 69.4971L336.472 76.1514C350.95 80.8779 361.43 79.4094 371.03 74.4073C375.513 72.0709 379.669 69.0361 383.682 66.0171C387.804 62.9168 391.865 59.7629 396.642 56.6363L392.809 50.7793ZM338.645 69.4971L340.869 62.8598C336.489 61.3923 332.134 59.8513 327.81 58.2383L325.363 64.7969L322.917 71.3554C327.39 73.0239 331.893 74.6173 336.42 76.1343L338.645 69.4971ZM325.363 64.7969L318.364 64.7058C318.33 67.3021 318.473 71.0897 318.589 75.0201C318.708 79.0727 318.81 83.5228 318.73 87.8338C318.648 92.1847 318.383 96.1556 317.832 99.2927C317.21 102.831 316.456 103.844 316.521 103.778L321.512 108.687L326.503 113.595C329.684 110.359 330.955 105.502 331.62 101.716C332.356 97.5297 332.641 92.7247 332.727 88.0956C332.815 83.4268 332.703 78.6932 332.582 74.607C332.458 70.3985 332.334 67.0922 332.363 64.888L325.363 64.7969ZM321.512 108.687L316.525 103.774C316.466 103.834 316.396 103.882 316.29 103.922C316.177 103.965 315.997 104.005 315.748 103.996L315.504 110.992L315.26 117.988C319.254 118.127 323.391 116.754 326.499 113.599L321.512 108.687ZM315.504 110.992L315.751 103.997C315.235 103.978 314.986 103.832 314.739 103.545L309.434 108.111L304.128 112.678C307.021 116.039 310.992 117.837 315.257 117.988L315.504 110.992ZM309.434 108.111L314.736 103.542C314.987 103.832 314.774 103.712 314.425 102.561C314.112 101.527 313.815 100.091 313.566 98.2464C313.069 94.5597 312.847 89.9107 312.79 84.9289C312.732 79.9833 312.837 74.9064 312.952 70.4013C313.064 66.0083 313.193 61.9424 313.16 59.3555L306.16 59.4463L299.161 59.5371C299.19 61.7697 299.075 65.4024 298.956 70.0447C298.841 74.575 298.73 79.8703 298.791 85.0916C298.851 90.2768 299.082 95.5896 299.692 100.117C299.997 102.379 300.418 104.614 301.027 106.621C301.599 108.51 302.511 110.802 304.131 112.681L309.434 108.111ZM306.16 59.4463L307.733 52.6253C296.111 49.9454 289.64 48.8282 277.516 48.3874L277.262 55.3828L277.007 62.3782C288.009 62.7781 293.568 63.7264 304.587 66.2673L306.16 59.4463ZM277.262 55.3828L270.262 55.3869L270.293 108.999L277.293 108.995L284.293 108.991L284.262 55.3787L277.262 55.3828ZM277.293 108.995L270.293 109.013C270.317 118.695 270.661 127.524 269.992 136.491L276.973 137.012L283.953 137.532C284.675 127.85 284.316 118.003 284.293 108.978L277.293 108.995ZM276.973 137.012L269.992 136.487C269.906 137.63 269.518 138.044 269.31 138.222C269.008 138.48 268.48 138.712 267.787 138.711C267.093 138.711 266.551 138.476 266.24 138.212C266.024 138.029 265.665 137.639 265.586 136.59L258.605 137.115L251.625 137.641C253.128 157.607 282.423 157.897 283.953 137.536L276.973 137.012ZM258.605 137.115L265.585 136.585C264.894 127.484 265.198 118.33 265.23 108.549L258.23 108.526L251.23 108.503C251.2 117.724 250.879 127.814 251.626 137.645L258.605 137.115ZM258.23 108.526L265.23 108.541L265.34 55.3621L258.34 55.3477L251.34 55.3333L251.23 108.512L258.23 108.526ZM258.34 55.3477L257.997 48.356C246.079 48.9402 239.249 49.9429 227.662 52.6347L229.246 59.4531L230.83 66.2716C241.649 63.7583 247.648 62.8802 258.683 62.3393L258.34 55.3477ZM229.246 59.4531L222.246 59.5098C222.302 66.4122 223.801 80.8002 222.67 93.0238C222.401 95.9398 221.993 98.4591 221.444 100.478C220.874 102.576 220.273 103.673 219.904 104.133C219.685 104.405 219.922 104.057 220.43 104.034C220.613 104.025 219.849 104.115 217.819 102.772L213.957 108.61L210.095 114.449C213.401 116.635 217.119 118.198 221.062 118.019C225.329 117.826 228.6 115.665 230.823 112.895C232.895 110.313 234.141 107.139 234.954 104.15C235.788 101.083 236.298 97.7006 236.611 94.3132C237.812 81.3237 236.284 64.0739 236.246 59.3965L229.246 59.4531ZM213.957 108.61L217.818 102.772C218.962 103.528 219.04 104.302 218.717 103.462C218.477 102.835 218.191 101.76 217.931 100.152C217.415 96.964 217.157 92.7183 217.067 88.0607C216.978 83.4561 217.057 78.6958 217.154 74.5492C217.248 70.5451 217.369 66.8312 217.339 64.74L210.34 64.8398L203.341 64.9397C203.365 66.6794 203.259 69.8848 203.158 74.2215C203.059 78.4158 202.975 83.4179 203.07 88.3307C203.163 93.1905 203.436 98.217 204.111 102.389C204.446 104.462 204.922 106.589 205.647 108.478C206.29 110.154 207.538 112.758 210.096 114.449L213.957 108.61ZM210.34 64.8398L208.003 58.2414C199.516 61.2467 193.591 63.2537 188.885 64.3665C184.293 65.4523 181.361 65.5565 178.835 65.0778C176.252 64.5884 173.445 63.3691 169.259 60.7267C164.99 58.031 159.93 54.286 152.627 49.0395L148.543 54.7246L144.459 60.4097C151.448 65.4308 157.05 69.5748 161.785 72.5645C166.604 75.6074 171.144 77.8697 176.228 78.833C181.368 79.8071 186.42 79.3352 192.106 77.9908C197.678 76.6735 204.324 74.3963 212.677 71.4383L210.34 64.8398ZM148.543 54.7246L152.627 49.0397C144.047 42.875 131.246 34.8582 117.871 28.6817C104.834 22.6612 89.8978 17.737 77.5939 19.322L78.4883 26.2646L79.3826 33.2073C87.4693 32.1655 99.2596 35.5076 112.002 41.3919C124.406 47.1201 136.438 54.6467 144.459 60.4095L148.543 54.7246ZM78.4883 26.2646L74.9886 20.2023C71.1944 22.3926 67.9854 25.0247 65.4748 28.4627C62.9683 31.8952 61.4196 35.7724 60.448 40.0916L67.2773 41.6279L74.1067 43.1642C74.7679 40.2251 75.6685 38.2427 76.7811 36.7191C77.8896 35.2011 79.4697 33.7807 81.9879 32.327L78.4883 26.2646ZM67.2773 41.6279L60.4468 40.0971C53.5234 70.9901 60.6118 106.746 67.7092 135.406L74.5039 133.724L81.2987 132.041C74.1774 103.284 67.9847 70.4809 74.1079 43.1587L67.2773 41.6279ZM74.5039 133.724L67.7097 135.409C69.4614 142.471 70.7528 147.127 71.6655 151.155C72.5444 155.034 72.8627 157.501 72.7751 159.703C72.5975 164.163 70.7792 168.756 64.381 181.824L70.668 184.902L76.9549 187.98C82.9786 175.677 86.4455 168.258 86.764 160.26C86.9244 156.232 86.2935 152.36 85.3193 148.061C84.379 143.911 82.9136 138.553 81.2981 132.039L74.5039 133.724ZM70.668 184.902L68.8259 191.656C85.3866 196.173 100.96 201.638 115.824 209.77L119.184 203.629L122.543 197.488C106.376 188.643 89.6681 182.829 72.5101 178.149L70.668 184.902ZM119.184 203.629L115.827 209.771C120.117 212.116 125.498 214.706 128.992 217.946C130.694 219.524 131.021 220.454 131.059 220.668C131.062 220.686 131.077 220.708 131.028 220.849C130.961 221.039 130.724 221.561 129.954 222.385L135.066 227.166L140.179 231.947C143.863 228.009 145.746 223.284 144.842 218.21C144.023 213.618 141.133 210.111 138.511 207.68C133.361 202.905 125.68 199.202 122.541 197.486L119.184 203.629ZM135.066 227.166L129.954 222.385C129.945 222.395 129.964 222.373 130.011 222.343C130.057 222.314 130.093 222.3 130.101 222.298C130.109 222.295 129.91 222.361 129.385 222.324C128.217 222.24 126.424 221.724 123.966 220.585C121.587 219.483 119.074 218.033 116.508 216.493C114.102 215.049 111.402 213.367 109.194 212.212L105.949 218.414L102.704 224.616C104.43 225.519 106.524 226.828 109.302 228.496C111.918 230.066 114.975 231.849 118.08 233.288C121.107 234.69 124.713 236.025 128.383 236.288C132.276 236.567 136.728 235.637 140.179 231.948L135.066 227.166ZM105.949 218.414L109.155 212.191C95.1998 205.001 80.3914 199.61 65.0796 196.146L63.5352 202.974L61.9907 209.801C76.1476 213.004 89.8394 217.988 102.743 224.637L105.949 218.414ZM63.5352 202.974L56.807 201.042C51.4815 219.588 48.4954 233.96 48.6917 254.202L55.6914 254.134L62.6911 254.066C62.5125 235.654 65.1514 222.708 70.2633 204.906L63.5352 202.974ZM55.6914 254.134L57.1538 260.979C69.6386 258.312 81.8647 256.381 94.089 256.41L94.1055 249.41L94.1219 242.41C80.4557 242.378 67.1192 244.535 54.229 247.288L55.6914 254.134ZM94.1055 249.41L93.9139 256.408C95.9426 256.463 98.8846 256.379 101.022 256.379C103.467 256.379 105.736 256.465 107.727 256.775C112.005 257.442 112.533 258.63 112.726 259.409L119.52 257.722L126.313 256.035C123.999 246.713 115.73 243.853 109.882 242.942C106.811 242.464 103.685 242.379 101.023 242.379C98.0549 242.379 96.1785 242.464 94.297 242.413L94.1055 249.41ZM119.52 257.722L112.727 259.412C112.676 259.207 112.682 259.105 112.682 259.136C112.681 259.163 112.675 259.267 112.635 259.444C112.552 259.815 112.372 260.282 112.106 260.722C111.833 261.174 111.596 261.391 111.537 261.436C111.477 261.482 111.86 261.166 112.66 261.141L112.879 268.138L113.098 275.134C118.663 274.96 122.335 270.865 124.089 267.961C125.921 264.928 127.403 260.417 126.312 256.032L119.52 257.722ZM112.879 268.138L112.661 261.141C94.9531 261.692 74.6654 260.844 55.5776 266.816L57.668 273.497L59.7583 280.178C76.4673 274.949 93.8985 275.732 113.097 275.134L112.879 268.138ZM57.668 273.497L50.8471 275.07C58.9706 310.289 86.5531 339.833 116.186 357.547L119.777 351.539L123.369 345.531C95.8298 329.068 71.4904 302.278 64.4889 271.924L57.668 273.497ZM119.777 351.539L116.186 357.548C182.223 397.019 264.886 405.671 338.643 389.24L337.121 382.407L335.599 375.575C264.762 391.355 185.863 382.884 123.369 345.531L119.777 351.539ZM337.121 382.407L338.643 389.24C366.457 383.043 399.751 370.551 427.631 351.763C455.426 333.031 478.743 307.401 484.65 274.687L477.762 273.443L470.873 272.199C465.913 299.665 446.046 322.471 419.807 340.153C393.651 357.78 362.058 369.68 335.599 375.575L337.121 382.407ZM477.762 273.443L479.607 266.691C467.335 263.337 454.67 261.59 441.947 261.494L441.895 268.494L441.842 275.494C453.354 275.581 464.814 277.162 475.916 280.196L477.762 273.443ZM441.895 268.494L441.975 261.495C439.936 261.471 435.603 261.575 432.033 261.598C430.136 261.609 428.342 261.601 426.866 261.553C426.128 261.528 425.519 261.496 425.046 261.456C424.524 261.413 424.355 261.377 424.413 261.389L422.926 268.229L421.439 275.07C422.917 275.391 424.839 275.494 426.407 275.545C428.155 275.602 430.161 275.609 432.119 275.597C436.261 275.572 439.86 275.471 441.814 275.494L441.895 268.494ZM422.926 268.229L424.452 261.398C423.938 261.283 423.496 260.954 423.24 260.503L417.152 263.959L411.065 267.415C413.278 271.312 417.038 274.087 421.399 275.061L422.926 268.229ZM417.152 263.959L423.224 260.475C422.94 259.98 422.868 259.397 423.017 258.858L416.27 256.994L409.522 255.13C408.375 259.285 408.943 263.717 411.081 267.443L417.152 263.959ZM416.27 256.994L423.014 258.868C423.204 258.185 423.466 257.49 426.037 256.968C429.095 256.346 432.304 256.591 436.633 256.501L436.488 249.503L436.344 242.504C433.673 242.56 427.956 242.291 423.247 243.248C418.05 244.305 411.702 247.284 409.525 255.12L416.27 256.994ZM436.488 249.503L436.494 256.503C452.779 256.489 462.342 257.525 478.426 260.9L479.863 254.049L481.301 247.198C464.307 243.632 453.776 242.488 436.482 242.503L436.488 249.503ZM479.863 254.049L486.862 253.906C486.522 237.288 484.753 217.027 478.286 200.387L471.762 202.923L465.237 205.459C470.785 219.735 472.533 237.975 472.865 254.192L479.863 254.049ZM471.762 202.923L469.993 196.15C445.524 202.538 427.374 210.524 406.056 223.287L409.652 229.293L413.248 235.299C433.54 223.149 450.468 215.717 473.53 209.696L471.762 202.923ZM409.652 229.293L406.054 223.288C406.709 222.896 407.116 223.133 406.748 223.013C406.35 222.883 405.7 222.499 405.132 221.841C404.563 221.182 404.432 220.668 404.419 220.524C404.415 220.482 404.422 220.509 404.406 220.557C404.388 220.609 404.396 220.532 404.577 220.338L399.457 215.564L394.337 210.791C391.335 214.011 390.122 217.946 390.478 221.81C390.816 225.465 392.499 228.63 394.532 230.986C396.566 233.344 399.304 235.311 402.406 236.323C405.536 237.344 409.553 237.513 413.25 235.298L409.652 229.293ZM399.457 215.564L404.306 220.613C410.74 214.432 421.234 208.321 432.988 203.121C444.624 197.973 456.874 193.987 466.333 191.819L464.77 184.996L463.206 178.173C452.829 180.551 439.731 184.829 427.324 190.318C415.036 195.755 402.791 202.655 394.608 210.516L399.457 215.564ZM464.77 184.996L471.11 182.029C464.292 167.459 462.721 162.122 462.893 157.061C462.984 154.411 463.571 151.523 464.755 147.032C465.894 142.705 467.601 136.838 469.455 129.199L462.652 127.548L455.85 125.897C454.028 133.401 452.476 138.684 451.216 143.466C450 148.082 449.049 152.26 448.902 156.585C448.599 165.472 451.763 173.716 458.429 187.963L464.77 184.996ZM462.652 127.548L469.454 129.201C475.615 103.852 480.39 72.7946 476.291 45.9511L469.371 47.0078L462.451 48.0645C466.133 72.1751 461.878 101.094 455.85 125.895L462.652 127.548ZM235.887 205.021L236.199 212.015C238.567 211.909 239.224 212.327 239.518 212.524C240.185 212.972 241.016 213.867 242.942 216.584L248.652 212.535L254.362 208.486C252.594 205.992 250.42 202.98 247.318 200.898C243.842 198.566 239.964 197.833 235.575 198.028L235.887 205.021ZM248.652 212.535L242.943 216.585C249.177 225.373 254.638 232.4 263.066 240L267.754 234.801L272.441 229.602C265.12 223 260.346 216.92 254.362 208.485L248.652 212.535ZM267.754 234.801L272.226 240.186C281.955 232.106 287.878 222.895 294.354 214.227L288.746 210.037L283.138 205.847C275.974 215.437 271.365 222.703 263.282 229.416L267.754 234.801ZM288.746 210.037L294.221 214.398C295.207 213.16 295.716 212.754 296.006 212.571C296.225 212.432 296.647 212.208 297.827 212.017L296.715 205.106L295.602 198.195C293.119 198.595 290.763 199.321 288.518 200.742C286.342 202.119 284.699 203.883 283.271 205.676L288.746 210.037ZM296.715 205.106L297.827 212.017C297.622 212.051 297.644 211.994 297.912 212.083C298.173 212.169 298.503 212.343 298.812 212.597C299.124 212.855 299.28 213.084 299.332 213.183C299.376 213.268 299.269 213.105 299.295 212.738L306.277 213.23L313.26 213.723C313.631 208.462 310.692 204.251 307.725 201.801C304.749 199.345 300.311 197.437 295.602 198.195L296.715 205.106ZM306.277 213.23L299.295 212.73C299.057 216.053 296.669 220.706 292.377 226.259C288.245 231.606 283.417 236.491 279.6 240.618L284.738 245.371L289.877 250.124C293.279 246.447 298.821 240.815 303.455 234.82C307.929 229.03 312.701 221.515 313.259 213.731L306.277 213.23ZM284.738 245.371L283.137 252.186C285.277 252.688 287.371 253.085 289.212 253.444C291.112 253.815 292.762 254.147 294.314 254.552C297.354 255.345 299.651 256.327 301.633 257.945L306.059 252.521L310.484 247.098C306.373 243.743 301.966 242.08 297.848 241.006C295.821 240.477 293.778 240.071 291.89 239.703C289.944 239.324 288.157 238.984 286.339 238.557L284.738 245.371ZM306.059 252.521L299.218 254.008C299.76 256.503 299.68 257.939 299.531 258.641C299.462 258.968 299.384 259.109 299.366 259.14C299.351 259.165 299.349 259.166 299.337 259.176C299.12 259.355 297.656 260.08 293.575 259.604C285.89 258.706 275.906 254.416 270.938 251.956L267.832 258.229L264.726 264.503C269.883 267.056 281.707 272.313 291.952 273.509C296.835 274.079 303.367 273.988 308.23 269.988C313.744 265.453 314.484 258.328 312.899 251.035L306.059 252.521ZM267.832 258.229L264.478 252.085C263.998 252.347 263.511 252.601 263.018 252.845L266.121 259.119L269.225 265.394C269.887 265.066 270.541 264.726 271.186 264.374L267.832 258.229ZM266.121 259.119L263.005 252.851C259.088 254.798 251.406 258.174 244.608 259.41C241.14 260.041 238.744 259.949 237.385 259.515C236.579 259.257 236.295 259.039 236.061 258.017L229.238 259.584L222.416 261.151C223.841 267.358 227.976 271.204 233.12 272.849C237.712 274.318 242.796 273.969 247.113 273.184C255.883 271.589 264.982 267.503 269.237 265.387L266.121 259.119ZM229.238 259.584L236.061 258.019C235.883 257.242 235.925 256.863 235.941 256.766C235.952 256.701 235.955 256.711 235.961 256.702C236.053 256.574 236.589 256.001 238.394 255.308C240.137 254.637 242.317 254.129 244.917 253.611C247.253 253.145 250.28 252.614 252.706 251.925L250.793 245.191L248.88 238.458C247.169 238.944 245.09 239.301 242.18 239.881C239.532 240.409 236.325 241.104 233.37 242.24C230.476 243.352 227.003 245.188 224.605 248.515C221.979 252.157 221.361 256.554 222.415 261.149L229.238 259.584ZM250.793 245.191L255.854 240.356C252.34 236.677 247.161 231.545 242.85 225.906C240.713 223.111 238.968 220.414 237.824 217.954C236.652 215.436 236.346 213.668 236.435 212.553L229.457 211.996L222.479 211.439C222.123 215.901 223.427 220.199 225.13 223.859C226.86 227.579 229.254 231.173 231.728 234.41C236.64 240.834 242.574 246.722 245.732 250.027L250.793 245.191ZM229.457 211.996L236.434 212.559C236.396 213.029 236.249 213.302 236.232 213.332C236.226 213.343 236.309 213.2 236.591 212.916C237.203 212.297 238.091 211.649 239.274 210.85L235.355 205.05L231.437 199.249C230.269 200.039 228.328 201.362 226.64 203.068C225.014 204.711 222.795 207.525 222.48 211.434L229.457 211.996ZM235.355 205.05L235.728 212.04L236.259 212.012L235.887 205.021L235.514 198.031L234.983 198.06L235.355 205.05ZM363.379 149.993L364.499 156.903C374.71 155.247 384.33 162.194 385.967 172.409L392.879 171.301L399.791 170.193C396.928 152.333 380.11 140.189 362.258 143.083L363.379 149.993ZM392.879 171.301L385.967 172.409C387.605 182.627 380.644 192.231 370.43 193.853L371.527 200.767L372.625 207.68C390.488 204.844 402.653 188.049 399.791 170.193L392.879 171.301ZM371.527 200.767L370.43 193.853C360.235 195.471 350.657 188.527 349.025 178.339L342.113 179.445L335.201 180.552C338.054 198.372 354.804 210.508 372.624 207.68L371.527 200.767ZM342.113 179.445L349.025 178.335C347.388 168.145 354.312 158.555 364.5 156.903L363.379 149.993L362.258 143.083C344.447 145.972 332.339 162.739 335.202 180.556L342.113 179.445ZM163.965 149.999L165.077 156.91C175.266 155.27 184.849 162.183 186.509 172.364L193.418 171.237L200.327 170.111C197.424 152.31 180.664 140.22 162.852 143.088L163.965 149.999ZM193.418 171.237L186.509 172.364C188.17 182.547 181.277 192.148 171.105 193.828L172.246 200.734L173.387 207.641C191.183 204.702 203.228 187.908 200.327 170.111L193.418 171.237ZM172.246 200.734L171.106 193.828C160.895 195.513 151.266 188.595 149.6 178.385L142.691 179.512L135.783 180.639C138.695 198.488 155.534 210.587 173.386 207.641L172.246 200.734ZM142.691 179.512L149.6 178.385C147.934 168.175 154.87 158.555 165.079 156.91L163.965 149.999L162.851 143.088C144.997 145.965 132.871 162.79 135.783 180.639L142.691 179.512Z" fill="black" mask="url(#path-1-outside-1_426_1588)"/>
</svg>
