<svg width="373" height="513" viewBox="0 0 373 513" fill="none" xmlns="http://www.w3.org/2000/svg">
<mask id="path-1-outside-1_425_1563" maskUnits="userSpaceOnUse" x="0" y="-0.999512" width="373" height="514" fill="black">
<rect fill="white" y="-0.999512" width="373" height="514"/>
<path d="M169.31 7.37158C219.522 4.49519 265.939 18.2273 304.24 51.5894C340.064 82.8645 362.021 127.081 365.291 174.535C368.545 222.161 352.633 269.113 321.097 304.94C288.289 342.239 244.823 362.693 195.497 365.787L195.524 425.553L227.316 425.472C232.791 425.449 240.98 424.928 245.918 425.927C257.169 428.279 255.838 442.767 244.508 443.755C228.539 445.149 211.558 444.386 195.516 444.292L195.533 498.215C194.25 501.89 191.76 505.495 187.503 505.735C174.104 506.489 177.184 488.472 177.21 479.207L177.263 444.317C163.467 444.198 149.624 444.58 135.821 444.443C130.551 444.391 125.527 444.069 121.288 440.58C116.143 436.347 119.955 426.811 126.076 426.071C132.125 425.391 138.424 425.662 144.514 425.657L177.251 425.559L177.281 365.769C145.43 364.202 114.581 354.119 87.9492 336.571C48.0477 310.386 20.228 269.368 10.6514 222.601C1.05414 175.83 10.5579 127.163 37.0439 87.4438C60.0671 52.8206 94.3837 27.258 134.142 15.1167C146.332 11.4048 156.904 9.82705 169.31 7.37158ZM346.757 175.154C340.39 86.5371 263.412 19.8665 174.83 26.2466C86.2642 32.6261 19.6329 109.615 25.998 198.216C32.3639 286.816 109.315 353.482 197.883 347.126C286.467 340.769 353.123 263.77 346.757 175.154Z"/>
</mask>
<path d="M169.31 7.37158C219.522 4.49519 265.939 18.2273 304.24 51.5894C340.064 82.8645 362.021 127.081 365.291 174.535C368.545 222.161 352.633 269.113 321.097 304.94C288.289 342.239 244.823 362.693 195.497 365.787L195.524 425.553L227.316 425.472C232.791 425.449 240.98 424.928 245.918 425.927C257.169 428.279 255.838 442.767 244.508 443.755C228.539 445.149 211.558 444.386 195.516 444.292L195.533 498.215C194.25 501.89 191.76 505.495 187.503 505.735C174.104 506.489 177.184 488.472 177.21 479.207L177.263 444.317C163.467 444.198 149.624 444.58 135.821 444.443C130.551 444.391 125.527 444.069 121.288 440.58C116.143 436.347 119.955 426.811 126.076 426.071C132.125 425.391 138.424 425.662 144.514 425.657L177.251 425.559L177.281 365.769C145.43 364.202 114.581 354.119 87.9492 336.571C48.0477 310.386 20.228 269.368 10.6514 222.601C1.05414 175.83 10.5579 127.163 37.0439 87.4438C60.0671 52.8206 94.3837 27.258 134.142 15.1167C146.332 11.4048 156.904 9.82705 169.31 7.37158ZM346.757 175.154C340.39 86.5371 263.412 19.8665 174.83 26.2466C86.2642 32.6261 19.6329 109.615 25.998 198.216C32.3639 286.816 109.315 353.482 197.883 347.126C286.467 340.769 353.123 263.77 346.757 175.154Z" fill="black"/>
<path d="M169.31 7.37158L168.909 0.383039L168.426 0.410744L167.95 0.504805L169.31 7.37158ZM304.24 51.5894L308.844 46.3161L308.838 46.311L304.24 51.5894ZM365.291 174.535L372.275 174.057L372.274 174.053L365.291 174.535ZM321.097 304.94L315.842 300.315L315.841 300.317L321.097 304.94ZM195.497 365.787L195.059 358.8L188.494 359.212L188.497 365.79L195.497 365.787ZM195.524 425.553L188.524 425.556L188.528 432.571L195.542 432.553L195.524 425.553ZM227.316 425.472L227.334 432.472L227.346 432.472L227.316 425.472ZM245.918 425.927L247.35 419.075L247.328 419.071L247.306 419.066L245.918 425.927ZM244.508 443.755L243.899 436.782H243.899L244.508 443.755ZM195.516 444.292L195.557 437.292L188.513 437.25L188.516 444.294L195.516 444.292ZM195.533 498.215L202.142 500.523L202.534 499.401L202.533 498.213L195.533 498.215ZM187.503 505.735L187.11 498.746L187.11 498.746L187.503 505.735ZM177.21 479.207L184.21 479.226V479.217L177.21 479.207ZM177.263 444.317L184.263 444.327L184.273 437.377L177.323 437.317L177.263 444.317ZM135.821 444.443L135.891 437.443H135.89L135.821 444.443ZM121.288 440.58L125.736 435.175L125.735 435.174L121.288 440.58ZM126.076 426.071L125.294 419.115L125.265 419.118L125.235 419.121L126.076 426.071ZM144.514 425.657L144.52 432.657H144.527L144.535 432.657L144.514 425.657ZM177.251 425.559L177.272 432.559L184.247 432.538L184.251 425.563L177.251 425.559ZM177.281 365.769L184.281 365.773L184.285 359.105L177.625 358.777L177.281 365.769ZM87.9492 336.571L91.8008 330.726L91.7897 330.718L87.9492 336.571ZM10.6514 222.601L17.5091 221.197L17.5085 221.194L10.6514 222.601ZM37.0439 87.4438L42.8678 91.3274L42.8729 91.3199L37.0439 87.4438ZM134.142 15.1167L132.103 8.42027L132.097 8.42191L134.142 15.1167ZM346.757 175.154L353.739 174.652V174.652L346.757 175.154ZM174.83 26.2466L174.327 19.2647L174.327 19.2647L174.83 26.2466ZM25.998 198.216L19.016 198.718L19.016 198.718L25.998 198.216ZM197.883 347.126L198.384 354.109H198.384L197.883 347.126ZM169.31 7.37158L169.71 14.3601C218.308 11.5763 262.871 24.8382 299.643 56.8677L304.24 51.5894L308.838 46.311C269.007 11.6164 220.737 -2.58588 168.909 0.383039L169.31 7.37158ZM304.24 51.5894L299.637 56.8626C334.064 86.9182 355.165 129.412 358.308 175.016L365.291 174.535L372.274 174.053C368.877 124.751 346.065 78.8108 308.844 46.3161L304.24 51.5894ZM365.291 174.535L358.307 175.012C361.434 220.775 346.144 265.89 315.842 300.315L321.097 304.94L326.351 309.565C359.121 272.336 375.656 223.547 372.275 174.057L365.291 174.535ZM321.097 304.94L315.841 300.317C284.313 336.161 242.608 355.818 195.059 358.8L195.497 365.787L195.935 372.773C247.038 369.567 292.266 348.317 326.353 309.563L321.097 304.94ZM195.497 365.787L188.497 365.79L188.524 425.556L195.524 425.553L202.524 425.55L202.497 365.783L195.497 365.787ZM195.524 425.553L195.542 432.553L227.334 432.472L227.316 425.472L227.299 418.472L195.507 418.553L195.524 425.553ZM227.316 425.472L227.346 432.472C228.794 432.466 230.409 432.427 231.996 432.391C233.614 432.355 235.24 432.32 236.836 432.316C240.157 432.308 242.817 432.442 244.53 432.788L245.918 425.927L247.306 419.066C244.081 418.414 240.178 418.308 236.801 418.316C235.048 418.321 233.292 418.358 231.68 418.395C230.038 418.432 228.576 418.467 227.287 418.472L227.316 425.472ZM245.918 425.927L244.486 432.779C245.805 433.055 246.281 433.558 246.441 433.77C246.634 434.027 246.74 434.362 246.706 434.761C246.672 435.165 246.494 435.582 246.154 435.92C245.853 436.22 245.212 436.667 243.899 436.782L244.508 443.755L245.116 450.729C254.126 449.943 260.021 443.423 260.656 435.944C261.302 428.327 256.387 420.965 247.35 419.075L245.918 425.927ZM244.508 443.755L243.899 436.782C228.362 438.138 211.988 437.389 195.557 437.292L195.516 444.292L195.474 451.291C211.128 451.384 228.715 452.16 245.117 450.729L244.508 443.755ZM195.516 444.292L188.516 444.294L188.533 498.218L195.533 498.215L202.533 498.213L202.516 444.289L195.516 444.292ZM195.533 498.215L188.925 495.907C188.484 497.17 187.965 498.012 187.547 498.454C187.363 498.649 187.25 498.711 187.225 498.724C187.217 498.728 187.199 498.741 187.11 498.746L187.503 505.735L187.896 512.724C196.619 512.233 200.621 504.878 202.142 500.523L195.533 498.215ZM187.503 505.735L187.11 498.746C186.208 498.797 185.768 498.673 185.619 498.618C185.501 498.575 185.451 498.538 185.382 498.463C185.138 498.199 184.589 497.312 184.232 495.109C183.89 492.995 183.84 490.432 183.92 487.561C183.989 485.093 184.203 481.563 184.21 479.226L177.21 479.207L170.21 479.187C170.204 481.482 170.023 483.679 169.926 487.172C169.84 490.261 169.853 493.893 170.412 497.347C170.957 500.713 172.149 504.767 175.095 507.959C178.335 511.469 182.818 513.01 187.896 512.724L187.503 505.735ZM177.21 479.207L184.21 479.217L184.263 444.327L177.263 444.317L170.263 444.306L170.21 479.196L177.21 479.207ZM177.263 444.317L177.323 437.317C170.352 437.257 163.378 437.324 156.48 437.387C149.561 437.451 142.715 437.511 135.891 437.443L135.821 444.443L135.752 451.443C142.73 451.512 149.707 451.45 156.609 451.387C163.532 451.323 170.378 451.258 177.202 451.317L177.263 444.317ZM135.821 444.443L135.89 437.443C130.585 437.391 127.894 436.95 125.736 435.175L121.288 440.58L116.84 445.984C123.161 451.187 130.516 451.391 135.752 451.443L135.821 444.443ZM121.288 440.58L125.735 435.174C125.858 435.275 125.901 435.426 125.894 435.389C125.873 435.272 125.858 434.907 126.048 434.373C126.238 433.844 126.536 433.418 126.804 433.167C127.06 432.927 127.117 432.996 126.917 433.02L126.076 426.071L125.235 419.121C118.747 419.907 114.527 425.014 112.866 429.658C111.169 434.404 111.238 441.376 116.841 445.985L121.288 440.58ZM126.076 426.071L126.858 433.027C132.393 432.405 138.001 432.662 144.52 432.657L144.514 425.657L144.508 418.657C138.847 418.662 131.857 418.377 125.294 419.115L126.076 426.071ZM144.514 425.657L144.535 432.657L177.272 432.559L177.251 425.559L177.23 418.559L144.493 418.657L144.514 425.657ZM177.251 425.559L184.251 425.563L184.281 365.773L177.281 365.769L170.281 365.766L170.251 425.556L177.251 425.559ZM177.281 365.769L177.625 358.777C147.025 357.272 117.387 347.585 91.8008 330.726L87.9492 336.571L84.0977 342.416C111.775 360.653 143.835 371.132 176.937 372.761L177.281 365.769ZM87.9492 336.571L91.7897 330.718C53.4463 305.556 26.7121 266.139 17.5091 221.197L10.6514 222.601L3.79367 224.005C13.744 272.597 42.6492 315.216 84.1087 342.423L87.9492 336.571ZM10.6514 222.601L17.5085 221.194C8.2869 176.254 17.4188 129.491 42.8678 91.3274L37.0439 87.4438L31.22 83.5603C3.69702 124.834 -6.17861 175.406 3.79424 224.008L10.6514 222.601ZM37.0439 87.4438L42.8729 91.3199C64.9991 58.0455 97.9783 33.4794 136.186 21.8115L134.142 15.1167L132.097 8.42191C90.7891 21.0365 55.1351 47.5956 31.215 83.5678L37.0439 87.4438ZM134.142 15.1167L136.181 21.8131C147.926 18.2367 157.905 16.7647 170.669 14.2384L169.31 7.37158L167.95 0.504805C155.903 2.88935 144.737 4.57296 132.103 8.42027L134.142 15.1167ZM346.757 175.154L353.739 174.652C347.095 82.1814 266.768 12.6066 174.327 19.2647L174.83 26.2466L175.333 33.2285C260.056 27.1263 333.685 90.8929 339.775 175.655L346.757 175.154ZM174.83 26.2466L174.327 19.2647C81.9033 25.9221 12.3741 106.264 19.016 198.718L25.998 198.216L32.9801 197.715C26.8918 112.967 90.625 39.3301 175.333 33.2285L174.83 26.2466ZM25.998 198.216L19.016 198.718C25.6587 291.171 105.958 360.741 198.384 354.109L197.883 347.126L197.382 340.144C112.672 346.224 39.069 282.461 32.98 197.715L25.998 198.216ZM197.883 347.126L198.384 354.109C290.827 347.474 360.382 267.122 353.739 174.652L346.757 175.154L339.775 175.655C345.864 260.418 282.107 334.064 197.382 340.144L197.883 347.126Z" fill="#050505" mask="url(#path-1-outside-1_425_1563)"/>
</svg>
