<svg width="494" height="435" viewBox="0 0 494 435" fill="none" xmlns="http://www.w3.org/2000/svg">
<mask id="path-1-outside-1_424_1481" maskUnits="userSpaceOnUse" x="0" y="-0.999023" width="494" height="436" fill="black">
<rect fill="white" y="-0.999023" width="494" height="436"/>
<path d="M244.999 170.129C247.151 170.07 249.367 170.155 251.521 170.228C265.266 170.665 278.851 173.305 291.759 178.047C322.256 189.306 364.217 220.743 386.307 244.248C412.314 272.728 429.386 303.031 428.006 342.173C425.371 416.845 362.119 443.981 298.119 417.741C290.267 414.521 283.369 410.2 275.829 406.633C267.612 402.74 258.686 400.566 249.599 400.241C238.365 400.129 227.566 402.011 217.394 406.988C211.204 410.016 205.364 413.59 199.036 416.383C185.22 422.478 170.075 426.556 154.947 427.221C132.962 428.188 109.989 423.261 93.3555 407.956C74.9425 391.014 66.9464 366.395 66.0459 341.883C64.701 305.278 81.7942 272.063 106.309 245.788C111.898 239.796 117.76 233.933 123.902 228.508C144.554 210.268 178.448 186.185 204.403 177.228C217.628 172.663 231.06 170.624 244.999 170.129ZM256.858 186.666C251.484 186.181 246.079 186.082 240.688 186.37C213.937 188.552 198.372 195.275 175.896 209.732C129.526 239.363 77.3984 284.906 82.207 345.516C83.755 364.361 90.0628 384.521 105.039 396.998C129.552 417.42 166.292 413.153 193.611 401.073C199.507 398.468 204.725 395.215 210.441 392.418C223.894 385.871 238.863 383.071 253.773 384.315C264.266 385.34 274.684 387.926 284.052 392.836C290.599 396.271 296.606 399.746 303.429 402.528C353.329 422.871 405.863 409.148 411.336 347.945C416.966 284.983 365.943 241.09 318.001 209.842C308.891 204.031 299.818 198.489 289.796 194.443C279.276 190.194 268.168 187.571 256.858 186.666ZM433.993 104.365C446.523 103.712 458.963 107.51 468.466 115.708C495.546 139.099 490.426 181.553 468.666 206.676C456.194 221.078 440.909 229.995 421.731 231.53C393.179 233.81 370.609 210.755 368.781 183.028C366.234 144.387 394.586 107.641 433.993 104.365ZM54.0967 104.366C107.153 101.826 146.873 171.829 112.655 214.336C104.068 225.003 91.8745 230.328 78.5059 231.53C62.4833 232.608 47.6413 226.38 34.7832 216.208C0.791096 189.309 -6.60465 127.298 38.7686 107.671C43.4543 105.644 48.8939 104.776 54.0967 104.366ZM57.3877 120.382C19.233 121.984 15.4811 165.844 33.6572 191.445C43.699 205.589 57.621 215.211 75.3633 215.596C97.8073 214.723 110.135 196.93 109.281 175.461C108.208 148.476 85.583 120.676 57.3877 120.382ZM436.051 120.383C406.058 121.723 383.723 150.474 384.533 179.578C385.096 199.704 398.556 215.696 419.464 215.583C448.781 214.348 471.711 184.982 470.733 156.558C470.031 136.079 457.218 120.602 436.051 120.383ZM324.054 7.3623C338.326 6.7691 351.351 10.2264 362.523 19.2773C395.598 46.0693 393.019 98.051 367.924 129.228C354.676 145.685 338.756 155.298 317.773 157.691C303.511 158.684 289.414 154.169 278.384 145.078C264.564 133.69 256.664 116.543 255.081 98.877C252.971 75.4372 260.189 52.1105 275.166 33.958C287.909 18.795 304.101 9.12455 324.054 7.3623ZM163.112 7.11914C179.373 5.9648 196.335 13.3708 208.758 23.7725C240.729 50.5 250.841 104.122 223.125 137.371C212.623 149.97 199.131 156.255 183.024 157.66C167.201 158.601 149.761 151.408 137.781 141.285C120.114 126.198 109.106 104.754 107.146 81.6045C104.208 45.1805 123.964 10.0546 163.112 7.11914ZM332.083 23.4854C329.626 23.2474 327.488 23.2803 325.031 23.3643C256.769 31.6145 252.114 143.799 316.651 141.59C351.681 138.001 373.956 100.944 370.754 67.6855C368.674 46.1131 354.995 25.7033 332.083 23.4854ZM211.483 126.363C241.509 90.2167 210.786 19.1219 161.753 23.3789C149.678 25.3224 140.362 30.04 133.128 40.2979C112.989 68.8541 124.264 112.437 151.854 131.997C161.135 138.572 172.789 142.598 184.07 141.396C195.199 140.238 204.315 134.993 211.483 126.363Z"/>
</mask>
<path d="M244.999 170.129C247.151 170.07 249.367 170.155 251.521 170.228C265.266 170.665 278.851 173.305 291.759 178.047C322.256 189.306 364.217 220.743 386.307 244.248C412.314 272.728 429.386 303.031 428.006 342.173C425.371 416.845 362.119 443.981 298.119 417.741C290.267 414.521 283.369 410.2 275.829 406.633C267.612 402.74 258.686 400.566 249.599 400.241C238.365 400.129 227.566 402.011 217.394 406.988C211.204 410.016 205.364 413.59 199.036 416.383C185.22 422.478 170.075 426.556 154.947 427.221C132.962 428.188 109.989 423.261 93.3555 407.956C74.9425 391.014 66.9464 366.395 66.0459 341.883C64.701 305.278 81.7942 272.063 106.309 245.788C111.898 239.796 117.76 233.933 123.902 228.508C144.554 210.268 178.448 186.185 204.403 177.228C217.628 172.663 231.06 170.624 244.999 170.129ZM256.858 186.666C251.484 186.181 246.079 186.082 240.688 186.37C213.937 188.552 198.372 195.275 175.896 209.732C129.526 239.363 77.3984 284.906 82.207 345.516C83.755 364.361 90.0628 384.521 105.039 396.998C129.552 417.42 166.292 413.153 193.611 401.073C199.507 398.468 204.725 395.215 210.441 392.418C223.894 385.871 238.863 383.071 253.773 384.315C264.266 385.34 274.684 387.926 284.052 392.836C290.599 396.271 296.606 399.746 303.429 402.528C353.329 422.871 405.863 409.148 411.336 347.945C416.966 284.983 365.943 241.09 318.001 209.842C308.891 204.031 299.818 198.489 289.796 194.443C279.276 190.194 268.168 187.571 256.858 186.666ZM433.993 104.365C446.523 103.712 458.963 107.51 468.466 115.708C495.546 139.099 490.426 181.553 468.666 206.676C456.194 221.078 440.909 229.995 421.731 231.53C393.179 233.81 370.609 210.755 368.781 183.028C366.234 144.387 394.586 107.641 433.993 104.365ZM54.0967 104.366C107.153 101.826 146.873 171.829 112.655 214.336C104.068 225.003 91.8745 230.328 78.5059 231.53C62.4833 232.608 47.6413 226.38 34.7832 216.208C0.791096 189.309 -6.60465 127.298 38.7686 107.671C43.4543 105.644 48.8939 104.776 54.0967 104.366ZM57.3877 120.382C19.233 121.984 15.4811 165.844 33.6572 191.445C43.699 205.589 57.621 215.211 75.3633 215.596C97.8073 214.723 110.135 196.93 109.281 175.461C108.208 148.476 85.583 120.676 57.3877 120.382ZM436.051 120.383C406.058 121.723 383.723 150.474 384.533 179.578C385.096 199.704 398.556 215.696 419.464 215.583C448.781 214.348 471.711 184.982 470.733 156.558C470.031 136.079 457.218 120.602 436.051 120.383ZM324.054 7.3623C338.326 6.7691 351.351 10.2264 362.523 19.2773C395.598 46.0693 393.019 98.051 367.924 129.228C354.676 145.685 338.756 155.298 317.773 157.691C303.511 158.684 289.414 154.169 278.384 145.078C264.564 133.69 256.664 116.543 255.081 98.877C252.971 75.4372 260.189 52.1105 275.166 33.958C287.909 18.795 304.101 9.12455 324.054 7.3623ZM163.112 7.11914C179.373 5.9648 196.335 13.3708 208.758 23.7725C240.729 50.5 250.841 104.122 223.125 137.371C212.623 149.97 199.131 156.255 183.024 157.66C167.201 158.601 149.761 151.408 137.781 141.285C120.114 126.198 109.106 104.754 107.146 81.6045C104.208 45.1805 123.964 10.0546 163.112 7.11914ZM332.083 23.4854C329.626 23.2474 327.488 23.2803 325.031 23.3643C256.769 31.6145 252.114 143.799 316.651 141.59C351.681 138.001 373.956 100.944 370.754 67.6855C368.674 46.1131 354.995 25.7033 332.083 23.4854ZM211.483 126.363C241.509 90.2167 210.786 19.1219 161.753 23.3789C149.678 25.3224 140.362 30.04 133.128 40.2979C112.989 68.8541 124.264 112.437 151.854 131.997C161.135 138.572 172.789 142.598 184.07 141.396C195.199 140.238 204.315 134.993 211.483 126.363Z" fill="black"/>
<path d="M244.999 170.129L244.807 163.132L244.779 163.132L244.75 163.133L244.999 170.129ZM251.521 170.228L251.285 177.224L251.292 177.224L251.299 177.224L251.521 170.228ZM291.759 178.047L294.183 171.48L294.173 171.476L291.759 178.047ZM386.307 244.248L391.476 239.528L391.442 239.491L391.408 239.454L386.307 244.248ZM428.006 342.173L435.001 342.42L435.002 342.419L428.006 342.173ZM298.119 417.741L295.463 424.218L295.464 424.218L298.119 417.741ZM275.829 406.633L272.832 412.959L272.835 412.96L275.829 406.633ZM249.599 400.241L249.849 393.246L249.759 393.242L249.669 393.242L249.599 400.241ZM217.394 406.988L220.469 413.276L220.47 413.276L217.394 406.988ZM199.036 416.383L201.861 422.787L201.862 422.787L199.036 416.383ZM154.947 427.221L154.64 420.227L154.64 420.227L154.947 427.221ZM93.3555 407.956L88.6157 413.107L88.6157 413.107L93.3555 407.956ZM66.0459 341.883L73.0412 341.626L73.0412 341.626L66.0459 341.883ZM106.309 245.788L111.427 250.563L111.428 250.562L106.309 245.788ZM123.902 228.508L128.536 233.755L128.536 233.754L123.902 228.508ZM204.403 177.228L202.12 170.611V170.611L204.403 177.228ZM256.858 186.666L256.229 193.638L256.265 193.641L256.3 193.644L256.858 186.666ZM240.688 186.37L240.315 179.38L240.217 179.385L240.119 179.393L240.688 186.37ZM175.896 209.732L179.665 215.631L179.674 215.625L179.682 215.62L175.896 209.732ZM82.207 345.516L75.229 346.069L75.2297 346.079L75.2305 346.089L82.207 345.516ZM105.039 396.998L100.558 402.376L100.558 402.376L105.039 396.998ZM193.611 401.073L190.782 394.67L190.781 394.671L193.611 401.073ZM210.441 392.418L207.378 386.124L207.371 386.127L207.364 386.131L210.441 392.418ZM253.773 384.315L254.454 377.349L254.405 377.344L254.356 377.34L253.773 384.315ZM284.052 392.836L287.304 386.637L287.301 386.636L284.052 392.836ZM303.429 402.528L300.785 409.01L300.786 409.01L303.429 402.528ZM411.336 347.945L418.308 348.569V348.569L411.336 347.945ZM318.001 209.842L321.823 203.978L321.794 203.959L321.765 203.94L318.001 209.842ZM289.796 194.443L287.174 200.934L287.176 200.934L289.796 194.443ZM433.993 104.365L433.629 97.3747L433.521 97.3803L433.413 97.3893L433.993 104.365ZM468.466 115.708L473.042 110.411L473.038 110.408L468.466 115.708ZM468.666 206.676L463.375 202.093L463.374 202.093L468.666 206.676ZM421.731 231.53L422.289 238.508L422.29 238.508L421.731 231.53ZM368.781 183.028L375.766 182.568V182.568L368.781 183.028ZM54.0967 104.366L53.7619 97.3742L53.6546 97.3794L53.5474 97.3878L54.0967 104.366ZM112.655 214.336L118.108 218.725L118.108 218.725L112.655 214.336ZM78.5059 231.53L78.9755 238.514L79.0543 238.509L79.133 238.502L78.5059 231.53ZM34.7832 216.208L30.4394 221.697L30.4401 221.698L34.7832 216.208ZM38.7686 107.671L41.5476 114.096L41.5478 114.096L38.7686 107.671ZM57.3877 120.382L57.4608 113.382L57.2774 113.38L57.0941 113.388L57.3877 120.382ZM33.6572 191.445L27.9494 195.498L27.9495 195.498L33.6572 191.445ZM75.3633 215.596L75.2114 222.594L75.4234 222.599L75.6352 222.59L75.3633 215.596ZM109.281 175.461L116.276 175.183V175.183L109.281 175.461ZM436.051 120.383L436.123 113.383L435.931 113.381L435.738 113.39L436.051 120.383ZM384.533 179.578L377.536 179.773L377.536 179.774L384.533 179.578ZM419.464 215.583L419.502 222.583L419.63 222.582L419.759 222.577L419.464 215.583ZM470.733 156.558L463.738 156.798L463.738 156.798L470.733 156.558ZM324.054 7.3623L323.763 0.368343L323.6 0.375111L323.438 0.389449L324.054 7.3623ZM362.523 19.2773L358.117 24.7165L358.117 24.7167L362.523 19.2773ZM367.924 129.228L373.377 133.617L373.377 133.617L367.924 129.228ZM317.773 157.691L318.259 164.675L318.413 164.664L318.567 164.646L317.773 157.691ZM278.384 145.078L282.836 139.676L282.835 139.676L278.384 145.078ZM255.081 98.877L262.053 98.2524L262.053 98.2494L255.081 98.877ZM275.166 33.958L269.807 29.4545L269.787 29.4787L269.767 29.503L275.166 33.958ZM163.112 7.11914L162.617 0.136712L162.603 0.137697L162.589 0.138737L163.112 7.11914ZM208.758 23.7725L204.264 29.1395L204.268 29.143L208.758 23.7725ZM223.125 137.371L228.502 141.853L228.502 141.853L223.125 137.371ZM183.024 157.66L183.44 164.648L183.536 164.642L183.633 164.634L183.024 157.66ZM137.781 141.285L133.236 146.608L133.249 146.62L133.263 146.632L137.781 141.285ZM107.146 81.6045L100.168 82.1672L100.169 82.1812L100.17 82.1952L107.146 81.6045ZM332.083 23.4854L331.408 30.4528L331.409 30.4528L332.083 23.4854ZM325.031 23.3643L324.792 16.3683L324.491 16.3786L324.191 16.4148L325.031 23.3643ZM316.651 141.59L316.891 148.586L317.128 148.578L317.365 148.553L316.651 141.59ZM370.754 67.6855L377.722 67.0146L377.722 67.0137L370.754 67.6855ZM211.483 126.363L216.868 130.836L216.868 130.836L211.483 126.363ZM161.753 23.3789L161.147 16.4051L160.893 16.4272L160.641 16.4679L161.753 23.3789ZM133.128 40.2979L127.407 36.2635L127.407 36.2636L133.128 40.2979ZM151.854 131.997L147.806 137.708L147.808 137.709L151.854 131.997ZM184.07 141.396L183.346 134.433L183.337 134.434L183.329 134.435L184.07 141.396ZM244.999 170.129L245.191 177.126C247.083 177.074 249.059 177.148 251.285 177.224L251.521 170.228L251.758 163.232C249.674 163.161 247.22 163.065 244.807 163.132L244.999 170.129ZM251.521 170.228L251.299 177.224C264.295 177.638 277.14 180.134 289.345 184.617L291.759 178.047L294.173 171.476C280.562 166.476 266.237 163.692 251.744 163.231L251.521 170.228ZM291.759 178.047L289.335 184.614C303.748 189.935 321.283 200.211 338.113 212.249C354.895 224.252 370.541 237.694 381.206 249.042L386.307 244.248L391.408 239.454C379.982 227.297 363.603 213.268 346.258 200.862C328.961 188.49 310.267 177.418 294.183 171.48L291.759 178.047ZM386.307 244.248L381.138 248.968C406.485 276.725 422.301 305.32 421.01 341.926L428.006 342.173L435.002 342.419C436.471 300.742 418.143 268.731 391.476 239.528L386.307 244.248ZM428.006 342.173L421.01 341.926C419.767 377.149 404.402 400.125 382.788 411.619C360.901 423.257 331.334 423.794 300.775 411.264L298.119 417.741L295.464 424.218C328.904 437.928 362.962 438.017 389.361 423.98C416.031 409.797 433.609 381.869 435.001 342.42L428.006 342.173ZM298.119 417.741L300.775 411.265C297.18 409.79 293.742 408.039 290.128 406.129C286.595 404.261 282.776 402.176 278.823 400.305L275.829 406.633L272.835 412.96C276.422 414.657 279.822 416.516 283.586 418.506C287.269 420.453 291.206 422.472 295.463 424.218L298.119 417.741ZM275.829 406.633L278.826 400.307C269.747 396.006 259.887 393.605 249.849 393.246L249.599 400.241L249.348 407.237C257.485 407.528 265.476 409.474 272.832 412.959L275.829 406.633ZM249.599 400.241L249.669 393.242C237.592 393.121 225.669 395.146 214.317 400.701L217.394 406.988L220.47 413.276C229.463 408.875 239.138 407.137 249.529 407.241L249.599 400.241ZM217.394 406.988L214.318 400.7C211.072 402.288 207.899 404.029 204.96 405.604C201.956 407.214 199.113 408.698 196.21 409.979L199.036 416.383L201.862 422.787C205.287 421.275 208.529 419.575 211.574 417.943C214.684 416.276 217.526 414.716 220.469 413.276L217.394 406.988ZM199.036 416.383L196.211 409.978C183.036 415.79 168.745 419.607 154.64 420.227L154.947 427.221L155.255 434.214C171.405 433.504 187.404 429.165 201.861 422.787L199.036 416.383ZM154.947 427.221L154.64 420.227C133.734 421.147 112.874 416.403 98.0952 402.805L93.3555 407.956L88.6157 413.107C107.104 430.119 132.19 435.229 155.255 434.214L154.947 427.221ZM93.3555 407.956L98.0953 402.805C81.475 387.512 73.8972 364.928 73.0412 341.626L66.0459 341.883L59.0506 342.14C59.9956 367.863 68.4099 394.515 88.6157 413.107L93.3555 407.956ZM66.0459 341.883L73.0412 341.626C71.7855 307.447 87.7354 275.956 111.427 250.563L106.309 245.788L101.19 241.013C75.853 268.17 57.6166 303.109 59.0506 342.14L66.0459 341.883ZM106.309 245.788L111.428 250.562C116.909 244.685 122.608 238.991 128.536 233.755L123.902 228.508L119.269 223.261C112.912 228.875 106.886 234.906 101.19 241.014L106.309 245.788ZM123.902 228.508L128.536 233.754C148.945 215.729 182.021 192.357 206.687 183.845L204.403 177.228L202.12 170.611C174.876 180.013 140.163 204.807 119.268 223.261L123.902 228.508ZM204.403 177.228L206.687 183.845C219.118 179.554 231.839 177.601 245.248 177.124L244.999 170.129L244.75 163.133C230.281 163.647 216.139 165.772 202.12 170.611L204.403 177.228ZM256.858 186.666L257.487 179.694C251.78 179.179 246.04 179.074 240.315 179.38L240.688 186.37L241.062 193.36C246.118 193.09 251.188 193.183 256.229 193.638L256.858 186.666ZM240.688 186.37L240.119 179.393C211.937 181.692 195.279 188.942 172.109 203.845L175.896 209.732L179.682 215.62C201.465 201.609 215.937 195.412 241.258 193.347L240.688 186.37ZM175.896 209.732L172.126 203.834C148.654 218.833 123.313 238.106 104.404 261.62C85.4448 285.197 72.6411 313.451 75.229 346.069L82.207 345.516L89.1851 344.962C86.9643 316.97 97.82 292.148 115.314 270.393C132.859 248.576 156.768 230.262 179.665 215.631L175.896 209.732ZM82.207 345.516L75.2305 346.089C76.847 365.768 83.4988 388.163 100.558 402.376L105.039 396.998L109.52 391.62C96.6268 380.878 90.663 362.954 89.1835 344.943L82.207 345.516ZM105.039 396.998L100.558 402.376C128.165 425.376 168.258 419.938 196.442 407.475L193.611 401.073L190.781 394.671C164.326 406.369 130.939 409.465 109.52 391.62L105.039 396.998ZM193.611 401.073L196.44 407.476C199.658 406.055 202.641 404.478 205.42 402.977C208.263 401.442 210.823 400.025 213.518 398.705L210.441 392.418L207.364 386.131C204.344 387.609 201.437 389.217 198.767 390.659C196.034 392.135 193.461 393.487 190.782 394.67L193.611 401.073ZM210.441 392.418L213.505 398.712C225.826 392.715 239.536 390.151 253.191 391.291L253.773 384.315L254.356 377.34C238.191 375.99 221.962 379.026 207.378 386.124L210.441 392.418ZM253.773 384.315L253.093 391.282C262.925 392.243 272.421 394.643 280.802 399.036L284.052 392.836L287.301 386.636C276.948 381.209 265.607 378.438 254.454 377.349L253.773 384.315ZM284.052 392.836L280.8 399.035C287.025 402.301 293.55 406.059 300.785 409.01L303.429 402.528L306.072 396.047C299.663 393.433 294.173 390.241 287.304 386.637L284.052 392.836ZM303.429 402.528L300.786 409.01C326.873 419.645 354.502 421.743 376.785 412.257C399.547 402.566 415.376 381.36 418.308 348.569L411.336 347.945L404.364 347.322C401.823 375.734 388.649 391.99 371.301 399.376C353.473 406.966 329.884 405.754 306.071 396.046L303.429 402.528ZM411.336 347.945L418.308 348.569C421.323 314.849 409.084 286.406 390.242 262.651C371.496 239.017 346.009 219.742 321.823 203.978L318.001 209.842L314.179 215.706C337.935 231.191 361.931 249.486 379.274 271.351C396.521 293.095 406.978 318.079 404.364 347.322L411.336 347.945ZM318.001 209.842L321.765 203.94C312.634 198.115 303.089 192.261 292.416 187.952L289.796 194.443L287.176 200.934C296.547 204.717 305.148 209.946 314.237 215.743L318.001 209.842ZM289.796 194.443L292.418 187.953C281.239 183.437 269.435 180.65 257.417 179.688L256.858 186.666L256.3 193.644C266.901 194.492 277.313 196.95 287.174 200.934L289.796 194.443ZM433.993 104.365L434.357 111.356C445.267 110.787 455.889 114.103 463.893 121.008L468.466 115.708L473.038 110.408C462.038 100.918 447.779 96.6376 433.629 97.3747L433.993 104.365ZM468.466 115.708L463.89 121.005C475.53 131.06 480.438 145.311 479.886 160.284C479.33 175.355 473.22 190.726 463.375 202.093L468.666 206.676L473.957 211.259C485.872 197.502 493.202 179.085 493.876 160.8C494.554 142.418 488.482 123.747 473.042 110.411L468.466 115.708ZM468.666 206.676L463.374 202.093C451.908 215.334 438.24 223.186 421.173 224.553L421.731 231.53L422.29 238.508C443.577 236.804 460.48 226.822 473.958 211.258L468.666 206.676ZM421.731 231.53L421.174 224.552C397.106 226.474 377.378 207.02 375.766 182.568L368.781 183.028L361.796 183.489C363.84 214.49 389.252 241.146 422.289 238.508L421.731 231.53ZM368.781 183.028L375.766 182.568C373.444 147.343 399.354 114.269 434.573 111.341L433.993 104.365L433.413 97.3893C389.817 101.013 359.024 141.431 361.796 183.489L368.781 183.028ZM54.0967 104.366L54.4314 111.358C77.641 110.247 98.621 125.048 109.96 145.813C121.274 166.532 122.082 191.463 107.203 209.946L112.655 214.336L118.108 218.725C137.447 194.702 135.503 163.378 122.248 139.104C109.017 114.875 83.6089 95.9453 53.7619 97.3742L54.0967 104.366ZM112.655 214.336L107.203 209.946C100.043 218.84 89.7673 223.489 77.8788 224.558L78.5059 231.53L79.133 238.502C93.9817 237.167 108.092 231.167 118.108 218.725L112.655 214.336ZM78.5059 231.53L78.0362 224.546C64.2274 225.475 51.0522 220.153 39.1263 210.718L34.7832 216.208L30.4401 221.698C44.2304 232.608 60.7393 239.741 78.9755 238.514L78.5059 231.53ZM34.7832 216.208L39.127 210.719C23.868 198.644 14.3996 178.429 14.0125 159.072C13.6312 140.004 21.9733 122.563 41.5476 114.096L38.7686 107.671L35.9895 101.246C10.1906 112.406 -0.456019 135.783 0.0152845 159.352C0.480819 182.633 11.7063 206.873 30.4394 221.697L34.7832 216.208ZM38.7686 107.671L41.5478 114.096C45.1872 112.521 49.7288 111.732 54.6459 111.345L54.0967 104.366L53.5474 97.3878C48.0591 97.8198 41.7214 98.7666 35.9893 101.246L38.7686 107.671ZM57.3877 120.382L57.0941 113.388C46.1575 113.847 37.1956 117.383 30.427 123.285C23.7068 129.144 19.583 136.953 17.5904 145.286C13.6536 161.748 17.7746 181.166 27.9494 195.498L33.6572 191.445L39.365 187.393C31.3638 176.123 28.2726 160.81 31.2064 148.542C32.6491 142.509 35.4813 137.452 39.6275 133.837C43.7254 130.264 49.5406 127.717 57.6813 127.376L57.3877 120.382ZM33.6572 191.445L27.9495 195.498C38.9018 210.924 54.6844 222.149 75.2114 222.594L75.3633 215.596L75.5151 208.597C60.5577 208.273 48.4962 200.254 39.365 187.393L33.6572 191.445ZM75.3633 215.596L75.6352 222.59C88.8004 222.079 99.4252 216.518 106.529 207.619C113.54 198.838 116.757 187.286 116.276 175.183L109.281 175.461L102.287 175.739C102.659 185.105 100.139 193.184 95.5883 198.885C91.1312 204.468 84.3703 208.24 75.0913 208.601L75.3633 215.596ZM109.281 175.461L116.276 175.183C115.669 159.918 109.019 144.697 98.7107 133.232C88.3817 121.745 73.9218 113.554 57.4608 113.382L57.3877 120.382L57.3145 127.381C69.049 127.504 79.9994 133.361 88.3001 142.593C96.6219 151.848 101.821 164.019 102.287 175.739L109.281 175.461ZM436.051 120.383L435.738 113.39C401.285 114.929 376.639 147.529 377.536 179.773L384.533 179.578L391.53 179.383C390.808 153.418 410.832 128.517 436.363 127.376L436.051 120.383ZM384.533 179.578L377.536 179.774C378.185 202.999 394.122 222.719 419.502 222.583L419.464 215.583L419.426 208.583C402.99 208.672 392.006 196.41 391.53 179.383L384.533 179.578ZM419.464 215.583L419.759 222.577C436.741 221.861 451.534 213.021 461.821 200.767C472.089 188.534 478.283 172.432 477.729 156.317L470.733 156.558L463.738 156.798C464.161 169.108 459.379 181.901 451.098 191.766C442.835 201.609 431.504 208.07 419.169 208.589L419.464 215.583ZM470.733 156.558L477.729 156.318C477.331 144.707 473.476 134.027 466.219 126.135C458.888 118.162 448.51 113.511 436.123 113.383L436.051 120.383L435.978 127.382C444.759 127.473 451.371 130.671 455.914 135.611C460.531 140.632 463.433 147.93 463.738 156.798L470.733 156.558ZM324.054 7.3623L324.344 14.3563C337.22 13.8211 348.489 16.9167 358.117 24.7165L362.523 19.2773L366.93 13.8382C354.213 3.53609 339.432 -0.282905 323.763 0.368343L324.054 7.3623ZM362.523 19.2773L358.117 24.7167C372.747 36.5676 379.714 54.1378 380.038 72.7301C380.363 91.3908 373.955 110.571 362.471 124.838L367.924 129.228L373.377 133.617C386.987 116.708 394.416 94.3086 394.036 72.4863C393.655 50.5957 385.374 28.779 366.93 13.838L362.523 19.2773ZM367.924 129.228L362.471 124.838C350.252 140.018 335.941 148.574 316.98 150.736L317.773 157.691L318.567 164.646C341.57 162.023 359.1 151.353 373.377 133.617L367.924 129.228ZM317.773 157.691L317.287 150.708C304.813 151.577 292.483 147.628 282.836 139.676L278.384 145.078L273.932 150.48C286.345 160.711 302.209 165.792 318.259 164.675L317.773 157.691ZM278.384 145.078L282.835 139.676C270.671 129.652 263.495 114.342 262.053 98.2524L255.081 98.877L248.109 99.5015C249.833 118.744 258.457 137.728 273.932 150.48L278.384 145.078ZM255.081 98.877L262.053 98.2494C260.108 76.6448 266.76 55.1444 280.565 38.413L275.166 33.958L269.767 29.503C253.617 49.0767 245.834 74.2296 248.109 99.5045L255.081 98.877ZM275.166 33.958L280.525 38.4615C292.266 24.4899 306.838 15.9101 324.67 14.3352L324.054 7.3623L323.438 0.389449C301.364 2.33905 283.551 13.1001 269.807 29.4545L275.166 33.958ZM163.112 7.11914L163.608 14.1016C177.556 13.1115 192.79 19.532 204.264 29.1395L208.758 23.7725L213.252 18.4054C199.881 7.2096 181.191 -1.18186 162.617 0.136712L163.112 7.11914ZM208.758 23.7725L204.268 29.143C218.814 41.3033 228.564 59.7789 231.398 79.1402C234.227 98.4662 230.098 118.073 217.748 132.889L223.125 137.371L228.502 141.853C243.868 123.42 248.541 99.5915 245.25 77.1123C241.965 54.6684 230.673 32.9692 213.248 18.4019L208.758 23.7725ZM223.125 137.371L217.748 132.889C208.573 143.895 196.883 149.424 182.416 150.687L183.024 157.66L183.633 164.634C201.379 163.085 216.672 156.044 228.502 141.853L223.125 137.371ZM183.024 157.66L182.609 150.673C168.948 151.485 153.216 145.163 142.299 135.938L137.781 141.285L133.263 146.632C146.306 157.653 165.454 165.717 183.44 164.648L183.024 157.66ZM137.781 141.285L142.327 135.962C126.061 122.071 115.926 102.328 114.121 81.0138L107.146 81.6045L100.17 82.1952C102.287 107.181 114.167 130.325 133.236 146.608L137.781 141.285ZM107.146 81.6045L114.123 81.0418C112.764 64.1911 116.69 47.9647 125.106 35.7823C133.42 23.7478 146.258 15.4026 163.636 14.0995L163.112 7.11914L162.589 0.138737C140.818 1.77119 124.204 12.4567 113.587 27.8249C103.073 43.0454 98.5898 62.5939 100.168 82.1672L107.146 81.6045ZM332.083 23.4854L332.758 16.5179C329.829 16.2344 327.319 16.282 324.792 16.3683L325.031 23.3643L325.27 30.3602C327.658 30.2786 329.423 30.2605 331.408 30.4528L332.083 23.4854ZM325.031 23.3643L324.191 16.4148C285.623 21.0762 265.805 55.0217 264.052 86.0041C263.169 101.616 266.739 117.405 275.488 129.347C284.43 141.551 298.444 149.217 316.891 148.586L316.651 141.59L316.412 134.594C302.59 135.067 292.984 129.539 286.781 121.072C280.385 112.343 277.284 99.9843 278.03 86.7948C279.536 60.1746 296.177 33.9026 325.871 30.3137L325.031 23.3643ZM316.651 141.59L317.365 148.553C337.299 146.511 353.328 134.954 363.806 119.733C374.248 104.562 379.487 85.3503 377.722 67.0146L370.754 67.6855L363.786 68.3565C365.223 83.2792 360.925 99.2256 352.274 111.795C343.657 124.314 331.034 133.08 315.938 134.626L316.651 141.59ZM370.754 67.6855L377.722 67.0137C375.449 43.4394 360.177 19.1722 332.757 16.5179L332.083 23.4854L331.409 30.4528C349.814 32.2345 361.899 48.7868 363.786 68.3574L370.754 67.6855ZM211.483 126.363L216.868 130.836C234.139 110.045 233.41 80.1321 222.619 56.7831C211.801 33.376 189.593 13.9356 161.147 16.4051L161.753 23.3789L162.358 30.3527C182.946 28.5653 200.616 42.5437 209.911 62.6565C219.233 82.8272 218.854 106.535 206.099 121.89L211.483 126.363ZM161.753 23.3789L160.641 16.4679C147.122 18.6438 135.949 24.1518 127.407 36.2635L133.128 40.2979L138.848 44.3322C144.775 35.9282 152.234 32.001 162.865 30.29L161.753 23.3789ZM133.128 40.2979L127.407 36.2636C115.98 52.4669 113.673 72.6131 117.759 91.0367C121.839 109.436 132.43 126.807 147.806 137.708L151.854 131.997L155.903 126.287C143.688 117.627 134.847 103.427 131.427 88.0056C128.012 72.6086 130.137 56.685 138.848 44.3321L133.128 40.2979ZM151.854 131.997L147.808 137.709C158.12 145.014 171.443 149.781 184.812 148.356L184.07 141.396L183.329 134.435C174.134 135.415 164.151 132.129 155.901 126.285L151.854 131.997ZM184.07 141.396L184.795 148.358C197.9 146.994 208.637 140.745 216.868 130.836L211.483 126.363L206.099 121.89C199.993 129.241 192.497 133.481 183.346 134.433L184.07 141.396Z" fill="black" mask="url(#path-1-outside-1_424_1481)"/>
</svg>
