<svg width="167" height="167" viewBox="25 32 167 167" fill="none" xmlns="http://www.w3.org/2000/svg">
<path fill-rule="evenodd" clip-rule="evenodd" d="M85.6187 50.6835C87.011 50.0732 88.3253 49.7549 89.816 50.2265C94.0692 51.5724 100.349 62.695 104.994 65.3847C106.093 66.0213 107.154 66.2341 108.38 66.3905C108.539 71.0129 108.379 76.2923 108.383 81.0106L108.393 109.679L108.436 181.74C107.985 181.713 107.534 181.677 107.085 181.632C101.773 181.073 99.8016 177.781 96.5689 173.773C94.0283 170.624 91.5335 167.335 88.9752 164.193C84.8621 159.142 88.8943 156.132 92.2955 152.768C97.9657 147.311 102.099 139.963 102.871 131.782C103.536 125.113 102.745 117.823 98.5172 112.475C95.5113 108.562 91.3738 106.151 86.6002 105.703C81.5861 105.093 73.0182 106.635 72.608 113.501C72.1764 120.727 80.9026 121.402 85.2535 123.049C90.6949 125.109 95.2505 130.085 94.6793 136.508C94.1896 142.015 90.5105 146.03 86.7779 149.517C84.7864 151.393 80.7607 154.197 78.3404 151.523C76.3175 149.288 74.3675 146.894 72.4117 144.583L60.2193 130.218L43.9742 111.266C38.3731 104.74 30.9992 98.5772 32.1129 88.7479C33.0241 80.7083 37.8138 78.5364 43.7418 75.0429L57.1871 67.1894L77.6676 55.2548C80.2853 53.7557 82.8764 51.8854 85.6187 50.6835ZM118.239 58.3436C121.57 54.952 125.031 48.2899 130.386 50.4882C133.269 51.672 137.087 54.1175 139.819 55.7108C146.552 59.6289 153.263 63.5923 159.95 67.6005C166.13 71.2607 172.539 74.5499 178.552 78.5282C185.929 83.4098 185.956 93.9514 181.311 100.937C178.865 104.617 175.907 107.67 173.031 110.962C170.026 114.443 167.045 117.949 164.089 121.477L146.175 142.521C143.475 145.645 140.883 149.084 137.862 151.858C135.899 153.66 132.531 152.049 130.752 150.593C124.385 145.383 118.005 137.047 123.868 128.545C125.123 126.696 126.777 125.194 128.689 124.166C134.106 121.292 144.673 121.406 143.467 112.549C142.548 105.788 133.429 105.1 128.573 106.066C123.812 107.014 120.011 109.374 117.187 113.652C109.541 126.161 113.905 143.807 124.395 152.974C125.84 154.236 127.64 155.844 128.579 157.529C129.645 159.786 129.307 161.891 127.901 163.823C126.19 166.176 124.141 168.727 122.281 170.924C120.121 173.474 117.214 177.533 114.697 179.492C113.336 180.566 111.755 181.285 110.086 181.593C109.633 181.675 108.892 181.739 108.436 181.74L108.394 109.679L108.384 81.0106C108.384 80.421 108.386 79.8225 108.389 79.2177C108.415 74.983 108.52 70.4352 108.381 66.3905C113.2 65.4248 115.048 61.5929 118.239 58.3436Z" fill="#E8842E"/>
</svg>
