<svg width="513" height="513" viewBox="0 0 513 513" fill="none" xmlns="http://www.w3.org/2000/svg">
<mask id="path-1-outside-1_425_1562" maskUnits="userSpaceOnUse" x="0" y="-0.000488281" width="513" height="513" fill="black">
<rect fill="white" y="-0.000488281" width="513" height="513"/>
<path d="M382.923 7.3335C396.423 6.72232 412.951 7.1362 426.671 7.14014L505.723 7.17725L505.77 86.856C505.79 100.337 506.009 113.896 505.542 127.358C505.382 131.958 501.213 136.474 496.478 136.35C491.255 136.48 487.514 130.238 487.374 125.438C487.107 116.738 487.447 107.43 487.42 98.6626C487.2 78.7533 487.12 58.8427 487.167 38.9321C474.828 49.8762 455.411 70.5245 443.179 82.7524L350.366 175.85C362.152 189.926 370.717 201.353 379.301 217.875C403.493 264.455 408.041 318.782 391.934 368.739C375.966 418.648 340.762 460.131 294.133 484.004C246.223 508.649 192.643 511.829 141.712 495.392C120.208 488.819 96.2225 474.779 78.998 460.559C38.6312 427.084 13.0378 379.075 7.73926 326.891C3.23851 274.766 19.4153 222.962 52.7754 182.668C86.0589 142.44 134.001 117.143 185.986 112.38C244.948 107.062 292.438 125.3 337.08 162.588L473.894 25.7085C454.097 25.529 434.308 25.5107 414.512 25.6528C405.134 25.6675 394.769 26.1105 385.511 25.2651C374.405 24.2509 374.525 13.0928 382.923 7.3335ZM382.322 294.922C374.752 196.556 288.904 122.951 190.576 130.51C92.2202 138.073 18.6209 223.975 26.1973 322.367C33.7737 420.757 119.654 494.369 218.009 486.773C316.337 479.178 389.899 393.289 382.322 294.922Z"/>
</mask>
<path d="M382.923 7.3335C396.423 6.72232 412.951 7.1362 426.671 7.14014L505.723 7.17725L505.77 86.856C505.79 100.337 506.009 113.896 505.542 127.358C505.382 131.958 501.213 136.474 496.478 136.35C491.255 136.48 487.514 130.238 487.374 125.438C487.107 116.738 487.447 107.43 487.42 98.6626C487.2 78.7533 487.12 58.8427 487.167 38.9321C474.828 49.8762 455.411 70.5245 443.179 82.7524L350.366 175.85C362.152 189.926 370.717 201.353 379.301 217.875C403.493 264.455 408.041 318.782 391.934 368.739C375.966 418.648 340.762 460.131 294.133 484.004C246.223 508.649 192.643 511.829 141.712 495.392C120.208 488.819 96.2225 474.779 78.998 460.559C38.6312 427.084 13.0378 379.075 7.73926 326.891C3.23851 274.766 19.4153 222.962 52.7754 182.668C86.0589 142.44 134.001 117.143 185.986 112.38C244.948 107.062 292.438 125.3 337.08 162.588L473.894 25.7085C454.097 25.529 434.308 25.5107 414.512 25.6528C405.134 25.6675 394.769 26.1105 385.511 25.2651C374.405 24.2509 374.525 13.0928 382.923 7.3335ZM382.322 294.922C374.752 196.556 288.904 122.951 190.576 130.51C92.2202 138.073 18.6209 223.975 26.1973 322.367C33.7737 420.757 119.654 494.369 218.009 486.773C316.337 479.178 389.899 393.289 382.322 294.922Z" fill="black"/>
<path d="M382.923 7.3335L382.606 0.340659L380.611 0.430996L378.964 1.56074L382.923 7.3335ZM426.671 7.14014L426.674 0.140137H426.673L426.671 7.14014ZM505.723 7.17725L512.723 7.17313L512.719 0.18053L505.726 0.177247L505.723 7.17725ZM505.77 86.856L498.77 86.8601V86.8663L505.77 86.856ZM505.542 127.358L512.538 127.601L512.538 127.601L505.542 127.358ZM496.478 136.35L496.66 129.352L496.481 129.348L496.303 129.352L496.478 136.35ZM487.374 125.438L494.371 125.234L494.371 125.223L487.374 125.438ZM487.42 98.6626L494.42 98.6413L494.42 98.6133L494.419 98.5852L487.42 98.6626ZM487.167 38.9321L494.167 38.9485L494.204 23.3346L482.522 33.6952L487.167 38.9321ZM443.179 82.7524L438.23 77.8017L438.221 77.8103L443.179 82.7524ZM350.366 175.85L345.409 170.908L340.892 175.439L344.999 180.344L350.366 175.85ZM379.301 217.875L385.513 214.648L385.512 214.647L379.301 217.875ZM391.934 368.739L385.271 366.591L385.269 366.598L385.267 366.606L391.934 368.739ZM294.133 484.004L290.943 477.774L290.931 477.78L294.133 484.004ZM141.712 495.392L143.862 488.73L143.81 488.714L143.758 488.698L141.712 495.392ZM78.998 460.559L74.5297 465.947L74.5356 465.952L74.5416 465.957L78.998 460.559ZM7.73926 326.891L0.765207 327.493L0.769741 327.546L0.775065 327.598L7.73926 326.891ZM52.7754 182.668L58.1672 187.133L58.1688 187.131L52.7754 182.668ZM185.986 112.38L185.357 105.409L185.348 105.41L185.986 112.38ZM337.08 162.588L332.593 167.961L337.506 172.065L342.031 167.537L337.08 162.588ZM473.894 25.7085L478.845 30.657L490.636 18.86L473.957 18.7088L473.894 25.7085ZM414.512 25.6528L414.523 32.6528L414.542 32.6528L414.562 32.6527L414.512 25.6528ZM385.511 25.2651L384.874 32.2361L384.874 32.2361L385.511 25.2651ZM382.322 294.922L375.343 295.46L375.343 295.46L382.322 294.922ZM190.576 130.51L190.04 123.531H190.04L190.576 130.51ZM26.1973 322.367L19.2179 322.904V322.904L26.1973 322.367ZM218.009 486.773L218.548 493.752H218.548L218.009 486.773ZM382.923 7.3335L383.239 14.3263C396.529 13.7247 412.671 14.1361 426.669 14.1401L426.671 7.14014L426.673 0.140137C413.231 0.13628 396.316 -0.280025 382.606 0.340659L382.923 7.3335ZM426.671 7.14014L426.668 14.1401L505.719 14.1772L505.723 7.17725L505.726 0.177247L426.674 0.140138L426.671 7.14014ZM505.723 7.17725L498.723 7.18136L498.77 86.8601L505.77 86.856L512.77 86.8518L512.723 7.17313L505.723 7.17725ZM505.77 86.856L498.77 86.8663C498.79 100.487 499.007 113.821 498.546 127.115L505.542 127.358L512.538 127.601C513.01 113.97 512.789 100.188 512.77 86.8456L505.77 86.856ZM505.542 127.358L498.546 127.114C498.535 127.445 498.323 128.117 497.725 128.727C497.142 129.322 496.705 129.354 496.66 129.352L496.478 136.35L496.295 143.348C500.986 143.47 505.001 141.306 507.726 138.524C510.437 135.757 512.389 131.871 512.538 127.601L505.542 127.358ZM496.478 136.35L496.303 129.352C496.747 129.341 496.425 129.618 495.623 128.547C495.266 128.071 494.942 127.469 494.709 126.82C494.473 126.162 494.382 125.602 494.371 125.234L487.374 125.438L480.377 125.642C480.492 129.571 482 133.71 484.417 136.938C486.826 140.157 490.986 143.489 496.652 143.348L496.478 136.35ZM487.374 125.438L494.371 125.223C494.106 116.589 494.448 107.857 494.42 98.6413L487.42 98.6626L480.42 98.6839C480.445 107.003 480.109 116.888 480.377 125.653L487.374 125.438ZM487.42 98.6626L494.419 98.5852C494.2 78.7089 494.12 58.8296 494.167 38.9485L487.167 38.9321L480.167 38.9157C480.12 58.8559 480.2 78.7978 480.42 98.74L487.42 98.6626ZM487.167 38.9321L482.522 33.6952C469.983 44.8165 450.145 65.891 438.23 77.8018L443.179 82.7524L448.128 87.7031C460.677 75.158 479.672 54.9359 491.812 44.1691L487.167 38.9321ZM443.179 82.7524L438.221 77.8103L345.409 170.908L350.366 175.85L355.324 180.792L448.136 87.6946L443.179 82.7524ZM350.366 175.85L344.999 180.344C356.616 194.218 364.831 205.208 373.089 221.102L379.301 217.875L385.512 214.647C376.602 197.498 367.688 185.634 355.733 171.356L350.366 175.85ZM379.301 217.875L373.089 221.101C396.419 266.022 400.805 318.414 385.271 366.591L391.934 368.739L398.596 370.887C415.277 319.151 410.567 262.888 385.513 214.648L379.301 217.875ZM391.934 368.739L385.267 366.606C369.866 414.741 335.914 454.749 290.943 477.774L294.133 484.004L297.323 490.235C345.61 465.513 382.065 422.555 398.601 370.872L391.934 368.739ZM294.133 484.004L290.931 477.78C244.772 501.523 193.128 504.63 143.862 488.73L141.712 495.392L139.562 502.054C192.159 519.028 247.674 515.775 297.335 490.229L294.133 484.004ZM141.712 495.392L143.758 488.698C123.307 482.447 100.122 468.921 83.4545 455.161L78.998 460.559L74.5416 465.957C92.3228 480.637 117.109 495.191 139.666 502.086L141.712 495.392ZM78.998 460.559L83.4664 455.171C44.5138 422.869 19.8165 376.541 14.7035 326.184L7.73926 326.891L0.775065 327.598C6.25914 381.609 32.7486 431.3 74.5297 465.947L78.998 460.559ZM7.73926 326.891L14.7133 326.289C10.3706 275.995 25.9793 226.01 58.1672 187.133L52.7754 182.668L47.3835 178.204C12.8512 219.914 -3.89361 273.538 0.765207 327.493L7.73926 326.891ZM52.7754 182.668L58.1688 187.131C90.2648 148.337 136.496 123.943 186.625 119.351L185.986 112.38L185.348 105.41C131.506 110.342 81.8531 136.542 47.382 178.206L52.7754 182.668ZM185.986 112.38L186.615 119.352C243.446 114.226 289.144 131.669 332.593 167.961L337.08 162.588L341.568 157.216C295.733 118.931 246.451 99.8978 185.357 105.409L185.986 112.38ZM337.08 162.588L342.031 167.537L478.845 30.657L473.894 25.7085L468.943 20.7599L332.129 157.64L337.08 162.588ZM473.894 25.7085L473.957 18.7088C454.123 18.529 434.295 18.5106 414.461 18.653L414.512 25.6528L414.562 32.6527C434.32 32.5108 454.072 32.5291 473.83 32.7082L473.894 25.7085ZM414.512 25.6528L414.501 18.6528C404.693 18.6682 394.974 19.1002 386.147 18.2941L385.511 25.2651L384.874 32.2361C394.563 33.1208 405.574 32.6668 414.523 32.6528L414.512 25.6528ZM385.511 25.2651L386.147 18.2941C384.517 18.1452 383.981 17.6941 383.926 17.6448C383.916 17.6359 383.893 17.6566 383.878 17.487C383.831 16.9324 384.239 14.9189 386.882 13.1062L382.923 7.3335L378.964 1.56074C373.209 5.50745 369.358 11.9527 369.928 18.6704C370.222 22.1371 371.726 25.4974 374.555 28.0459C377.339 30.554 380.952 31.8779 384.874 32.2361L385.511 25.2651ZM382.322 294.922L389.302 294.385C381.435 192.167 292.224 115.675 190.04 123.531L190.576 130.51L191.113 137.49C285.584 130.227 368.069 200.945 375.343 295.46L382.322 294.922ZM190.576 130.51L190.04 123.531C87.8261 131.39 11.3449 220.66 19.2179 322.904L26.1973 322.367L33.1766 321.829C25.8969 227.29 96.6142 144.756 191.113 137.49L190.576 130.51ZM26.1973 322.367L19.2179 322.904C27.091 425.147 116.336 501.647 218.548 493.752L218.009 486.773L217.47 479.794C122.973 487.092 40.4563 416.367 33.1766 321.829L26.1973 322.367ZM218.009 486.773L218.548 493.752C320.732 485.86 397.175 396.603 389.302 294.385L382.322 294.922L375.343 295.46C382.623 389.975 311.941 472.497 217.47 479.794L218.009 486.773Z" fill="black" mask="url(#path-1-outside-1_425_1562)"/>
</svg>
