<svg width="573" height="453" viewBox="0 0 573 453" fill="none" xmlns="http://www.w3.org/2000/svg">
<mask id="path-1-outside-1_426_1589" maskUnits="userSpaceOnUse" x="-0.999023" y="-0.000976562" width="574" height="453" fill="black">
<rect fill="white" x="-0.999023" y="-0.000976562" width="574" height="453"/>
<path d="M267.855 7.75781C281.713 6.23119 299.439 7.31223 313.502 8.35059C452.882 18.642 575.001 134.32 564.62 279.193C562.094 305.627 553.548 335.949 531.921 353.219C503.965 375.543 465.825 380.322 441.532 350.896C436.103 363.279 425.949 378.972 417.385 389.187C385.907 426.728 348.832 440.139 301.477 444.521C276.936 446.529 243.909 442.923 220.837 434.926C176.934 419.708 150.299 390.957 130.224 350.395C116.399 369.571 96.6531 374.492 74.2109 369.694C29.1198 360.447 8.52698 316.235 7.13867 273.361C2.27773 123.22 126.348 16.4858 267.855 7.75781ZM288.673 28.959C283.35 28.9676 274.969 28.7515 269.95 29.5156C198.096 35.6802 130.692 63.1538 83.4619 119.393C47.1652 162.612 25.0721 220.308 30.0518 277.117C31.9213 298.446 38.5205 322.121 55.583 336.378C65.3525 344.541 80.0973 350.561 92.9658 349.406C99.5219 348.818 105.355 345.862 109.571 340.776C114.74 334.544 118.178 324.474 117.293 316.4C115.832 303.068 111.316 289.893 109.416 276.512C106.657 257.071 100.419 167.449 109.855 155.895C111.532 153.841 115.004 152.288 117.63 152.097C119.868 151.934 121.916 152.718 123.567 154.212C127.031 157.345 128.514 162.551 128.681 167.082C128.848 171.61 128.077 176.237 127.845 180.765C127.328 190.861 126.981 201.043 127.015 211.153C127.212 271.149 136.247 342.624 181.87 386.14C211.034 413.958 251.31 423.898 290.768 422.97C295.643 422.818 300.514 422.527 305.373 422.096C419.514 412.086 445.676 304.931 444.908 208.994C444.785 193.668 443.756 178.484 443.544 163.181C443.527 160.407 444.953 157.407 447.034 155.525C448.766 153.935 450.984 152.975 453.328 152.8C461.032 152.23 465.178 158.412 465.563 165.396C468.305 214.966 467.48 265.085 455.027 313.445C454.341 316.113 454.032 319.046 454.121 321.764C459.083 359.332 499.873 353.795 520.438 333.654C538.054 316.402 543.825 287.716 543.693 264.021C542.936 126.676 420.392 28.7512 288.673 28.959ZM279.01 255.295C309.408 250.539 346.852 268.065 309.276 296.597C306.397 298.783 301.307 300.7 297.919 302.047C298.012 314.138 299.968 324.64 308.968 333.925C319.343 344.629 337.994 343.724 347.82 332.786C352.916 327.113 354.165 315.369 363.97 315.294C366.935 315.268 369.785 316.444 371.869 318.554C379.891 326.655 369.364 343.11 362.939 349.409C353.471 358.591 340.726 363.608 327.54 363.342C311.709 363.052 300.686 357.536 289.916 346.275C288.371 344.401 287.488 342.504 285.628 342.286C284.012 344.26 282.18 346.488 280.399 348.298C270.888 358.07 257.822 363.567 244.187 363.534C232.412 363.525 217.944 358.635 209.789 350.154C204.088 343.931 197.014 334.884 196.947 326.192C196.9 319.999 202.189 315.05 208.378 315.387C218.004 315.777 219.23 328.466 224.692 333.806C234.696 343.587 251.916 344.599 262.2 334.729C271.919 325.4 273.675 314.557 274.137 302.063C270.184 300.674 263.179 297.535 260.145 294.743C231.482 268.369 253.518 257.77 279.01 255.295ZM361.131 159.75C394.952 156.336 407.465 205.341 373.521 216.622C337.884 218.314 328.021 170.255 361.131 159.75ZM201.851 159.743C214.15 158.355 224.613 163.54 228.941 175.544C231.753 183.48 231.358 192.2 227.843 199.85C223.422 209.274 217.162 213.216 207.946 216.544C194.592 217.335 184.508 213.099 180.094 199.416C177.539 191.362 178.294 182.624 182.191 175.127C186.757 166.344 192.831 162.494 201.851 159.743Z"/>
</mask>
<path d="M267.855 7.75781C281.713 6.23119 299.439 7.31223 313.502 8.35059C452.882 18.642 575.001 134.32 564.62 279.193C562.094 305.627 553.548 335.949 531.921 353.219C503.965 375.543 465.825 380.322 441.532 350.896C436.103 363.279 425.949 378.972 417.385 389.187C385.907 426.728 348.832 440.139 301.477 444.521C276.936 446.529 243.909 442.923 220.837 434.926C176.934 419.708 150.299 390.957 130.224 350.395C116.399 369.571 96.6531 374.492 74.2109 369.694C29.1198 360.447 8.52698 316.235 7.13867 273.361C2.27773 123.22 126.348 16.4858 267.855 7.75781ZM288.673 28.959C283.35 28.9676 274.969 28.7515 269.95 29.5156C198.096 35.6802 130.692 63.1538 83.4619 119.393C47.1652 162.612 25.0721 220.308 30.0518 277.117C31.9213 298.446 38.5205 322.121 55.583 336.378C65.3525 344.541 80.0973 350.561 92.9658 349.406C99.5219 348.818 105.355 345.862 109.571 340.776C114.74 334.544 118.178 324.474 117.293 316.4C115.832 303.068 111.316 289.893 109.416 276.512C106.657 257.071 100.419 167.449 109.855 155.895C111.532 153.841 115.004 152.288 117.63 152.097C119.868 151.934 121.916 152.718 123.567 154.212C127.031 157.345 128.514 162.551 128.681 167.082C128.848 171.61 128.077 176.237 127.845 180.765C127.328 190.861 126.981 201.043 127.015 211.153C127.212 271.149 136.247 342.624 181.87 386.14C211.034 413.958 251.31 423.898 290.768 422.97C295.643 422.818 300.514 422.527 305.373 422.096C419.514 412.086 445.676 304.931 444.908 208.994C444.785 193.668 443.756 178.484 443.544 163.181C443.527 160.407 444.953 157.407 447.034 155.525C448.766 153.935 450.984 152.975 453.328 152.8C461.032 152.23 465.178 158.412 465.563 165.396C468.305 214.966 467.48 265.085 455.027 313.445C454.341 316.113 454.032 319.046 454.121 321.764C459.083 359.332 499.873 353.795 520.438 333.654C538.054 316.402 543.825 287.716 543.693 264.021C542.936 126.676 420.392 28.7512 288.673 28.959ZM279.01 255.295C309.408 250.539 346.852 268.065 309.276 296.597C306.397 298.783 301.307 300.7 297.919 302.047C298.012 314.138 299.968 324.64 308.968 333.925C319.343 344.629 337.994 343.724 347.82 332.786C352.916 327.113 354.165 315.369 363.97 315.294C366.935 315.268 369.785 316.444 371.869 318.554C379.891 326.655 369.364 343.11 362.939 349.409C353.471 358.591 340.726 363.608 327.54 363.342C311.709 363.052 300.686 357.536 289.916 346.275C288.371 344.401 287.488 342.504 285.628 342.286C284.012 344.26 282.18 346.488 280.399 348.298C270.888 358.07 257.822 363.567 244.187 363.534C232.412 363.525 217.944 358.635 209.789 350.154C204.088 343.931 197.014 334.884 196.947 326.192C196.9 319.999 202.189 315.05 208.378 315.387C218.004 315.777 219.23 328.466 224.692 333.806C234.696 343.587 251.916 344.599 262.2 334.729C271.919 325.4 273.675 314.557 274.137 302.063C270.184 300.674 263.179 297.535 260.145 294.743C231.482 268.369 253.518 257.77 279.01 255.295ZM361.131 159.75C394.952 156.336 407.465 205.341 373.521 216.622C337.884 218.314 328.021 170.255 361.131 159.75ZM201.851 159.743C214.15 158.355 224.613 163.54 228.941 175.544C231.753 183.48 231.358 192.2 227.843 199.85C223.422 209.274 217.162 213.216 207.946 216.544C194.592 217.335 184.508 213.099 180.094 199.416C177.539 191.362 178.294 182.624 182.191 175.127C186.757 166.344 192.831 162.494 201.851 159.743Z" fill="black"/>
<path d="M267.855 7.75781L268.286 14.7445L268.455 14.7342L268.622 14.7157L267.855 7.75781ZM313.502 8.35059L314.017 1.36959L314.017 1.36959L313.502 8.35059ZM564.62 279.193L571.588 279.859L571.596 279.777L571.602 279.694L564.62 279.193ZM531.921 353.219L527.553 347.749L527.553 347.749L531.921 353.219ZM441.532 350.896L446.93 346.44L439.689 337.669L435.121 348.085L441.532 350.896ZM417.385 389.187L422.749 393.684L422.749 393.684L417.385 389.187ZM301.477 444.521L302.048 451.497L302.085 451.494L302.121 451.491L301.477 444.521ZM220.837 434.926L223.129 428.312H223.129L220.837 434.926ZM130.224 350.395L136.497 347.29L131.342 336.873L124.545 346.301L130.224 350.395ZM74.2109 369.694L75.6744 362.849L75.6459 362.843L75.6173 362.837L74.2109 369.694ZM7.13867 273.361L0.142338 273.588L0.142339 273.588L7.13867 273.361ZM288.673 28.959L288.662 21.959L288.662 21.959L288.673 28.959ZM269.95 29.5156L270.549 36.49L270.777 36.4704L271.004 36.4359L269.95 29.5156ZM83.4619 119.393L78.1015 114.891L78.1015 114.891L83.4619 119.393ZM30.0518 277.117L37.025 276.506L37.025 276.506L30.0518 277.117ZM55.583 336.378L60.0713 331.006H60.0713L55.583 336.378ZM92.9658 349.406L93.5915 356.378H93.5916L92.9658 349.406ZM109.571 340.776L104.183 336.308L104.183 336.309L109.571 340.776ZM117.293 316.4L110.335 317.163L110.335 317.163L117.293 316.4ZM109.416 276.512L102.485 277.495L102.486 277.496L109.416 276.512ZM109.855 155.895L115.277 160.322L115.277 160.322L109.855 155.895ZM117.63 152.097L117.123 145.115L117.121 145.115L117.63 152.097ZM123.567 154.212L128.263 149.021L128.263 149.021L123.567 154.212ZM128.681 167.082L121.685 167.339L121.685 167.34L128.681 167.082ZM127.845 180.765L120.854 180.406L120.854 180.407L127.845 180.765ZM127.015 211.153L134.015 211.13V211.13L127.015 211.153ZM181.87 386.14L186.702 381.074L186.702 381.074L181.87 386.14ZM290.768 422.97L290.932 429.968L290.959 429.967L290.985 429.966L290.768 422.97ZM305.373 422.096L304.762 415.122L304.754 415.123L305.373 422.096ZM444.908 208.994L451.908 208.938V208.938L444.908 208.994ZM443.544 163.181L436.544 163.224L436.544 163.251L436.545 163.278L443.544 163.181ZM447.034 155.525L451.728 160.718L451.748 160.7L451.768 160.682L447.034 155.525ZM453.328 152.8L452.812 145.819L452.807 145.819L453.328 152.8ZM465.563 165.396L458.574 165.783L458.574 165.783L465.563 165.396ZM455.027 313.445L448.248 311.7L448.248 311.7L455.027 313.445ZM454.121 321.764L447.125 321.993L447.136 322.338L447.181 322.68L454.121 321.764ZM520.438 333.654L515.54 328.653L515.54 328.653L520.438 333.654ZM543.693 264.021L536.693 264.06V264.06L543.693 264.021ZM279.01 255.295L279.686 262.262L279.89 262.242L280.092 262.211L279.01 255.295ZM309.276 296.597L313.509 302.172L313.51 302.172L309.276 296.597ZM297.919 302.047L295.333 295.542L290.882 297.311L290.919 302.101L297.919 302.047ZM308.968 333.925L313.994 329.053H313.994L308.968 333.925ZM347.82 332.786L353.028 337.464L353.028 337.464L347.82 332.786ZM363.97 315.294L364.023 322.294L364.031 322.294L363.97 315.294ZM371.869 318.554L366.89 323.474L366.895 323.479L371.869 318.554ZM362.939 349.409L367.813 354.434L367.826 354.421L367.84 354.408L362.939 349.409ZM327.54 363.342L327.681 356.343L327.668 356.343L327.54 363.342ZM289.916 346.275L284.514 350.727L284.678 350.927L284.857 351.114L289.916 346.275ZM285.628 342.286L286.443 335.334L282.638 334.888L280.212 337.852L285.628 342.286ZM280.399 348.298L275.409 343.389L275.396 343.402L275.383 343.416L280.399 348.298ZM244.187 363.534L244.203 356.534H244.192L244.187 363.534ZM209.789 350.154L204.627 354.883L204.685 354.945L204.743 355.006L209.789 350.154ZM196.947 326.192L189.947 326.245V326.246L196.947 326.192ZM208.378 315.387L207.998 322.376L208.046 322.379L208.094 322.381L208.378 315.387ZM224.692 333.806L229.586 328.801L229.586 328.8L224.692 333.806ZM262.2 334.729L267.047 339.779L267.048 339.779L262.2 334.729ZM274.137 302.063L281.132 302.322L281.322 297.169L276.458 295.459L274.137 302.063ZM260.145 294.743L255.405 299.894L255.405 299.895L260.145 294.743ZM361.131 159.75L360.428 152.785L359.706 152.858L359.014 153.078L361.131 159.75ZM373.521 216.622L373.853 223.614L374.815 223.569L375.729 223.265L373.521 216.622ZM201.851 159.743L201.065 152.787L200.425 152.86L199.808 153.048L201.851 159.743ZM228.941 175.544L235.54 173.206L235.533 173.188L235.526 173.17L228.941 175.544ZM227.843 199.85L234.18 202.823L234.192 202.798L234.203 202.773L227.843 199.85ZM207.946 216.544L208.36 223.532L209.371 223.472L210.324 223.128L207.946 216.544ZM180.094 199.416L173.421 201.532L173.427 201.549L173.432 201.565L180.094 199.416ZM182.191 175.127L188.402 178.356L188.402 178.355L182.191 175.127ZM267.855 7.75781L268.622 14.7157C281.74 13.2706 298.835 14.2867 312.987 15.3316L313.502 8.35059L314.017 1.36959C300.042 0.337744 281.686 -0.808174 267.089 0.799906L267.855 7.75781ZM313.502 8.35059L312.986 15.3316C449.261 25.3938 567.693 138.375 557.638 278.693L564.62 279.193L571.602 279.694C582.31 130.266 456.502 11.8903 314.017 1.36959L313.502 8.35059ZM564.62 279.193L557.652 278.527C555.174 304.449 546.887 332.31 527.553 347.749L531.921 353.219L536.289 358.689C560.21 339.587 569.013 306.805 571.588 279.859L564.62 279.193ZM531.921 353.219L527.553 347.749C514.529 358.149 499.452 364.193 485.219 364.465C471.203 364.733 457.664 359.442 446.93 346.44L441.532 350.896L436.134 355.353C449.693 371.777 467.37 378.809 485.487 378.463C503.386 378.12 521.356 370.613 536.289 358.689L531.921 353.219ZM441.532 350.896L435.121 348.085C429.997 359.771 420.224 374.906 412.021 384.689L417.385 389.187L422.749 393.684C431.674 383.039 442.208 366.786 447.943 353.708L441.532 350.896ZM417.385 389.187L412.021 384.689C382.091 420.384 347 433.279 300.832 437.55L301.477 444.521L302.121 451.491C350.664 446.999 389.724 433.071 422.749 393.684L417.385 389.187ZM301.477 444.521L300.906 437.544C277.233 439.481 245.192 435.959 223.129 428.312L220.837 434.926L218.544 441.54C242.627 449.887 276.639 453.577 302.048 451.497L301.477 444.521ZM220.837 434.926L223.129 428.312C181.374 413.839 155.973 386.642 136.497 347.29L130.224 350.395L123.95 353.499C144.624 395.272 172.494 425.578 218.544 441.54L220.837 434.926ZM130.224 350.395L124.545 346.301C118.442 354.768 111.253 359.83 103.317 362.367C95.2937 364.933 86.0319 365.063 75.6744 362.849L74.2109 369.694L72.7474 376.54C84.8322 379.123 96.6646 379.192 107.581 375.702C118.585 372.184 128.182 365.198 135.902 354.488L130.224 350.395ZM74.2109 369.694L75.6173 362.837C35.2059 354.549 15.4782 314.615 14.135 273.135L7.13867 273.361L0.142339 273.588C1.57578 317.855 23.0337 366.344 72.8046 376.552L74.2109 369.694ZM7.13867 273.361L14.135 273.135C9.4224 127.576 129.709 23.2919 268.286 14.7445L267.855 7.75781L267.425 0.77109C122.988 9.6798 -4.86693 118.865 0.142338 273.588L7.13867 273.361ZM288.673 28.959L288.662 21.959C283.841 21.9668 274.599 21.7272 268.897 22.5954L269.95 29.5156L271.004 36.4359C275.339 35.7758 282.86 35.9684 288.684 35.959L288.673 28.959ZM269.95 29.5156L269.352 22.5412C196.133 28.8229 126.81 56.8922 78.1015 114.891L83.4619 119.393L88.8223 123.894C134.575 69.4154 200.059 42.5375 270.549 36.49L269.95 29.5156ZM83.4619 119.393L78.1015 114.891C40.8227 159.28 17.9099 218.763 23.0785 277.728L30.0518 277.117L37.025 276.506C32.2344 221.853 53.5077 165.945 88.8223 123.894L83.4619 119.393ZM30.0518 277.117L23.0785 277.728C24.9992 299.641 31.8571 325.676 51.0947 341.75L55.583 336.378L60.0713 331.006C45.1839 318.567 38.8434 297.251 37.025 276.506L30.0518 277.117ZM55.583 336.378L51.0947 341.75C61.9036 350.781 78.4269 357.739 93.5915 356.378L92.9658 349.406L92.3402 342.434C81.7676 343.383 68.8014 338.301 60.0713 331.006L55.583 336.378ZM92.9658 349.406L93.5916 356.378C101.93 355.63 109.506 351.823 114.96 345.244L109.571 340.776L104.183 336.309C101.204 339.901 97.1135 342.006 92.3401 342.434L92.9658 349.406ZM109.571 340.776L114.96 345.245C121.194 337.727 125.366 325.809 124.251 315.638L117.293 316.4L110.335 317.163C110.99 323.139 108.286 331.361 104.183 336.308L109.571 340.776ZM117.293 316.4L124.251 315.638C123.469 308.5 121.88 301.494 120.336 294.883C118.762 288.143 117.243 281.844 116.347 275.528L109.416 276.512L102.486 277.496C103.489 284.561 105.178 291.54 106.703 298.067C108.257 304.721 109.656 310.968 110.335 317.163L117.293 316.4ZM109.416 276.512L116.347 275.528C115.018 266.165 112.78 239.186 112.06 213.053C111.7 200.004 111.724 187.363 112.402 177.354C112.741 172.337 113.234 168.154 113.875 164.985C114.195 163.404 114.527 162.2 114.842 161.335C115.18 160.409 115.382 160.193 115.277 160.322L109.855 155.895L104.434 151.467C102.076 154.353 100.896 158.538 100.153 162.209C99.3396 166.23 98.7932 171.096 98.4336 176.409C97.7127 187.062 97.7 200.208 98.0649 213.439C98.7937 239.865 101.055 267.417 102.485 277.495L109.416 276.512ZM109.855 155.895L115.277 160.322C115.237 160.372 115.294 160.291 115.521 160.126C115.738 159.969 116.034 159.79 116.394 159.618C117.178 159.246 117.856 159.099 118.139 159.078L117.63 152.097L117.121 145.115C114.778 145.286 112.407 146.012 110.379 146.976C108.385 147.925 106.132 149.387 104.433 151.467L109.855 155.895ZM117.63 152.097L118.137 159.078C118.272 159.068 118.357 159.086 118.43 159.113C118.511 159.143 118.665 159.216 118.872 159.403L123.567 154.212L128.263 149.021C125.324 146.362 121.434 144.802 117.123 145.115L117.63 152.097ZM123.567 154.212L118.872 159.403C120.354 160.744 121.553 163.735 121.685 167.339L128.681 167.082L135.676 166.825C135.475 161.366 133.708 153.946 128.263 149.021L123.567 154.212ZM128.681 167.082L121.685 167.34C121.752 169.153 121.634 171.089 121.439 173.311C121.256 175.396 120.979 177.974 120.854 180.406L127.845 180.765L134.836 181.123C134.943 179.028 135.167 177.029 135.386 174.535C135.592 172.18 135.776 169.538 135.676 166.824L128.681 167.082ZM127.845 180.765L120.854 180.407C120.333 190.579 119.981 200.896 120.015 211.177L127.015 211.153L134.015 211.13C133.982 201.189 134.322 191.144 134.836 181.123L127.845 180.765ZM127.015 211.153L120.015 211.176C120.213 271.26 129.122 345.5 177.039 391.205L181.87 386.14L186.702 381.074C143.373 339.747 134.212 271.037 134.015 211.13L127.015 211.153ZM181.87 386.14L177.039 391.205C207.985 420.724 250.33 430.923 290.932 429.968L290.768 422.97L290.603 415.972C252.29 416.873 214.083 407.192 186.702 381.074L181.87 386.14ZM290.768 422.97L290.985 429.966C295.994 429.811 300.999 429.511 305.992 429.068L305.373 422.096L304.754 415.123C300.029 415.543 295.292 415.826 290.55 415.973L290.768 422.97ZM305.373 422.096L305.985 429.069C365.659 423.836 402.738 392.947 424.449 350.984C445.924 309.477 452.296 257.372 451.908 208.938L444.908 208.994L437.908 209.05C438.289 256.553 431.963 305.994 412.014 344.551C392.301 382.652 359.229 410.346 304.762 415.122L305.373 422.096ZM444.908 208.994L451.908 208.938C451.845 201.151 451.553 193.421 451.254 185.804C450.954 178.155 450.648 170.629 450.543 163.084L443.544 163.181L436.545 163.278C436.652 171.036 436.966 178.754 437.265 186.353C437.564 193.986 437.848 201.511 437.908 209.051L444.908 208.994ZM443.544 163.181L450.544 163.137C450.54 162.533 450.991 161.385 451.728 160.718L447.034 155.525L442.34 150.333C438.915 153.429 436.513 158.281 436.544 163.224L443.544 163.181ZM447.034 155.525L451.768 160.682C452.342 160.156 453.075 159.838 453.849 159.78L453.328 152.8L452.807 145.819C448.892 146.111 445.191 147.715 442.3 150.369L447.034 155.525ZM453.328 152.8L453.844 159.781C455.491 159.659 456.311 160.174 456.915 160.867C457.703 161.77 458.445 163.449 458.574 165.783L465.563 165.396L472.553 165.01C472.296 160.359 470.772 155.455 467.465 151.664C463.974 147.662 458.869 145.371 452.812 145.819L453.328 152.8ZM465.563 165.396L458.574 165.783C461.3 215.074 460.438 264.361 448.248 311.7L455.027 313.445L461.806 315.191C474.522 265.808 475.31 214.857 472.553 165.01L465.563 165.396ZM455.027 313.445L448.248 311.7C447.391 315.031 447.015 318.63 447.125 321.993L454.121 321.764L461.117 321.534C461.049 319.463 461.29 317.195 461.806 315.191L455.027 313.445ZM454.121 321.764L447.181 322.68C448.592 333.361 452.667 341.687 458.949 347.458C465.206 353.206 473.049 355.865 481.014 356.338C496.656 357.266 513.857 349.897 525.335 338.655L520.438 333.654L515.54 328.653C506.453 337.552 492.977 343.023 481.843 342.362C476.419 342.04 471.849 340.299 468.42 337.148C465.016 334.021 462.131 328.951 461.061 320.847L454.121 321.764ZM520.438 333.654L525.335 338.655C544.987 319.41 550.828 288.34 550.693 263.983L543.693 264.021L536.693 264.06C536.821 287.093 531.12 313.395 515.54 328.653L520.438 333.654ZM543.693 264.021L550.693 263.983C549.91 122.027 423.435 21.7463 288.662 21.959L288.673 28.959L288.684 35.959C417.349 35.756 535.961 131.325 536.693 264.06L543.693 264.021ZM279.01 255.295L280.092 262.211C286.874 261.15 294.09 261.334 300.492 262.597C307.003 263.882 312.059 266.155 315.042 268.747C317.761 271.109 318.445 273.322 317.856 275.851C317.106 279.077 313.942 284.265 305.043 291.022L309.276 296.597L313.51 302.172C323.399 294.663 329.645 286.96 331.492 279.024C333.501 270.391 329.969 263.17 324.224 258.179C318.744 253.417 311.088 250.418 303.202 248.862C295.209 247.285 286.344 247.062 277.928 248.379L279.01 255.295ZM309.276 296.597L305.044 291.021C304.263 291.614 302.869 292.378 300.927 293.248C299.047 294.09 297.124 294.83 295.333 295.542L297.919 302.047L300.505 308.552C302.102 307.917 304.418 307.025 306.65 306.025C308.819 305.053 311.41 303.765 313.509 302.172L309.276 296.597ZM297.919 302.047L290.919 302.101C291.018 314.975 293.125 327.638 303.941 338.797L308.968 333.925L313.994 329.053C306.811 321.642 305.006 313.302 304.919 301.993L297.919 302.047ZM308.968 333.925L303.941 338.797C317.296 352.575 340.644 351.25 353.028 337.464L347.82 332.786L342.613 328.108C335.345 336.199 321.389 336.683 313.994 329.053L308.968 333.925ZM347.82 332.786L353.028 337.464C354.934 335.342 356.304 332.866 357.327 330.897C358.495 328.648 359.192 327.122 360.145 325.52C361.861 322.637 362.8 322.303 364.023 322.294L363.97 315.294L363.916 308.294C355.335 308.36 350.747 313.936 348.114 318.361C346.892 320.414 345.709 322.892 344.903 324.444C343.952 326.274 343.255 327.394 342.613 328.108L347.82 332.786ZM363.97 315.294L364.031 322.294C365.103 322.284 366.135 322.71 366.89 323.474L371.869 318.554L376.849 313.634C373.434 310.178 368.766 308.252 363.909 308.294L363.97 315.294ZM371.869 318.554L366.895 323.479C367.706 324.298 368.579 326.57 366.348 331.995C364.318 336.931 360.657 341.844 358.039 344.411L362.939 349.409L367.84 354.408C371.647 350.675 376.461 344.212 379.296 337.32C381.928 330.918 384.054 320.911 376.843 313.629L371.869 318.554ZM362.939 349.409L358.066 344.384C349.939 352.266 338.999 356.572 327.681 356.343L327.54 363.342L327.399 370.34C342.453 370.645 357.004 364.917 367.813 354.434L362.939 349.409ZM327.54 363.342L327.668 356.343C313.916 356.091 304.61 351.511 294.975 341.437L289.916 346.275L284.857 351.114C296.762 363.56 309.502 370.013 327.412 370.341L327.54 363.342ZM289.916 346.275L295.318 341.824C295.072 341.525 294.843 341.215 294.483 340.729C294.176 340.313 293.696 339.662 293.149 339.039C292.021 337.755 289.877 335.736 286.443 335.334L285.628 342.286L284.813 349.239C284.486 349.2 284.157 349.121 283.841 349.003C283.528 348.887 283.27 348.748 283.07 348.62C282.697 348.379 282.546 348.182 282.632 348.28C282.731 348.393 282.878 348.581 283.229 349.055C283.527 349.459 283.988 350.089 284.514 350.727L289.916 346.275ZM285.628 342.286L280.212 337.852C278.559 339.871 276.927 341.845 275.409 343.389L280.399 348.298L285.39 353.206C287.432 351.13 289.464 348.65 291.044 346.72L285.628 342.286ZM280.399 348.298L275.383 343.416C267.194 351.829 255.943 356.562 244.203 356.534L244.187 363.534L244.17 370.534C259.7 370.572 274.583 364.31 285.416 353.18L280.399 348.298ZM244.187 363.534L244.192 356.534C233.838 356.527 221.371 352.1 214.835 345.303L209.789 350.154L204.743 355.006C214.516 365.17 230.986 370.524 244.181 370.534L244.187 363.534ZM209.789 350.154L214.951 345.426C212.232 342.458 209.391 339.033 207.249 335.483C205.06 331.855 203.967 328.692 203.947 326.139L196.947 326.192L189.947 326.246C189.994 332.385 192.472 338.091 195.262 342.715C198.099 347.417 201.645 351.627 204.627 354.883L209.789 350.154ZM196.947 326.192L203.947 326.139C203.931 324.068 205.753 322.254 207.998 322.376L208.378 315.387L208.758 308.397C198.625 307.846 189.869 315.93 189.947 326.245L196.947 326.192ZM208.378 315.387L208.094 322.381C209.041 322.419 210.053 322.728 211.999 326.179C213.13 328.185 213.634 329.421 215.01 332.013C216.111 334.087 217.624 336.685 219.799 338.811L224.692 333.806L229.586 328.8C229.03 328.257 228.341 327.266 227.375 325.447C226.684 324.146 225.255 321.184 224.194 319.302C221.754 314.976 217.34 308.745 208.662 308.392L208.378 315.387ZM224.692 333.806L219.799 338.811C232.215 350.951 253.753 352.538 267.047 339.779L262.2 334.729L257.353 329.678C250.079 336.66 237.177 336.223 229.586 328.801L224.692 333.806ZM262.2 334.729L267.048 339.779C278.799 328.498 280.653 315.293 281.132 302.322L274.137 302.063L267.141 301.805C266.697 313.821 265.038 322.301 257.353 329.679L262.2 334.729ZM274.137 302.063L276.458 295.459C274.757 294.862 272.285 293.843 269.917 292.664C267.399 291.409 265.636 290.284 264.884 289.592L260.145 294.743L255.405 299.895C257.687 301.994 260.944 303.835 263.675 305.195C266.556 306.63 269.563 307.876 271.816 308.668L274.137 302.063ZM260.145 294.743L264.884 289.592C258.075 283.327 255.083 278.694 254.062 275.605C253.21 273.027 253.72 271.673 254.689 270.487C256.035 268.84 258.836 267.004 263.513 265.427C268.05 263.898 273.644 262.849 279.686 262.262L279.01 255.295L278.333 248.328C271.629 248.979 264.909 250.183 259.041 252.161C253.312 254.092 247.616 257.018 243.849 261.627C239.706 266.697 238.488 273.093 240.769 279.997C242.881 286.391 247.882 292.973 255.405 299.894L260.145 294.743ZM361.131 159.75L361.834 166.715C374.626 165.423 383.464 173.818 385.924 184.278C388.34 194.551 384.324 205.656 371.314 209.979L373.521 216.622L375.729 223.265C396.662 216.308 403.362 197.27 399.552 181.073C395.786 165.063 381.457 150.662 360.428 152.785L361.131 159.75ZM373.521 216.622L373.19 209.63C359.139 210.297 350.537 201.412 348.394 191.307C346.259 181.24 350.567 170.446 363.248 166.422L361.131 159.75L359.014 153.078C338.585 159.559 331.27 178.047 334.698 194.212C338.119 210.34 352.266 224.639 373.853 223.614L373.521 216.622ZM201.851 159.743L202.636 166.699C207.617 166.137 211.783 166.951 214.971 168.732C218.088 170.474 220.723 173.387 222.356 177.918L228.941 175.544L235.526 173.17C232.832 165.697 228.071 160.015 221.8 156.511C215.599 153.046 208.384 151.961 201.065 152.787L201.851 159.743ZM228.941 175.544L222.343 177.882C224.546 184.099 224.237 190.932 221.482 196.927L227.843 199.85L234.203 202.773C238.48 193.467 238.96 182.86 235.54 173.206L228.941 175.544ZM227.843 199.85L221.505 196.877C219.707 200.709 217.685 203.15 215.357 204.987C212.937 206.896 209.869 208.407 205.569 209.96L207.946 216.544L210.324 223.128C215.239 221.353 219.909 219.229 224.028 215.978C228.239 212.656 231.557 208.414 234.18 202.823L227.843 199.85ZM207.946 216.544L207.532 209.556C201.604 209.908 197.245 209.079 194.102 207.309C191.143 205.642 188.517 202.726 186.756 197.267L180.094 199.416L173.432 201.565C176.085 209.789 180.707 215.832 187.232 219.507C193.573 223.078 200.934 223.972 208.36 223.532L207.946 216.544ZM180.094 199.416L186.766 197.3C184.774 191.018 185.362 184.203 188.402 178.356L182.191 175.127L175.981 171.898C171.225 181.044 170.305 191.706 173.421 201.532L180.094 199.416ZM182.191 175.127L188.402 178.355C190.264 174.773 192.275 172.474 194.541 170.78C196.872 169.038 199.809 167.684 203.893 166.439L201.851 159.743L199.808 153.048C194.873 154.553 190.263 156.499 186.16 159.566C181.993 162.68 178.684 166.697 175.98 171.898L182.191 175.127Z" fill="black" mask="url(#path-1-outside-1_426_1589)"/>
</svg>
