<svg width="673" height="231" viewBox="0 0 673 231" fill="none" xmlns="http://www.w3.org/2000/svg">
<path d="M203.438 149V83.75H228.494C236.614 83.75 242.994 85.606 247.634 89.318C252.274 92.972 254.594 98.192 254.594 104.978C254.594 111.764 252.274 117.013 247.634 120.725C242.994 124.379 236.614 126.206 228.494 126.206H218.576V149H203.438ZM218.576 113.417H228.494C231.568 113.417 234.062 112.721 235.976 111.329C237.948 109.937 238.934 107.82 238.934 104.978C238.934 102.078 237.948 99.961 235.976 98.627C234.062 97.235 231.568 96.539 228.494 96.539H218.576V113.417ZM282.864 150.305C277.818 150.305 273.439 149.261 269.727 147.173C266.015 145.027 263.115 142.011 261.027 138.125C258.997 134.181 257.982 129.541 257.982 124.205C257.982 118.869 258.997 114.258 261.027 110.372C263.057 106.486 265.899 103.47 269.553 101.324C273.265 99.178 277.615 98.105 282.603 98.105C287.765 98.105 292.144 99.265 295.74 101.585C299.394 103.905 302.12 107.269 303.918 111.677C305.774 116.085 306.557 121.392 306.267 127.598H272.163C272.627 131.31 273.845 134.21 275.817 136.298C277.789 138.386 280.341 139.43 283.473 139.43C286.025 139.43 288.113 138.821 289.737 137.603C291.361 136.327 292.376 134.79 292.782 132.992H305.919C305.339 136.588 303.976 139.691 301.83 142.301C299.742 144.853 297.074 146.825 293.826 148.217C290.578 149.609 286.924 150.305 282.864 150.305ZM282.69 108.893C279.848 108.893 277.499 109.821 275.643 111.677C273.787 113.475 272.627 115.911 272.163 118.985H292.347C292.115 115.331 291.042 112.75 289.128 111.242C287.214 109.676 285.068 108.893 282.69 108.893ZM331.898 149C327.838 149 324.561 147.782 322.067 145.346C319.631 142.852 318.413 139.575 318.413 135.515V110.72H310.235V99.41H318.413V86.36H332.507V99.41H342.599V110.72H332.507V133.079C332.507 134.181 332.855 135.08 333.551 135.776C334.247 136.472 335.117 136.82 336.161 136.82H344.078V149H331.898ZM351.525 149V83.75H394.938V96.887H366.663V110.981H393.285V123.77H366.663V149H351.525ZM409.939 94.016C407.677 94.016 405.763 93.349 404.197 92.015C402.689 90.681 401.935 88.941 401.935 86.795C401.935 84.707 402.689 82.996 404.197 81.662C405.763 80.328 407.677 79.661 409.939 79.661C412.143 79.661 413.999 80.328 415.507 81.662C417.073 82.996 417.856 84.707 417.856 86.795C417.856 88.941 417.073 90.681 415.507 92.015C413.999 93.349 412.143 94.016 409.939 94.016ZM402.892 149V99.41H416.986V149H402.892ZM425.912 149V119.855C425.912 115.389 426.811 111.532 428.609 108.284C430.465 105.036 433.075 102.542 436.439 100.802C439.803 99.004 443.776 98.105 448.358 98.105C452.94 98.105 456.913 99.004 460.277 100.802C463.641 102.542 466.222 105.036 468.02 108.284C469.876 111.532 470.804 115.389 470.804 119.855V149H456.71V120.029C456.71 116.897 455.927 114.49 454.361 112.808C452.853 111.126 450.852 110.285 448.358 110.285C445.922 110.285 443.921 111.126 442.355 112.808C440.789 114.49 440.006 116.897 440.006 120.029V149H425.912ZM501.349 150.305C496.767 150.305 492.707 149.203 489.169 146.999C485.689 144.737 482.934 141.634 480.904 137.69C478.932 133.688 477.946 129.106 477.946 123.944C477.946 118.898 478.874 114.432 480.73 110.546C482.586 106.66 485.167 103.615 488.473 101.411C491.779 99.207 495.549 98.105 499.783 98.105C502.741 98.105 505.438 98.627 507.874 99.671C510.368 100.715 512.427 102.281 514.051 104.369V83.75H528.145V149H516.226L515.182 142.214C512.166 147.608 507.555 150.305 501.349 150.305ZM503.437 137.951C506.685 137.951 509.266 136.675 511.18 134.123C513.094 131.571 514.051 128.12 514.051 123.77C514.051 119.42 513.094 115.998 511.18 113.504C509.266 110.952 506.685 109.676 503.437 109.676C500.015 109.676 497.289 110.952 495.259 113.504C493.287 115.998 492.301 119.42 492.301 123.77C492.301 128.12 493.287 131.571 495.259 134.123C497.289 136.675 500.015 137.951 503.437 137.951ZM560.347 150.305C555.301 150.305 550.922 149.261 547.21 147.173C543.498 145.027 540.598 142.011 538.51 138.125C536.48 134.181 535.465 129.541 535.465 124.205C535.465 118.869 536.48 114.258 538.51 110.372C540.54 106.486 543.382 103.47 547.036 101.324C550.748 99.178 555.098 98.105 560.086 98.105C565.248 98.105 569.627 99.265 573.223 101.585C576.877 103.905 579.603 107.269 581.401 111.677C583.257 116.085 584.04 121.392 583.75 127.598H549.646C550.11 131.31 551.328 134.21 553.3 136.298C555.272 138.386 557.824 139.43 560.956 139.43C563.508 139.43 565.596 138.821 567.22 137.603C568.844 136.327 569.859 134.79 570.265 132.992H583.402C582.822 136.588 581.459 139.691 579.313 142.301C577.225 144.853 574.557 146.825 571.309 148.217C568.061 149.609 564.407 150.305 560.347 150.305ZM560.173 108.893C557.331 108.893 554.982 109.821 553.126 111.677C551.27 113.475 550.11 115.911 549.646 118.985H569.83C569.598 115.331 568.525 112.75 566.611 111.242C564.697 109.676 562.551 108.893 560.173 108.893ZM590.748 149V120.29C590.748 113.156 592.662 107.675 596.49 103.847C600.376 100.019 605.915 98.105 613.107 98.105C613.861 98.105 615.05 98.163 616.674 98.279C618.298 98.337 619.922 98.54 621.546 98.888V110.981C620.444 110.807 619.4 110.662 618.414 110.546C617.428 110.372 616.326 110.285 615.108 110.285C613.31 110.285 611.628 110.546 610.062 111.068C608.496 111.59 607.22 112.576 606.234 114.026C605.306 115.476 604.842 117.593 604.842 120.377V149H590.748Z" fill="#12355B"/>
<path fill-rule="evenodd" clip-rule="evenodd" d="M85.6187 50.6835C87.011 50.0732 88.3253 49.7549 89.816 50.2265C94.0692 51.5724 100.349 62.695 104.994 65.3847C106.093 66.0213 107.154 66.2341 108.38 66.3905C108.539 71.0129 108.379 76.2923 108.383 81.0106L108.393 109.679L108.436 181.74C107.985 181.713 107.534 181.677 107.085 181.632C101.773 181.073 99.8016 177.781 96.5689 173.773C94.0283 170.624 91.5335 167.335 88.9752 164.193C84.8621 159.142 88.8943 156.132 92.2955 152.768C97.9657 147.311 102.099 139.963 102.871 131.782C103.536 125.113 102.745 117.823 98.5172 112.475C95.5113 108.562 91.3738 106.151 86.6002 105.703C81.5861 105.093 73.0182 106.635 72.608 113.501C72.1764 120.727 80.9026 121.402 85.2535 123.049C90.6949 125.109 95.2505 130.085 94.6793 136.508C94.1896 142.015 90.5105 146.03 86.7779 149.517C84.7864 151.393 80.7607 154.197 78.3404 151.523C76.3175 149.288 74.3675 146.894 72.4117 144.583L60.2193 130.218L43.9742 111.266C38.3731 104.74 30.9992 98.5772 32.1129 88.7479C33.0241 80.7083 37.8138 78.5364 43.7418 75.0429L57.1871 67.1894L77.6676 55.2548C80.2853 53.7557 82.8764 51.8854 85.6187 50.6835ZM118.239 58.3436C121.57 54.952 125.031 48.2899 130.386 50.4882C133.269 51.672 137.087 54.1175 139.819 55.7108C146.552 59.6289 153.263 63.5923 159.95 67.6005C166.13 71.2607 172.539 74.5499 178.552 78.5282C185.929 83.4098 185.956 93.9514 181.311 100.937C178.865 104.617 175.907 107.67 173.031 110.962C170.026 114.443 167.045 117.949 164.089 121.477L146.175 142.521C143.475 145.645 140.883 149.084 137.862 151.858C135.899 153.66 132.531 152.049 130.752 150.593C124.385 145.383 118.005 137.047 123.868 128.545C125.123 126.696 126.777 125.194 128.689 124.166C134.106 121.292 144.673 121.406 143.467 112.549C142.548 105.788 133.429 105.1 128.573 106.066C123.812 107.014 120.011 109.374 117.187 113.652C109.541 126.161 113.905 143.807 124.395 152.974C125.84 154.236 127.64 155.844 128.579 157.529C129.645 159.786 129.307 161.891 127.901 163.823C126.19 166.176 124.141 168.727 122.281 170.924C120.121 173.474 117.214 177.533 114.697 179.492C113.336 180.566 111.755 181.285 110.086 181.593C109.633 181.675 108.892 181.739 108.436 181.74L108.394 109.679L108.384 81.0106C108.384 80.421 108.386 79.8225 108.389 79.2177C108.415 74.983 108.52 70.4352 108.381 66.3905C113.2 65.4248 115.048 61.5929 118.239 58.3436Z" fill="#E8842E"/>
</svg>
