<svg width="18" height="18" viewBox="0 0 18 18" fill="none" xmlns="http://www.w3.org/2000/svg">
<path d="M5.66982 12.7368C5.91482 12.9098 6.20682 13.0018 6.50582 13.0008V12.9968C6.78813 12.9976 7.06444 12.9153 7.30037 12.7603C7.53631 12.6052 7.72146 12.3843 7.83282 12.1248L8.44582 10.2608C8.58732 9.83854 8.82516 9.45496 9.14053 9.14046C9.45589 8.82596 9.84013 8.58918 10.2628 8.44884L12.0408 7.87084C12.3277 7.77072 12.5757 7.58252 12.7493 7.33311C12.9228 7.0837 13.0132 6.78582 13.0074 6.48201C13.0017 6.17819 12.9001 5.88396 12.7171 5.64131C12.5342 5.39867 12.2793 5.22001 11.9888 5.13084L10.2338 4.56084C9.8094 4.41937 9.42377 4.18097 9.10751 3.86454C8.79125 3.5481 8.55306 3.16234 8.41182 2.73784L7.83382 0.960844C7.73302 0.677818 7.54656 0.433219 7.30035 0.261033C7.05415 0.0888481 6.76043 -0.00237238 6.45999 4.69059e-05C6.15956 0.00246619 5.86735 0.0984052 5.62395 0.274533C5.38055 0.450661 5.19805 0.698231 5.10182 0.982843L4.51882 2.77484C4.37804 3.187 4.14561 3.56186 3.83903 3.87122C3.53245 4.18057 3.15969 4.41636 2.74882 4.56084L0.97182 5.13084C0.686612 5.22953 0.439493 5.4151 0.265187 5.66147C0.090882 5.90785 -0.00184795 6.20264 2.79089e-05 6.50444C0.00190377 6.80623 0.098291 7.09985 0.275645 7.34404C0.453 7.58823 0.702407 7.77071 0.98882 7.86584L2.74282 8.43484C3.16719 8.57731 3.55266 8.81641 3.86885 9.13328C4.18504 9.45016 4.42329 9.83616 4.56482 10.2608L5.14282 12.0358C5.24182 12.3188 5.42582 12.5638 5.66982 12.7368ZM5.29582 8.48584C5.18444 8.34001 5.06315 8.20202 4.93282 8.07284H4.93582C4.45278 7.58979 3.8639 7.22585 3.21582 7.00984L1.61582 6.50184L3.22682 5.97784C3.86435 5.7571 4.44259 5.39271 4.91682 4.91284C5.38894 4.42988 5.74493 3.8458 5.95782 3.20484L6.47282 1.62284L6.98882 3.20984C7.20456 3.85661 7.56831 4.44409 8.05111 4.9255C8.53391 5.40692 9.12243 5.76897 9.76982 5.98284L11.3898 6.50484L9.79982 7.01984C9.15351 7.23485 8.56625 7.59762 8.0847 8.07934C7.60315 8.56106 7.24059 9.14846 7.02582 9.79484L6.51082 11.3768L5.99582 9.79184C5.83799 9.32007 5.60131 8.87848 5.29582 8.48584ZM13.3368 17.7828C13.146 17.6469 13.0026 17.4545 12.9268 17.2328L12.5988 16.2268C12.5352 16.0354 12.4279 15.8613 12.2854 15.7185C12.1429 15.5756 11.9691 15.4679 11.7778 15.4038L10.7868 15.0808C10.5601 15.004 10.363 14.8584 10.223 14.6643C10.083 14.4702 10.0071 14.2372 10.0058 13.9978C10.0055 13.7599 10.0797 13.5278 10.218 13.3341C10.3563 13.1404 10.5517 12.9949 10.7768 12.9178L11.7828 12.5918C11.9699 12.5253 12.1393 12.4169 12.278 12.2747C12.4167 12.1326 12.521 11.9605 12.5828 11.7718L12.9068 10.7808C12.983 10.5566 13.127 10.3616 13.3189 10.2227C13.5108 10.0839 13.741 10.0081 13.9779 10.0058C14.2147 10.0035 14.4464 10.0748 14.6409 10.2099C14.8355 10.345 14.9832 10.5371 15.0638 10.7598L15.3928 11.7738C15.4572 11.9639 15.5648 12.1365 15.7071 12.2781C15.8493 12.4196 16.0224 12.5264 16.2128 12.5898L17.2048 12.9128C17.4335 12.9844 17.6339 13.126 17.7775 13.3178C17.9211 13.5096 18.0007 13.7417 18.0051 13.9813C18.0094 14.2208 17.9382 14.4557 17.8015 14.6525C17.6649 14.8493 17.4698 14.9981 17.2438 15.0778L16.2298 15.4068C16.0392 15.4712 15.866 15.5789 15.7241 15.7216C15.5821 15.8642 15.4752 16.0379 15.4118 16.2288L15.0898 17.2178C15.0118 17.4478 14.8638 17.6478 14.6648 17.7878C14.4707 17.9258 14.2382 17.9996 14 17.9987C13.7618 17.9978 13.5299 17.9223 13.3368 17.7828ZM12.3068 13.9998C12.6993 14.1405 13.0554 14.367 13.3492 14.6628C13.643 14.9587 13.867 15.3164 14.0048 15.7098C14.1442 15.318 14.369 14.9622 14.6631 14.6681C14.9571 14.374 15.313 14.1492 15.7048 14.0098C15.3092 13.8713 14.9496 13.646 14.6523 13.3505C14.355 13.055 14.1277 12.6967 13.9868 12.3018C13.8492 12.6916 13.6271 13.0461 13.3363 13.3399C13.0455 13.6336 12.6932 13.8594 12.3048 14.0008" fill="white"/>
</svg>
