<svg width="494" height="435" viewBox="0 0 494 435" fill="none" xmlns="http://www.w3.org/2000/svg">
<path d="M244.807 163.132C247.219 163.066 249.673 163.161 251.758 163.231L251.757 163.232C265.793 163.681 279.671 166.306 292.895 171.015L294.173 171.477L294.183 171.48C310.267 177.418 328.961 188.491 346.258 200.862C363.061 212.881 378.957 226.423 390.321 238.31L391.407 239.455L391.441 239.491L391.476 239.528C418.143 268.731 436.471 300.742 435.002 342.42V342.421C433.61 381.87 416.031 409.799 389.361 423.98C362.963 438.018 328.903 437.928 295.463 424.218C291.206 422.472 287.269 420.454 283.586 418.507C279.823 416.518 276.422 414.658 272.835 412.961L272.832 412.96C265.507 409.49 257.554 407.544 249.455 407.24C239.093 407.145 229.442 408.886 220.47 413.276H220.469C217.525 414.716 214.684 416.277 211.574 417.944C208.529 419.576 205.288 421.277 201.862 422.788H201.861C187.404 429.166 171.405 433.505 155.255 434.215C132.551 435.214 107.888 430.277 89.4873 413.896L88.6162 413.107C68.4106 394.515 59.9958 367.864 59.0508 342.141C57.6167 303.11 75.8531 268.171 101.19 241.014C106.887 234.906 112.913 228.875 119.269 223.262C140.163 204.807 174.876 180.014 202.12 170.611C216.139 165.773 230.281 163.648 244.75 163.134L244.807 163.132ZM152.269 427.308C151.447 427.325 150.625 427.336 149.802 427.337C150.625 427.336 151.447 427.325 152.269 427.308ZM157.06 427.106C156.356 427.152 155.651 427.19 154.947 427.221C154.122 427.257 153.295 427.284 152.467 427.304C152.95 427.293 153.433 427.28 153.916 427.263L154.947 427.222C155.651 427.191 156.356 427.152 157.06 427.106ZM195.595 417.846C195.803 417.76 196.012 417.674 196.22 417.588C196.012 417.674 195.803 417.76 195.595 417.846ZM187.979 403.398C186.538 403.952 185.076 404.482 183.598 404.988C185.074 404.483 186.533 403.954 187.972 403.401L187.979 403.398ZM256.229 193.638C251.218 193.186 246.179 193.092 241.152 193.356C215.897 195.431 201.435 201.629 179.683 215.62L179.665 215.632C156.768 230.263 132.86 248.577 115.314 270.395C97.8203 292.149 86.9647 316.971 89.1855 344.963C90.6678 362.967 96.6314 380.883 109.52 391.621C130.939 409.466 164.326 406.369 190.78 394.672L190.782 394.671C193.461 393.487 196.035 392.135 198.768 390.659C201.437 389.217 204.344 387.609 207.364 386.131L207.378 386.125C221.507 379.249 237.179 376.184 252.841 377.227L254.356 377.341L254.405 377.345L254.454 377.35C265.258 378.405 276.238 381.037 286.327 386.135L287.301 386.637L287.304 386.638C294.173 390.241 299.663 393.433 306.072 396.047H306.071C329.884 405.754 353.473 406.966 371.301 399.376C388.649 391.99 401.824 375.734 404.364 347.323C406.979 318.081 396.522 293.096 379.274 271.352C361.931 249.486 337.935 231.192 314.179 215.707H314.178C305.111 209.925 296.527 204.71 287.176 200.936L287.175 200.935C277.314 196.951 266.902 194.493 256.301 193.645L256.265 193.642L256.229 193.638ZM192.334 401.629C191.649 401.923 190.957 402.21 190.261 402.493C190.954 402.211 191.642 401.926 192.324 401.634L192.334 401.629ZM283.206 392.4C283.046 392.32 282.886 392.241 282.726 392.161C282.886 392.241 283.046 392.32 283.206 392.4ZM282.36 391.98C282.236 391.92 282.11 391.86 281.985 391.8C282.11 391.86 282.236 391.92 282.36 391.98ZM281.441 391.54C281.35 391.497 281.258 391.456 281.167 391.413C281.258 391.456 281.35 391.497 281.441 391.54ZM280.605 391.153C280.567 391.136 280.529 391.119 280.491 391.102C280.389 391.056 280.287 391.01 280.185 390.965C280.325 391.027 280.465 391.09 280.605 391.153ZM279.746 390.771C279.585 390.7 279.423 390.631 279.261 390.562C279.423 390.631 279.585 390.7 279.746 390.771ZM278.856 390.39C278.797 390.365 278.738 390.339 278.679 390.314C278.598 390.281 278.518 390.248 278.438 390.215C278.577 390.273 278.717 390.331 278.856 390.39ZM277.972 390.024C277.816 389.961 277.661 389.899 277.505 389.837C277.661 389.899 277.816 389.961 277.972 390.024ZM277.106 389.68C277.019 389.646 276.932 389.611 276.845 389.577C276.768 389.547 276.69 389.519 276.613 389.489C276.778 389.552 276.942 389.616 277.106 389.68ZM276.164 389.319C276.083 389.289 276.001 389.258 275.92 389.228C275.888 389.216 275.855 389.204 275.823 389.192C275.937 389.234 276.051 389.277 276.164 389.319ZM273.246 388.295C273.205 388.281 273.164 388.266 273.122 388.253C273.097 388.245 273.072 388.237 273.047 388.229C273.113 388.25 273.18 388.273 273.246 388.295ZM272.38 388.016C272.313 387.995 272.247 387.973 272.181 387.952C272.169 387.948 272.157 387.945 272.146 387.941C272.224 387.966 272.302 387.991 272.38 388.016ZM95.8867 387.075C96.0606 387.319 96.2364 387.561 96.4141 387.802L95.8877 387.075C95.7138 386.832 95.5412 386.587 95.3711 386.341L95.8867 387.075ZM225.012 208.386C231.999 208.273 239 208.323 245.961 208.371C252.934 208.419 259.868 208.465 266.78 208.349C268.998 208.311 272.038 208.497 274.741 209.562C277.551 210.669 280.303 212.888 280.923 216.886C281.613 221.336 281.295 227.122 281.293 231.112V231.116L281.251 253.601C292.184 253.822 302.934 253.57 314.078 253.701H314.081C315.375 253.717 317.377 253.857 318.912 254.292C322.764 255.384 324.946 257.747 325.988 260.703C326.683 262.674 326.841 264.867 326.883 266.814L326.9 268.664L326.901 268.672V268.68L326.908 297.024V297.027C326.906 301.933 327.186 308.3 326.418 313.645L326.397 313.784L326.365 313.921C325.822 316.175 324.409 318.125 322.74 319.499C321.077 320.868 318.882 321.892 316.538 321.913H316.537C305.064 322.013 292.954 322.371 281.291 322.249L281.293 345.028C281.296 346.752 281.276 348.445 281.296 350.086L281.315 351.562C281.332 353.04 281.331 354.517 281.235 355.891C281.108 357.726 280.8 359.636 279.991 361.37C279.144 363.186 277.797 364.698 275.819 365.746C273.914 366.755 271.579 367.252 268.83 367.373L268.766 367.376H268.702L237.705 367.41H237.699C235.151 367.408 232.694 367.321 230.357 367.395L229.362 367.437C226.925 367.567 223.426 367.598 220.311 366.636C217.065 365.634 213.795 363.369 213.045 358.824V358.823C212.374 354.753 212.685 348.772 212.69 345.109V345.097C212.733 337.457 212.733 329.817 212.695 322.177C205.361 322.089 198.026 322.07 190.692 322.118H190.688C186.221 322.14 180.708 322.421 175.794 321.748V321.747C174.508 321.571 173.38 320.996 172.558 320.48C171.701 319.943 170.944 319.321 170.383 318.825V318.824C167.563 316.353 167.17 312.701 167.163 310.274C167.124 296.487 167.135 282.69 167.135 268.908C167.135 267.036 167.128 264.324 167.552 262.113C167.938 260.102 169.076 258.231 170.479 256.838C171.855 255.47 173.77 254.286 175.976 254.048L176.888 253.94C181.462 253.455 186.176 253.678 190.312 253.681H212.643C212.614 251.017 212.632 248.322 212.658 245.648C212.695 241.92 212.744 238.241 212.699 234.646L212.698 234.561L212.702 234.476C212.819 231.82 212.693 229.092 212.639 226.084C212.586 223.163 212.605 220.053 213.087 217.028L213.142 216.716C213.742 213.514 215.563 211.374 217.906 210.101C220.151 208.881 222.748 208.518 224.881 208.391L224.946 208.387L225.012 208.386ZM215.627 349.917C215.64 348.85 215.66 347.8 215.674 346.808C215.66 347.8 215.64 348.85 215.627 349.917ZM254.73 348.349C255.606 348.355 256.642 348.362 257.664 348.363C255.62 348.36 253.522 348.336 252.759 348.336L254.73 348.349ZM259.166 348.36L259.165 348.361C259.619 348.359 260.05 348.352 260.441 348.346C260.051 348.352 259.619 348.358 259.166 348.36ZM261.978 348.29C262.084 348.282 262.172 348.273 262.238 348.263C262.172 348.273 262.084 348.282 261.978 348.29ZM215.678 346.549C215.684 346.053 215.69 345.573 215.69 345.113C215.69 345.573 215.684 346.053 215.678 346.549ZM234.689 253.096V253.098C234.69 254.464 234.727 255.796 234.767 257.116C234.805 258.42 234.846 259.732 234.848 260.982C234.85 263.438 234.707 265.991 233.929 268.267C233.103 270.68 231.574 272.75 228.997 274.131C226.548 275.444 223.386 276.008 219.478 276.013H219.472L197.962 275.998C197.133 276.003 196.208 276.028 195.198 276.057C194.201 276.085 193.128 276.115 192.058 276.127C191.104 276.138 190.112 276.133 189.132 276.096C189.046 279.921 189.057 283.838 189.084 287.797C189.111 291.794 189.153 295.845 189.125 299.839C193.615 299.803 198.124 299.865 202.593 299.924C208.107 299.997 213.563 300.064 218.958 299.941L219.688 299.929C223.351 299.885 227.076 300.184 229.93 302.037C233.314 304.235 234.695 308.011 234.722 312.987V313.012L234.666 333.214C234.674 336.656 234.789 341.25 234.695 345.273C240.712 345.335 246.73 345.357 252.748 345.336H252.759C253.434 345.336 255.766 345.36 257.669 345.363C258.211 345.364 258.745 345.361 259.245 345.358L259.304 322.53C259.304 321.371 259.266 320.193 259.223 318.982C259.18 317.787 259.13 316.541 259.115 315.333C259.087 312.951 259.182 310.403 259.843 308.097C260.529 305.7 261.862 303.449 264.319 301.909C266.695 300.421 269.772 299.818 273.53 299.924H273.529C279.097 300.079 284.8 300.003 290.585 299.929C295.318 299.868 300.105 299.81 304.846 299.886L304.884 283.403C304.884 281.066 304.932 278.44 304.905 276.034C300.487 276.085 296.062 276.051 291.671 276.013C286.278 275.966 280.936 275.916 275.631 276.018H275.63C271.348 276.099 267.088 275.891 263.962 273.769C260.503 271.42 259.251 267.409 259.229 262.196V262.172L259.301 242.093L259.29 240.448C259.26 237.452 259.187 233.742 259.253 230.489C251.168 230.467 242.807 230.563 234.672 230.483L234.689 253.096ZM411.746 336.648C411.742 336.396 411.737 336.144 411.73 335.892C411.737 336.144 411.742 336.396 411.746 336.648ZM411.712 335.229C411.707 335.058 411.701 334.887 411.695 334.717C411.701 334.887 411.707 335.058 411.712 335.229ZM411.646 333.535C411.653 333.665 411.657 333.794 411.663 333.924C411.651 333.639 411.637 333.354 411.622 333.069C411.63 333.225 411.639 333.38 411.646 333.535ZM411.584 332.395C411.576 332.251 411.568 332.107 411.559 331.963C411.568 332.107 411.576 332.251 411.584 332.395ZM411.524 331.474C411.498 331.091 411.471 330.71 411.44 330.329C411.471 330.71 411.498 331.091 411.524 331.474ZM411.393 329.74C411.36 329.355 411.324 328.97 411.287 328.586C411.324 328.97 411.36 329.355 411.393 329.74ZM176.2 318.775C176.472 318.813 176.745 318.846 177.02 318.877C176.745 318.846 176.472 318.813 176.201 318.775C176.116 318.764 176.031 318.749 175.945 318.73H175.944C176.03 318.749 176.115 318.764 176.2 318.775ZM408.922 314.499C409.027 314.937 409.13 315.376 409.229 315.815C409.429 316.695 409.619 317.579 409.796 318.468H409.797C409.531 317.135 409.239 315.811 408.922 314.498V314.499ZM264.304 305.839C264.248 305.904 264.195 305.972 264.143 306.039C264.204 305.961 264.267 305.883 264.332 305.807L264.304 305.839ZM273.446 302.924C274.151 302.944 274.858 302.959 275.566 302.972L273.446 302.923C273.232 302.917 273.021 302.914 272.814 302.913C273.021 302.914 273.232 302.918 273.446 302.924ZM307.884 283.41L307.839 302.953L307.884 283.411C307.884 282.613 307.89 281.759 307.897 280.877V280.876C307.89 281.758 307.884 282.612 307.884 283.41ZM402.394 295.523C402.758 296.335 403.114 297.151 403.46 297.971L402.935 296.744C402.757 296.336 402.576 295.929 402.394 295.523ZM186.072 280.259C186.068 280.885 186.066 281.512 186.064 282.141H186.065C186.067 281.512 186.068 280.885 186.072 280.259ZM301.784 273.059V273.06C302.456 273.057 303.127 273.054 303.798 273.048V273.047C303.127 273.053 302.456 273.056 301.784 273.059ZM383.347 265.247C384.396 266.534 385.424 267.834 386.43 269.146L386.431 269.146C385.425 267.833 384.396 266.534 383.347 265.247ZM383.106 264.954C382.854 264.646 382.601 264.339 382.347 264.033C382.601 264.339 382.854 264.646 383.106 264.954ZM170.599 262.25C170.559 262.393 170.525 262.535 170.498 262.678C170.476 262.795 170.454 262.914 170.435 263.035C170.395 263.277 170.361 263.527 170.331 263.782L170.38 263.404C170.414 263.155 170.453 262.913 170.498 262.679C170.525 262.536 170.559 262.393 170.599 262.25ZM382.074 263.705C381.874 263.466 381.673 263.228 381.472 262.989C381.673 263.228 381.874 263.466 382.074 263.705ZM318.094 257.179C318.231 257.218 318.364 257.26 318.494 257.303L318.094 257.178C318.058 257.168 318.02 257.16 317.983 257.15C318.021 257.16 318.058 257.168 318.094 257.179ZM175.749 257.123C175.782 257.116 175.815 257.107 175.848 257.101L175.855 257.099C175.82 257.106 175.785 257.115 175.749 257.123ZM317.698 257.079C317.678 257.075 317.658 257.069 317.638 257.064C317.606 257.057 317.573 257.052 317.541 257.045C317.594 257.056 317.647 257.067 317.698 257.079ZM176.356 257.023L176.102 257.055C176.187 257.042 176.272 257.031 176.357 257.023C176.612 256.991 176.866 256.961 177.121 256.934C176.866 256.961 176.611 256.991 176.356 257.023ZM315.056 256.737C315.584 256.768 316.144 256.82 316.681 256.896C316.661 256.893 316.642 256.889 316.622 256.887C316.104 256.816 315.565 256.767 315.056 256.737ZM281.781 256.611C283.585 256.645 285.389 256.669 287.193 256.682V256.681C286.448 256.675 285.702 256.669 284.956 256.66C283.898 256.648 282.839 256.631 281.781 256.611ZM186.856 256.65C188.012 256.664 189.164 256.68 190.31 256.681L188.572 256.67C188.001 256.664 187.429 256.657 186.856 256.65ZM375.838 256.625L374.898 255.618C374.797 255.51 374.694 255.404 374.592 255.296C375.009 255.738 375.425 256.18 375.838 256.625ZM280.032 256.576C280.553 256.588 281.075 256.598 281.596 256.608C281.075 256.598 280.553 256.588 280.032 256.576ZM374.083 254.76C373.782 254.444 373.481 254.128 373.178 253.813C373.481 254.128 373.782 254.444 374.083 254.76ZM433.629 97.374C447.558 96.6484 461.593 100.785 472.521 109.967L473.038 110.408L473.042 110.411C488.482 123.748 494.554 142.419 493.876 160.801C493.202 179.085 485.872 197.501 473.958 211.258C460.48 226.821 443.577 236.804 422.289 238.508L422.288 238.509C389.251 241.147 363.839 214.489 361.796 183.488C359.023 141.431 389.818 101.012 433.414 97.3887L433.521 97.3799L433.629 97.374ZM53.7617 97.375C83.6086 95.9461 109.018 114.876 122.248 139.104C135.503 163.378 137.447 194.702 118.108 218.726C108.093 231.167 93.9827 237.167 79.1338 238.503L79.0547 238.51L78.9756 238.516C61.3092 239.704 45.2633 233.046 31.7402 222.71L30.4395 221.698C11.7063 206.874 0.480048 182.633 0.0146484 159.353C-0.456418 135.783 10.1913 112.407 35.9902 101.247C41.7224 98.7674 48.06 97.8206 53.5479 97.3887L53.6543 97.3799L53.7617 97.375ZM347.097 230.503C346.409 229.964 345.719 229.429 345.028 228.896C345.719 229.429 346.409 229.964 347.097 230.503ZM262.373 227.503C262.338 228.024 262.311 228.576 262.29 229.15L262.327 228.307C262.341 228.032 262.356 227.763 262.373 227.503ZM344.572 228.545C344.027 228.126 343.48 227.709 342.933 227.293C343.48 227.708 344.027 228.126 344.572 228.545ZM342.379 226.873C341.773 226.415 341.166 225.96 340.559 225.507C341.166 225.96 341.773 226.415 342.379 226.873ZM445.503 225.073C445.255 225.196 445.006 225.316 444.757 225.436C445.256 225.197 445.752 224.952 446.245 224.701L445.503 225.073ZM338.243 223.794C338.97 224.327 339.695 224.863 340.419 225.402C339.403 224.646 338.384 223.896 337.363 223.151C337.657 223.365 337.95 223.579 338.243 223.794ZM336.628 222.616C336.347 222.412 336.066 222.209 335.784 222.006C336.066 222.209 336.347 222.412 336.628 222.616ZM327.012 215.852C329.751 217.723 332.488 219.637 335.212 221.595C332.534 219.671 329.845 217.788 327.152 215.947L327.012 215.852ZM216.232 216.646C216.195 216.781 216.162 216.92 216.132 217.062C216.193 216.777 216.267 216.507 216.354 216.249L216.232 216.646ZM33.8242 215.434C34.1417 215.695 34.4609 215.954 34.7832 216.209C34.9968 216.378 35.213 216.543 35.4277 216.71C35.2129 216.543 34.997 216.377 34.7832 216.208C34.4611 215.953 34.1416 215.695 33.8242 215.434ZM326.975 215.826C326.257 215.336 325.538 214.849 324.82 214.364C325.538 214.849 326.257 215.336 326.975 215.826ZM418.489 215.577L419.464 215.583L418.489 215.576C418.21 215.571 417.932 215.562 417.655 215.551L418.489 215.577ZM33.21 214.923C33.3571 215.047 33.5061 215.169 33.6543 215.292C33.4186 215.097 33.1842 214.9 32.9512 214.701C33.0376 214.775 33.1232 214.85 33.21 214.923ZM32.4375 214.261C32.5199 214.332 32.6038 214.402 32.6865 214.474C32.4639 214.282 32.2426 214.088 32.0225 213.894C32.1609 214.016 32.2982 214.139 32.4375 214.261ZM324.569 214.195C324.089 213.872 323.609 213.549 323.129 213.228C323.609 213.549 324.089 213.872 324.569 214.195ZM31.6748 213.587C31.7168 213.625 31.7596 213.662 31.8018 213.699C31.5066 213.436 31.2134 213.17 30.9229 212.9L31.6748 213.587ZM322.315 212.686C322.008 212.481 321.7 212.275 321.393 212.071C321.7 212.275 322.008 212.481 322.315 212.686ZM318.001 209.843C319.13 210.579 320.261 211.321 321.393 212.071C320.261 211.321 319.13 210.578 318.001 209.842C316.986 209.195 315.971 208.552 314.956 207.913C315.971 208.552 316.986 209.195 318.001 209.843ZM266.831 211.348L264.223 211.385C265.092 211.375 265.962 211.363 266.831 211.349C267.413 211.339 268.036 211.346 268.678 211.381C268.036 211.346 267.413 211.338 266.831 211.348ZM28.0166 210.041C28.1743 210.206 28.3339 210.368 28.4932 210.531C28.2945 210.328 28.0969 210.124 27.9004 209.918L28.0166 210.041ZM57.502 127.385C49.455 127.756 43.6947 130.291 39.627 133.838C35.481 137.453 32.6486 142.51 31.2061 148.542C28.2724 160.81 31.3641 176.124 39.3652 187.394C48.4514 200.191 60.4388 208.192 75.2939 208.591C84.4684 208.183 91.1633 204.428 95.5879 198.886C100.139 193.185 102.658 185.105 102.286 175.739C101.82 164.019 96.6214 151.849 88.2998 142.594C80.0434 133.411 69.1655 127.567 57.502 127.385ZM436.158 127.386C410.725 128.65 390.811 153.487 391.531 179.382L391.561 180.177C392.349 196.748 403.192 208.609 419.304 208.582C431.586 208.021 442.865 201.573 451.098 191.766C459.249 182.055 464.011 169.506 463.754 157.375L463.737 156.798C463.433 147.93 460.531 140.632 455.914 135.611C451.402 130.705 444.849 127.518 436.158 127.386ZM23.9707 205.431C24.0338 205.509 24.0987 205.586 24.1621 205.664C24.0696 205.55 23.9766 205.437 23.8848 205.322L23.9707 205.431ZM305.983 202.473C307.142 203.14 308.294 203.82 309.441 204.511L307.717 203.483C307.14 203.144 306.563 202.807 305.983 202.473ZM335.745 202.058C336.285 202.425 336.824 202.795 337.362 203.166L335.745 202.057C335.206 201.689 334.665 201.324 334.125 200.96L335.745 202.058ZM296.148 197.254C296.016 197.19 295.884 197.127 295.751 197.064C295.884 197.127 296.016 197.19 296.148 197.254ZM295.112 196.763C294.987 196.704 294.862 196.647 294.736 196.589C294.862 196.647 294.987 196.704 295.112 196.763ZM294.145 196.316C294.035 196.267 293.926 196.217 293.816 196.167C293.926 196.217 294.035 196.267 294.145 196.316ZM293.105 195.848C293.01 195.805 292.914 195.763 292.818 195.721C292.914 195.763 293.01 195.805 293.105 195.848ZM292.116 195.415C292.007 195.368 291.898 195.32 291.788 195.273C291.898 195.32 292.007 195.368 292.116 195.415ZM291.041 194.958C290.962 194.925 290.884 194.891 290.805 194.858C290.884 194.891 290.962 194.925 291.041 194.958ZM14.6846 190.662C14.8334 190.971 14.9847 191.28 15.1377 191.587C14.9847 191.279 14.8335 190.971 14.6846 190.661V190.662ZM274.654 189.55H274.655C274.312 189.465 273.968 189.382 273.624 189.301H273.623C273.967 189.382 274.311 189.465 274.654 189.55ZM222.439 188.908C222.304 188.936 222.17 188.966 222.035 188.994C222.517 188.892 223.001 188.792 223.489 188.694L222.439 188.908ZM235.205 186.899C234.637 186.963 234.075 187.03 233.517 187.099C234.075 187.03 234.637 186.963 235.205 186.899ZM251.521 170.228L249.896 170.173C249.771 170.169 249.645 170.166 249.52 170.162C250.19 170.182 250.859 170.205 251.521 170.228ZM248.546 170.136C248.372 170.132 248.198 170.127 248.023 170.124C248.198 170.127 248.372 170.132 248.546 170.136ZM247.713 170.119C247.349 170.114 246.986 170.11 246.623 170.109C246.986 170.11 247.349 170.114 247.713 170.119ZM323.763 0.368164C339.431 -0.283119 354.212 3.53636 366.929 13.8379C385.374 28.7789 393.655 50.5966 394.036 72.4873C394.416 94.3095 386.986 116.709 373.376 133.617C359.1 151.353 341.57 162.023 318.566 164.646L318.413 164.664L318.26 164.675C302.46 165.774 286.84 160.869 274.516 150.956L273.932 150.48C258.458 137.729 249.834 118.746 248.109 99.5049L248.01 98.3203C246.079 73.4454 253.869 48.7717 269.767 29.5039L269.787 29.4795L269.807 29.4551C283.55 13.1008 301.364 2.33931 323.438 0.389648L323.6 0.375L323.763 0.368164ZM162.616 0.136719C181.189 -1.18185 199.876 7.20727 213.247 18.4014C230.672 32.9686 241.965 54.6684 245.251 77.1123C248.542 99.5913 243.868 123.419 228.502 141.853C216.672 156.044 201.379 163.085 183.633 164.634L183.536 164.643L183.439 164.648C165.454 165.718 146.305 157.653 133.263 146.632L133.235 146.608C114.167 130.325 102.286 107.18 100.17 82.1943L100.168 82.167C98.5896 62.5939 103.073 43.0453 113.587 27.8252C124.204 12.4572 140.818 1.77113 162.589 0.138672L162.616 0.136719ZM317.773 157.691C317.5 157.71 317.227 157.727 316.954 157.741C317.005 157.739 317.055 157.737 317.105 157.734L317.773 157.692C318.099 157.655 318.422 157.615 318.745 157.574C318.422 157.615 318.099 157.654 317.773 157.691ZM309.404 141.339C309.597 141.36 309.79 141.379 309.984 141.397C309.558 141.357 309.134 141.31 308.715 141.259L309.404 141.339ZM400.517 137.549C400.213 137.878 399.914 138.212 399.618 138.549C399.914 138.212 400.213 137.879 400.517 137.55V137.549ZM331.409 30.4531C329.508 30.269 327.809 30.279 325.575 30.3516C296.066 34.0787 279.531 60.2641 278.03 86.7959C277.284 99.9852 280.385 112.344 286.781 121.073C292.949 129.491 302.479 135.002 316.173 134.601C331.165 132.988 343.701 124.25 352.273 111.796C360.925 99.2269 365.223 83.2807 363.786 68.3584L363.689 67.4424C361.519 48.2734 349.527 32.207 331.409 30.4531ZM209.911 62.6562C200.653 42.6238 183.087 28.6787 162.604 30.334C152.113 32.0672 144.727 35.9971 138.849 44.332C130.137 56.6849 128.012 72.609 131.427 88.0059C134.847 103.427 143.688 117.627 155.902 126.286H155.901C164.151 132.13 174.134 135.414 183.328 134.435L183.346 134.433C192.497 133.481 199.993 129.241 206.099 121.891C218.854 106.535 219.233 82.827 209.911 62.6562ZM370.21 126.245C369.47 127.259 368.708 128.253 367.924 129.228C367.799 129.383 367.672 129.537 367.547 129.691L367.924 129.229C368.316 128.741 368.703 128.249 369.084 127.752C369.274 127.503 369.464 127.254 369.651 127.003C369.839 126.752 370.025 126.499 370.21 126.246V126.245ZM280.32 124.059C280.398 124.172 280.476 124.285 280.555 124.397C280.516 124.342 280.476 124.286 280.438 124.23C280.398 124.173 280.36 124.116 280.32 124.059ZM18.6064 122.713C18.4108 122.955 18.2168 123.199 18.0264 123.444C17.9157 123.587 17.8081 123.732 17.6992 123.876C17.9955 123.485 18.2971 123.097 18.6064 122.713ZM43.9766 123.114C43.5197 123.298 43.0708 123.49 42.6299 123.69L43.2979 123.396C43.5222 123.301 43.7483 123.206 43.9766 123.114ZM19.917 121.153C19.7182 121.38 19.523 121.609 19.3291 121.838C19.523 121.609 19.7183 121.38 19.917 121.153ZM466.187 113.868C466.963 114.455 467.724 115.069 468.466 115.709V115.708C467.723 115.068 466.963 114.454 466.187 113.867V113.868ZM379.194 110.674C378.676 111.835 378.134 112.985 377.567 114.12L377.988 113.266C378.127 112.98 378.264 112.694 378.399 112.406C378.535 112.119 378.669 111.832 378.802 111.543C378.934 111.254 379.065 110.964 379.194 110.674ZM29.0879 113.01C29.0556 113.032 29.0235 113.055 28.9912 113.077C29.0888 113.009 29.1869 112.942 29.2852 112.875C29.2194 112.92 29.1533 112.965 29.0879 113.01ZM30.873 111.828C30.8617 111.835 30.8502 111.842 30.8389 111.85C30.9081 111.806 30.9783 111.763 31.0479 111.72C30.9897 111.756 30.9309 111.791 30.873 111.828ZM31.7939 111.258C31.7387 111.291 31.684 111.326 31.6289 111.359C31.733 111.296 31.8376 111.233 31.9424 111.17L31.7939 111.258ZM38.7686 107.671C38.7107 107.696 38.6534 107.722 38.5957 107.747C38.6536 107.722 38.7114 107.696 38.7695 107.671C38.7868 107.663 38.804 107.656 38.8213 107.648C38.8038 107.656 38.786 107.663 38.7686 107.671ZM430.283 104.776C429.906 104.829 429.53 104.884 429.155 104.942C429.53 104.884 429.906 104.829 430.283 104.776ZM433.072 104.447C432.997 104.455 432.922 104.462 432.847 104.47C433.228 104.432 433.61 104.397 433.993 104.365L433.072 104.447ZM272.711 74.248L272.712 74.2471C272.81 73.7998 272.912 73.3532 273.019 72.9072H273.018C272.911 73.3535 272.809 73.8005 272.711 74.248ZM308.845 27.6553C308.799 27.6749 308.753 27.6951 308.707 27.7148C308.976 27.5988 309.247 27.4844 309.52 27.3721L308.845 27.6553ZM344.059 26.5742L343.982 26.54C343.963 26.5315 343.943 26.5231 343.924 26.5146C343.969 26.5342 344.014 26.5545 344.059 26.5742ZM164.257 7.05273C163.875 7.07045 163.493 7.09209 163.112 7.11914C162.806 7.14208 162.502 7.16745 162.198 7.19434L163.112 7.12012C163.493 7.09306 163.875 7.07069 164.257 7.05273ZM167.699 7.0166C168.03 7.02472 168.361 7.03718 168.691 7.05176C168.617 7.04844 168.542 7.044 168.467 7.04102C168.211 7.03083 167.956 7.0219 167.7 7.01562L167.699 7.0166Z" fill="black"/>
</svg>
